<?xml version="1.0" encoding="UTF-8"?>
<svg width="1024" height="1024" viewBox="0 0 1024 1024" xmlns="http://www.w3.org/2000/svg">
    <path id="face-fill" fill="#ffffff" stroke="none" d="M 887 1024 C 887 1024 866.8 793.4 866.8 793.4 C 866.8 793.4 963.8 726 942 609.2 C 913.4 454.2 772 437.6 726 445 C 685.6 401.6 584.8 340.2 451.6 351.8 C 438.4 353 425 354.8 411.2 357.4 C 382 363 351.6 372.4 320 386 C 84 488.4 119.2 727.8 117.8 729.4 C 102.6 746 108.8 780.6 109 783 C 113.6 828.2 129 844.2 130 846 C 131.6 848.8 147 1024 147 1024 Z"/>
    <path id="faceline" fill="none" stroke="#000000" stroke-width="32" d="M 887 1024 C 887 1024 866.8 793.4 866.8 793.4 C 866.8 793.4 963.8 726 942 609.2 C 913.4 454.2 772 437.6 726 445 C 685.6 401.6 584.8 340.2 451.6 351.8 C 438.4 353 425 354.8 411.2 357.4 C 382 363 351.6 372.4 320 386 C 84 488.4 119.2 727.8 117.8 729.4 C 102.6 746 108.8 780.6 109 783 C 113.6 828.2 129 844.2 130 846 C 131.6 848.8 147 1024 147 1024"/>
    <path id="hairline" fill="#000000" fill-rule="evenodd" stroke="#000000" stroke-width="8" d="M 411.2 357.4 C 410 358 387 250.2 290 222 L 294 206 C 294 206 337 219.8 342 228 C 347 236.2 289.2 171.4 230 152 L 232 134 C 232 134 348.8 189 388 260 C 388 260 357.8 129 242 84 L 246 68 C 246 68 308.8 92.4 336 128 L 340 124 C 340 124 353.2 137.2 354 140 C 354.8 142.8 341.6 107 314 80 L 324 68 C 324 68 372.8 109.4 410 240 C 410 240 415.8 131 454 100 C 454 100 488 11.6 514 0 L 526 10 C 526 10 493.4 45.6 478 82 L 486 90 C 486 90 466.2 107.6 466 112 C 465.8 116.4 448.6 144.8 446 176 C 446 176 477 109.4 530 100 L 542 92 L 552 106 C 552 106 484 130.2 460 228 C 460 228 506.8 130 582 92 L 590 104 C 590 104 462.2 181.2 451.6 351.8 C 438.4 353 425 354.8 411.2 357.4"/>
    <path id="googles" fill="none" stroke="#000000" stroke-width="32" d="M 130 846 C 131.2 843.4 131 813.4 156 793 C 179.2 774.2 196.4 760.8 196 769 C 195.4 779 206.2 785 238.6 772.4 C 240.2 771.6 314.8 890.4 450.8 862 C 558.6 839.6 594.8 779 595.4 778 C 595.4 778 712.4 904 866.8 793.4 C 866.8 793.4 963.8 726 942 609.2 C 913.4 454.2 772 437.6 726 445 C 688.2 451.4 647.2 457.8 590 531 C 590 531 543 460.6 422 462 C 353.8 462.8 313.4 500.2 282 542 C 239.4 598.6 226 631.8 223 632 C 197.6 633.4 183.8 635.2 183 667 C 183 670 119.2 727.8 117.8 729.4 C 102.6 746 108.8 780.6 109 783 C 113.6 828.2 129 844.2 130 846 Z"/>
    <path id="right-eyeball" fill="#000000" fill-rule="evenodd" stroke="none" d="M 749 676.2 C 749 664.9 740 656.7 729 656.7 C 718 656.7 709 664.9 709 676.2 C 709 687.5 718 696.7 729 696.7 C 740 696.7 749 687.5 749 676.2 Z"/>
    <path id="right-eye-contour" fill="none" stroke="#000000" stroke-width="12" d="M 779 677 C 779 704.1 757.1 726 730 726 C 702.9 726 681 704.1 681 677 C 681 670.5 682.3 664.3 684.4 659.5 L 729 656.7 L 772.8 653.6 C 776.6 659.7 779 668.1 779 677"/>
    <path id="right-eyeline" fill="none" stroke="#000000" stroke-width="16" d="M 629.9 663.2 L 684.4 659.5 L 729 656.7 L 772.8 653.6 L 892.3 645.7"/>
    <path id="right-lens" fill="none" stroke="#000000" stroke-width="24" d="M 892.8 634.2 C 892.8 560.7 833.3 501.1 759.8 501.1 C 686.3 501.1 626.7 560.7 626.7 634.2 C 626.7 643.8 627.7 653.1 629.9 663.2 C 642.4 722.2 695.8 767.3 759.8 767.3 C 829.6 767.3 886.8 713.5 892.3 645.7 C 892.7 641.5 892.8 637.9 892.8 634.2 Z"/>
    <path id="left-eyeball" fill="#000000" fill-rule="evenodd" stroke="none" d="M 451 696.1 C 451 685.1 442 676.1 431 676.1 C 420 676.1 411 685.1 411 696.1 C 411 707.1 420 716.1 431 716.1 C 442 716.1 451 707.1 451 696.1 Z"/>
    <path id="left-eye-contour" fill="none" stroke="#000000" stroke-width="12" d="M 481 697 C 481 724.1 459.1 746 432 746 C 404.9 746 383 724.1 383 697 C 383 690.5 384.3 684.3 386.4 679.1 L 431 676.1 L 474.8 673.2 C 478.6 679.7 481 688.1 481 697"/>
    <path id="left-eyeline" fill="none" stroke="#000000" stroke-width="16" d="M 309.9 684.2 L 386.4 679.1 L 431 676.1 L 474.8 673.2 L 572.3 666.7"/>
    <path id="left-lens" fill="none" stroke="#000000" stroke-width="24" d="M 572.8 655.2 C 572.8 581.7 513.3 522.1 439.8 522.1 C 366.3 522.1 306.7 581.7 306.7 655.2 C 306.7 664.8 307.7 674.1 309.9 684.2 C 322.4 743.2 375.8 788.3 439.8 788.3 C 509.6 788.3 566.8 734.5 572.3 666.7 C 572.7 662.5 572.8 658.9 572.8 655.2 Z "/>
</svg>
