<?xml version="1.0" encoding="UTF-8"?>
<!-- Generated by Pixelmator Pro 3.3.8 -->
<svg width="512" height="512" viewBox="0 0 512 512" xmlns="http://www.w3.org/2000/svg">
    <g id="minion">
        <g id="face">
            <path id="face-fill" fill="#ffffff" fill-rule="evenodd" stroke="none" d="M 443.500793 512 C 443.500793 512 433.427185 396.671997 433.427185 396.65921 C 433.427185 396.65921 481.855988 362.979187 471.040009 304.640015 C 456.665588 227.104004 385.971191 218.835205 363.001587 222.499207 C 336.630402 194.108795 258.470398 150.291199 160 193.001587 C 41.9776 244.188782 59.612801 363.9104 58.892799 364.697601 C 51.279999 373.040009 54.4384 390.316803 54.499199 391.500793 C 56.796799 414.057587 64.451202 422.086395 65.001602 423.001587 C 65.811203 424.35199 73.500801 512 73.500801 512 Z"/>
            <g id="eyes">
                <path id="eyeball-2" fill="#000000" fill-rule="evenodd" stroke="none" d="M 373.806244 338.162506 C 373.806244 332.639648 369.329102 328.162506 363.806244 328.162506 C 358.283417 328.162506 353.806244 332.639648 353.806244 338.162506 C 353.806244 343.685364 358.283417 348.162506 363.806244 348.162506 C 369.329102 348.162506 373.806244 343.685364 373.806244 338.162506 Z"/>
                <path id="eyeball-1" fill="#000000" fill-rule="evenodd" stroke="none" d="M 225.305603 348.206696 C 225.305603 342.054108 220.828796 337.653595 215.305603 338.0625 C 209.785599 338.377106 205.305603 342.777588 205.305603 348.206696 C 205.305603 353.602203 209.785599 358.036194 215.305603 358.036194 C 220.828796 358.036194 225.305603 353.635712 225.305603 348.206696 Z"/>
                <path id="eye-contour-2" fill="none" stroke="#000000" stroke-width="6" d="M 389.5 338 C 389.5 333.670105 388.376801 329.602509 386.698639 326.612091 L 341.977997 329.599823 C 341.080292 331.911285 340.5 334.887909 340.5 338 C 340.5 351.531006 351.468994 362.5 365 362.5 C 378.531006 362.5 389.5 351.531006 389.5 338 Z"/>
                <path id="eye-contour-1" fill="none" stroke="#000000" stroke-width="6" d="M 240.5 348.5 C 240.5 344.03479 239.305511 339.848602 237.412994 336.58551 L 193.190079 339.540009 C 192.131805 342.15271 191.5 345.252594 191.5 348.5 C 191.5 362.031006 202.468994 373 216 373 C 229.531006 373 240.5 362.031006 240.5 348.5 Z"/>
                <path id="eyeline-2" fill="none" stroke="#000000" stroke-width="8" d="M 315.094391 331.395203 L 445.64801 322.675201"/>
                <path id="eyeline-1" fill="none" stroke="#000000" stroke-width="8" d="M 154.931198 342.096008 L 286.172791 333.328003"/>
                <path id="lens-2" fill="none" stroke="#000000" stroke-width="12" d="M 446.098999 314.930695 C 446.098999 278.184631 416.310425 248.396027 379.564362 248.396027 C 342.818298 248.396027 313.029694 278.184631 313.029694 314.930695 C 313.029694 351.676758 342.818298 381.465332 379.564362 381.465332 C 416.310425 381.465332 446.098999 351.676758 446.098999 314.930695 Z"/>
                <path id="lens-1" fill="none" stroke="#000000" stroke-width="12" d="M 286.415833 327.603943 C 286.415833 290.85791 256.627258 261.069305 219.88118 261.069305 C 183.135132 261.069305 153.346527 290.85791 153.346527 327.603943 C 153.346527 364.350037 183.135132 394.138611 219.88118 394.138611 C 256.627258 394.138611 286.415833 364.350037 286.415833 327.603943 Z"/>
            </g>
            <path id="googles" fill="none" stroke="#000000" stroke-width="16" d="M 65.001602 423.001587 C 65.641602 421.651215 65.472 406.707214 78 396.499207 C 89.590401 387.059204 98.243202 380.368011 98 384.499207 C 97.705597 389.513611 103.097603 392.511993 119.251198 386.182404 C 120.099197 385.849609 157.443069 445.222443 225.366394 431.040009 C 279.284882 419.781799 297.40799 389.475189 297.673615 388.982391 C 297.673615 388.982391 356.208008 452.035187 433.427185 396.65921 C 433.427185 396.65921 481.196808 363.097595 471.040009 304.640015 C 456.665588 227.104004 385.971191 218.835205 363.001587 222.499207 C 344.102386 225.673584 323.584015 228.902405 295.001587 265.500793 C 293.436798 267.500793 271.529602 230.310394 211.001602 231.001587 C 176.931198 231.388794 156.668793 250.147217 141.001602 271.001587 C 119.718399 299.324799 113.004799 315.916809 111.500801 316 C 98.800003 316.70401 91.884804 317.612793 91.500801 333.500793 C 91.465599 334.956787 59.612801 363.9104 58.892799 364.697601 C 51.279999 373.040009 54.4384 390.316803 54.499199 391.500793 C 56.796799 414.057587 64.451202 422.086395 65.001602 423.001587 Z"/>
            <path id="face-contour" fill="none" stroke="#000000" stroke-width="16" d="M 443.500793 512 C 443.500793 512 433.427185 396.671997 433.427185 396.65921 C 433.427185 396.65921 481.855988 362.979187 471.040009 304.640015 C 456.665588 227.104004 385.971191 218.835205 363.001587 222.499207 C 336.630402 194.108795 258.470398 150.291199 160 193.001587 C 41.9776 244.188782 59.612801 363.9104 58.892799 364.697601 C 51.279999 373.040009 54.4384 390.316803 54.499199 391.500793 C 56.796799 414.057587 64.451202 422.086395 65.001602 423.001587 C 65.811203 424.35199 73.500801 512 73.500801 512"/>
        </g>
        <g id="hair">
            <path id="hair-11" fill="none" stroke="#000000" stroke-width="8" d="M 220.514847 176.422394 C 220.514847 176.422394 227.333435 89.349823 293.5 48"/>
            <path id="hair-10" fill="none" stroke="#000000" stroke-width="8" d="M 220.514847 176.422394 C 220.514847 176.422394 214.739197 87.076569 274 48.5"/>
            <path id="hair-9" fill="none" stroke="#000000" stroke-width="8" d="M 219.247513 176.574402 C 219.247513 176.574402 200.469849 77.943054 264.871277 53.227722"/>
            <path id="hair-8" fill="none" stroke="#000000" stroke-width="8" d="M 214.178207 177.257599 C 210.366592 158.712402 206.548935 57.902954 263 0"/>
            <path id="hair-7" fill="none" stroke="#000000" stroke-width="8" d="M 216.728485 176.895996 C 216.728485 176.895996 191.186844 77.035278 241 42.5"/>
            <path id="hair-6" fill="none" stroke="#000000" stroke-width="8" d="M 214.178207 177.257599 C 214.178207 177.425781 200.478531 75.47818 159.683167 36.752472"/>
            <path id="hair-5" fill="none" stroke="#000000" stroke-width="8" d="M 214.178207 177.257599 C 214.178207 177.257599 202.519653 93.3414 167.28714 64.633667"/>
            <path id="hair-4" fill="none" stroke="#000000" stroke-width="8" d="M 214.178207 177.257599 C 214.178207 176.158447 193.875137 111.508667 192.633667 108.990112"/>
            <path id="hair-3" fill="none" stroke="#000000" stroke-width="8" d="M 211.643585 177.651184 C 211.643585 177.651184 194.780228 59.333801 122 37.5"/>
            <path id="hair-2" fill="none" stroke="#000000" stroke-width="8" d="M 209.108932 178.076782 C 202.892609 115.802673 130.258682 73.372559 115.5 71.5"/>
            <path id="hair-1" fill="none" stroke="#000000" stroke-width="8" d="M 209.110397 178.076782 C 209 174.710999 196.413574 120.078888 146.242554 106.455444"/>
        </g>
    </g>
</svg>
