<?xml version="1.0" encoding="UTF-8"?>
<svg viewBox="0 0 150 150" xmlns="http://www.w3.org/2000/svg">
  <linearGradient
    id="linearGradient1"
    x1="66.91875"
    y1="19.825"
    x2="24.667188"
    y2="144.646875"
    gradientUnits="userSpaceOnUse"
  >
    <stop
      offset="1e-05"
      stop-color="#114a8b"
      stop-opacity="1"
    />
    <stop
      offset="1"
      stop-color="#0669bc"
      stop-opacity="1"
     />
  </linearGradient>
    <path
      fill="url(#linearGradient1)"
      d="M 52.1 10.2 L 92.8 10.2 L 50.5 135.4 C 49.7 138 47.2 139.8 44.4 139.8 L 12.7 139.8 C 10.6 139.8 8.7 138.8 7.5 137.1 C 6.3 135.4 5.9 133.2 6.6 131.2 L 45.9 14.6 C 46.8 12 49.3 10.2 52.1 10.2 Z"
    />
    <path
      fill="#0078d4"
      d="M 111.2 94.2 L 46.7 94.2 C 45.5 94.2 44.4 94.9 43.9 96.0 C 43.5 97.2 43.8 98.5 44.7 99.3 L 86.1 138.0 C 87.3 139.1 88.9 139.8 90.6 139.8 L 127.1 139.8 Z"
    />
  <linearGradient
    id="linearGradient2"
    x1="80.117188"
    y1="77.995313"
    x2="70.34375"
    y2="81.3"
    gradientUnits="userSpaceOnUse"
  >
    <stop
      offset="1e-05"
      stop-color="#000000"
      stop-opacity="0.3"
    />
    <stop
      offset="0.071"
      stop-color="#000000"
      stop-opacity="0.2"
    />
    <stop
      offset="0.321"
      stop-color="#000000"
      stop-opacity="0.1"
    />
    <stop
      offset="0.623"
      stop-color="#000000"
      stop-opacity="0.05"
    />
    <stop
      offset="1"
      stop-color="#000000"
      stop-opacity="0"
    />
  </linearGradient>
    <path
      fill="url(#linearGradient2)"
      d="M 52.1 10.2 C 49.3 10.2 46.8 12 45.9 14.7 L 6.6 131.1 C 5.9 133.1 6.2 135.3 7.4 137 C 8.7 138.8 10.6 139.8 12.8 139.8 L 45.2 139.8 C 47.7 139.3 49.7 137.6 50.6 135.2 L 58.4 112.2 L 86.4 138.3 C 87.5 139.2 89 139.8 90.5 139.8 L 126.9 139.8 L 111 94.2 L 64.4 94.2 L 92.9 10.2 Z"
    />
  <linearGradient
    id="linearGradient3"
    x1="74.742187"
    y1="16.184375"
    x2="121.121875"
    y2="139.748438"
    gradientUnits="userSpaceOnUse"
  >
    <stop
      offset="1e-05"
      stop-color="#3ccbf4"
      stop-opacity="1"
    />
    <stop
      offset="1"
      stop-color="#2892df"
      stop-opacity="1"
    />
  </linearGradient>
    <path
      fill="url(#linearGradient3)"
      d="M 104.1 14.6 C 103.2 12 100.7 10.2 97.9 10.2 L 52.6 10.2 C 55.4 10.2 57.8 12 58.7 14.6 L 98.1 131.2 C 98.7 133.2 98.4 135.4 97.2 137.1 C 96 138.8 94 139.8 91.9 139.8 L 137.3 139.8 C 139.4 139.8 141.3 138.8 142.5 137.1 C 143.7 135.4 144.1 133.2 143.4 131.2 Z"
    />
</svg>
