<?xml version="1.0" encoding="UTF-8"?>
<svg viewBox="0 0 512 512" xmlns="http://www.w3.org/2000/svg">
  <path
    id="white-fill"
    fill="#ffffff"
    d="M 449.1 105.9 L 287.5 9.9 C 268.2 -1.6 244.4 -1.6 225.1 9.9 L 63.5 105.9 C 44.2 117.3 32.3 138.5 32.3 161.4 L 32.3 353.3 C 32.3 376.2 44.2 397.4 63.5 408.8 L 225.1 504.7 C 234.7 510.4 245.5 513.3 256.3 513.3 C 267.1 513.3 277.8 510.4 287.5 504.7 L 449.1 408.8 C 468.4 397.3 480.3 376.2 480.3 353.3 L 480.3 161.4 C 480.3 138.5 468.4 117.3 449.1 105.9 Z"
  />
  <path
    id="contour"
    fill="#283037"
    d="M 449.1 105.9 L 287.5 9.9 C 277.9 4.2 267.1 1.3 256.3 1.3 C 245.5 1.3 234.8 4.2 225.1 9.9 L 63.5 105.9 C 44.2 117.3 32.3 138.5 32.3 161.4 L 32.3 353.3 C 32.3 376.2 44.2 397.4 63.5 408.8 L 225.1 504.7 C 234.7 510.4 245.5 513.3 256.3 513.3 C 267.1 513.3 277.8 510.4 287.5 504.7 L 449.1 408.8 C 468.4 397.3 480.3 376.2 480.3 353.3 L 480.3 161.4 C 480.3 138.5 468.4 117.3 449.1 105.9 Z M 230.8 494.9 L 69.2 399 C 53.4 389.6 43.6 372.1 43.6 353.3 L 43.6 161.4 C 43.6 142.6 53.4 125.1 69.2 115.7 L 230.8 19.8 C 238.6 15.2 247.4 12.8 256.3 12.8 C 265.2 12.8 274.1 15.2 281.8 19.8 L 443.4 115.7 C 456.7 123.6 465.7 137.3 468.2 152.7 C 462.8 141.3 450.8 138.1 436.7 146.4 L 283.8 240.9 C 264.7 252 250.7 264.6 250.7 287.5 L 250.7 475.9 C 250.7 489.7 256.2 498.6 264.8 501.2 C 262 501.7 259.2 502 256.3 502 C 247.4 501.9 238.5 499.5 230.8 494.9 Z"
  />
  <path
    id="line"
    fill="#4da825"
    d="M 406.8 371.8 L 366.5 395.9 C 365.4 396.5 364.6 397.2 364.6 398.5 L 364.6 409 C 364.6 410.3 365.5 410.8 366.5 410.2 L 407.4 385.4 C 408.5 384.8 408.6 383.6 408.6 382.3 L 408.6 373 C 408.7 371.7 407.8 371.2 406.8 371.8 Z"
  />
  <path
    id="dollar-sign"
    fill="#ffffff"
    d="M 321.1 281.9 C 322.4 281.2 323.5 282.1 323.5 283.8 L 323.6 297.7 C 329.4 295.4 334.5 294.8 339.1 295.8 C 340.1 296.1 340.5 297.4 340.1 299 L 337 311.3 C 336.8 312.2 336.2 313.2 335.6 313.8 C 335.3 314.1 335.1 314.3 334.8 314.4 C 334.4 314.6 334 314.7 333.6 314.6 C 331.5 314.1 326.5 313 318.7 317 C 310.5 321.2 307.6 328.3 307.7 333.6 C 307.8 339.9 311 341.9 322.2 342 C 337.1 342.2 343.6 348.8 343.7 363.8 C 343.9 378.6 336 394.4 323.9 404.2 L 324.2 418 C 324.2 419.7 323.1 421.6 321.8 422.2 L 313.6 426.9 C 312.3 427.6 311.2 426.8 311.2 425.1 L 311.1 411.5 C 304.1 414.4 297 415.1 292.5 413.3 C 291.6 413 291.3 411.7 291.6 410.3 L 294.6 397.8 C 294.8 396.8 295.4 395.8 296.1 395.2 C 296.4 395 296.6 394.8 296.9 394.6 C 297.4 394.4 297.8 394.3 298.2 394.5 C 303.1 396.1 309.3 395.4 315.3 392.3 C 322.9 388.4 328 380.7 327.9 372.9 C 327.8 365.9 324 363 314.8 362.9 C 303.1 362.9 292.1 360.6 291.9 343.3 C 291.8 329.1 299.2 314.3 310.9 304.9 L 310.8 291 C 310.8 289.3 311.8 287.4 313.2 286.7 L 321.1 281.9 Z"
  />
</svg>
