<?xml version="1.0" encoding="UTF-8"?>
<?xml-stylesheet type="text/css" href="../styles/cassandra.css" ?>
<svg viewBox="0 0 528 274" xmlns="http://www.w3.org/2000/svg">
    <path id="blue-eyeball" fill="#bbe6fb" d="M 423.1 89.7 C 427.1 135.8 354.5 179.7 260.9 187.8 C 167.4 195.8 88.4 164.9 84.5 118.8 C 80.5 72.6 153.1 28.7 246.6 20.7 C 340.1 12.7 419.1 43.6 423.1 89.7"/>
    <path id="white-eyeball-fade" fill="#ffffff" fill-opacity="0.35" d="M 249.4 26.1 C 213.7 25.5 171.9 39.7 140.9 53 C 137.7 62.3 135.9 72.2 135.9 82.4 C 135.9 137.2 185.3 181.5 246.3 181.5 C 307.2 181.5 356.6 137.2 356.6 82.4 C 356.6 65.1 351.7 48.9 343 34.7 C 318.1 30.8 284 26.7 249.4 26.1"/>
    <path id="white-eyeball" fill="#ffffff" d="M 246.3 26.1 C 226.5 24.9 192.5 35.2 164.1 45.5 C 159.8 55.7 157.4 66.8 157.4 78.5 C 157.4 126.4 200.9 165.3 246.9 165.3 C 292.5 165.3 333 126.4 336.3 78.5 C 337.4 62.9 332 48.2 324.6 35.5 C 295.2 30.3 263.9 27.2 246.3 26.1"/>
    <path id="gray-eyeball-detail-1" fill="#373535" d="M 195.6 72.2 C 198 66.8 201.7 64.2 205.2 59.7 C 204.9 58.6 204 55.1 204 53.9 C 204 48.5 208.4 44.2 213.8 44.2 C 215 44.2 216.2 44.4 217.4 44.9 C 233.5 32.5 254.8 27.2 276.2 32 C 278.1 32.4 280 32.9 281.9 33.5 C 260.8 30.6 237 38.1 220.8 51.1 C 221.3 52.3 222.6 55.7 222.6 57 C 222.6 62.4 219.1 63.7 213.8 63.7 C 212.5 63.7 211.4 63.5 210.3 63.1 C 206.6 68 202.1 77.3 199.9 83.2 C 208.9 91.2 217 94.1 227.5 98 C 227.5 97.5 227.9 97.1 227.9 96.6 C 227.9 80.3 242.2 67.1 258.5 67.1 C 273 67.1 285.1 77.7 287.5 91.6 C 294.7 87 301.8 83.4 307.1 76.6 C 305.9 75 304.5 70.7 304.5 68.6 C 304.5 63.7 308.5 59.7 313.4 59.7 C 314.1 59.7 314.7 59.8 315.4 60 C 318.1 54.4 320.2 48.5 321.5 42.4 C 296.1 23.5 246.9 26.1 246.9 26.1 C 246.9 26.1 207.7 24.1 181.2 37 C 183 49.8 188.1 61.9 195.6 72.2"/>
    <path id="gray-eyeball-detail-2" fill="#373535" d="M 317.1 62.8 C 318.9 64.5 319.9 65.9 320.7 67.3 C 323.1 71.5 318.3 75.5 313.4 75.5 C 312.9 75.5 312.4 75.4 311.9 75.3 C 306.4 83.9 296.8 95 288.2 100.5 C 301.3 102.7 313.7 108 323.6 116.1 C 330.8 103.2 336.3 84.6 336.3 68.8 C 336.3 56.8 331 48 323 41.5 C 322.6 48 319.1 57 317.1 62.8"/>
    <path id="gray-eyeball-detail-3" fill="#373535" d="M 210.4 146.4 C 214.7 134.3 225.5 124.9 235.7 116.7 C 234.2 114.6 232 109.6 231.1 107.2 C 218.6 103.4 207.6 96.3 199.1 86.9 C 199 87.2 198.9 87.5 198.9 87.8 C 197.3 95 197 102.2 197.8 109.2 C 203.7 110.3 208.2 115.5 208.2 121.8 C 208.2 125.5 205 130.9 202.4 133.3 C 205.2 139.2 207.1 142.1 210.4 146.4"/>
    <path id="gray-eyeball-detail-4" fill="#373535" d="M 209.6 156.6 C 204.4 151.4 200.7 141 197.4 134.5 C 196.7 134.6 196.1 134.7 195.4 134.7 C 188.3 134.7 180.9 128.7 182.6 121.8 C 183.5 118 186.1 115.5 190.4 113.4 C 189.4 105.5 189.2 94.2 191 86 C 191.5 83.7 192.6 82.6 193.4 80.3 C 185.6 68.9 180.5 53.8 180.5 38.9 C 180.5 38.4 180.5 37.9 180.5 37.3 C 167.3 43.9 157.4 54.4 157.4 70.8 C 157.4 107.2 178.4 142.9 209.5 156.9 C 209.5 156.8 209.6 156.7 209.6 156.6"/>
    <path id="gray-eyeball-detail-5" fill="#373535" d="M 286.2 106.3 C 282.2 117.7 271.3 126 258.5 126 C 251.6 126 245.3 123.6 240.3 119.7 C 230 127.7 220.6 141.8 215.9 154.1 C 218 156.4 219.5 158.3 221.9 160.3 C 229.1 162.2 239 160.3 246.9 160.3 C 278.3 160.3 306.1 146.3 322.1 121.8 C 311.5 114.4 299 107.5 286.2 106.3"/>
    <path id="blue-eyeball-detail-1" fill="#1287b1" d="M 194.8 76.4 C 197.2 71.1 200.3 66.1 203.8 61.6 C 203.4 60.5 203.2 59.4 203.2 58.2 C 203.2 52.8 207.6 48.4 212.9 48.4 C 214.2 48.4 215.4 48.7 216.5 49.1 C 232.7 36.8 254 31.4 275.4 36.2 C 277.3 36.6 279.2 37.2 281.1 37.8 C 260 34.8 238.2 41.3 221.9 54.4 C 222.4 55.6 222.7 56.8 222.7 58.2 C 222.7 63.6 218.3 68 212.9 68 C 211.7 68 210.6 67.7 209.5 67.3 C 205.8 72.2 202.8 77.6 200.6 83.5 C 208.3 91.8 217.8 98.4 228.3 102.3 C 228.3 101.8 228.2 101.3 228.2 100.8 C 228.2 84.5 241.4 71.3 257.7 71.3 C 272.2 71.3 284.3 81.9 286.7 95.8 C 293.9 91.2 300.4 85.3 305.7 78.4 C 304.5 76.9 303.7 75 303.7 72.8 C 303.7 68 307.7 64 312.6 64 C 313.3 64 313.9 64.1 314.6 64.2 C 317.3 58.6 319.4 52.7 320.7 46.6 C 295.2 27.8 246.1 30.4 246.1 30.4 C 246.1 30.4 206.9 28.3 180.4 41.2 C 182.2 54 187.3 66.2 194.8 76.4"/>
    <path id="blue-eyeball-detail-2" fill="#1287b1" d="M 318.5 66.3 C 320.3 67.9 321.4 70.2 321.4 72.8 C 321.4 77.7 317.5 81.7 312.6 81.7 C 312.1 81.7 311.6 81.6 311.1 81.6 C 305.6 90.2 298.3 97.5 289.7 103.1 C 302.4 105.1 314.3 110.4 324.2 118.6 C 331.4 105.7 335.5 90.9 335.5 75.1 C 335.5 63.1 330.2 54.2 322.2 47.8 C 321.8 54.2 320.5 60.4 318.5 66.3"/>
    <path id="blue-eyeball-detail-3" fill="#1287b1" d="M 211.7 149.3 C 216.1 137.2 223.7 126.4 233.9 118.1 C 232.4 116.1 231.2 113.8 230.3 111.4 C 217.8 107.7 206.8 100.6 198.3 91.2 C 198.2 91.5 198.1 91.7 198.1 92 C 196.5 99.2 196.2 106.4 197 113.5 C 202.9 114.6 207.4 119.8 207.4 126.1 C 207.4 129.8 205.8 133.1 203.3 135.5 C 205.6 140.4 208.4 145 211.7 149.3"/>
    <path id="blue-eyeball-detail-4" fill="#1287b1" d="M 209.6 156.4 C 204.3 151.2 199.9 145.3 196.5 138.7 C 195.9 138.8 195.3 138.9 194.6 138.9 C 187.5 138.9 181.8 133.2 181.8 126.1 C 181.8 121 184.7 116.6 189 114.5 C 188 106.6 188.4 98.5 190.2 90.2 C 190.7 87.9 191.4 85.6 192.1 83.4 C 184.3 71.9 179.7 58.1 179.7 43.2 C 179.7 42.6 179.7 42.1 179.7 41.6 C 166.5 48.2 156.6 58.6 156.6 75.1 C 156.6 111.5 178.3 142.7 209.5 156.7 C 209.5 156.6 209.5 156.5 209.6 156.4"/>
    <path id="blue-eyeball-detail-5" fill="#1287b1" d="M 285.4 110.5 C 281.4 122 270.5 130.2 257.7 130.2 C 250.8 130.2 244.5 127.9 239.5 123.9 C 229.2 132 221.4 142.9 216.6 155.2 C 218.8 157.5 221.1 159.6 223.5 161.7 C 230.7 163.5 238.2 164.5 246.1 164.5 C 277.5 164.5 305.1 148.3 321.1 123.8 C 310.5 116.5 298.1 111.7 285.4 110.5"/>
    <path id="white-eyeball-detail" fill="#ffffff" d="M 286.5 102.9 L 313.7 96.5 L 286.4 95.1 L 308.6 78.1 L 283.4 87.1 L 300.5 63.4 L 276.8 79.1 L 285.1 51.3 L 268.9 74.2 L 268.5 45.3 L 257.8 71.1 L 248.9 45 L 249.4 75.7 L 233.9 48.2 L 242.3 77.4 L 217.3 59.2 L 236.9 83.8 L 205.8 72.4 L 230.3 90.5 L 198.9 91.5 L 231 99.8 L 198.9 106.7 L 230.6 109 L 203.9 126.2 L 231.4 116.2 L 212.3 140.4 L 236.5 120.9 L 227.8 153.4 L 246.4 127 L 243.8 158.2 L 254.4 129.9 L 263.4 159.6 L 265.6 129.8 L 278.9 155.2 L 271 126.1 L 295.5 145.1 L 279.7 120.9 L 306.6 131.4 L 286 111.2 L 313.6 113.4 L 286.5 102.9 Z"/>
    <path id="upper-eyelash-fade" class="eyelash" fill="#373535" fill-opacity="0.35" d="M -3.1 155 C 81.3 70.6 148.6 44.6 209.8 32.7 C 217.9 31.1 219.4 13.5 219.4 13.5 C 219.4 13.5 220.5 26.5 226.2 28.2 C 231.8 29.9 239.2 7.8 239.2 7.8 C 239.2 7.8 232.4 27.6 239.2 28.8 C 246 29.9 258.4 9.5 258.4 9.5 C 258.4 9.5 253.4 27.1 256.7 28.2 C 260.1 29.3 277.1 2.7 277.1 2.7 C 277.1 2.7 266.9 20.3 276.6 22 C 286.2 23.7 300.2 10 300.2 10 C 300.2 10 289.2 22.5 294.1 24.2 C 315.1 31.6 332 4.4 332 4.4 C 332 4.4 328.1 16.3 317.9 29.3 C 340 35 356.4 1.7 356.4 1.7 L 340 35 C 348.5 39.5 382.4 0.4 382.4 0.4 C 382.4 0.4 364.9 31 354.7 37.2 C 360.3 41.8 380.7 23.7 380.7 23.7 C 380.7 23.7 364.3 44 370.5 45.2 C 379.6 52.5 413 7.2 413 7.2 C 413 7.2 400 33.8 380.7 54.8 C 396.8 62.8 436.8 11.2 436.8 11.2 C 436.8 11.2 435.6 27.6 406.8 53.7 C 428.3 50.8 456 10.1 456 10.1 C 456 10.1 445.8 40.6 421.5 62.1 C 442.6 60 476.4 7.8 476.4 7.8 C 476.4 7.8 463.4 44 436.8 65 C 466.2 71.5 508.7 27.6 508.7 27.6 C 508.7 27.6 492 58.8 470.2 71.5 C 494.5 80.8 527.9 42.3 527.9 42.3 C 527.9 42.3 494.5 93.9 441.3 91.6 C 423.8 90.8 371 38.6 257.9 42.9 C 108.4 48.6 76.7 112 -3.1 155"/>
    <path id="upper-eyelash" class="eyelash" fill="#373535" d="M 0.4 148.6 C 84.7 64.2 152.1 38.2 213.2 26.3 C 221.3 24.7 222.8 7.1 222.8 7.1 C 222.8 7.1 224 20.1 229.6 21.8 C 235.3 23.5 242.7 1.4 242.7 1.4 C 242.7 1.4 235.9 21.2 242.7 22.3 C 249.4 23.5 261.9 3.1 261.9 3.1 C 261.9 3.1 256.8 20.6 260.2 21.8 C 263.6 22.9 280.6 -3.7 280.6 -3.7 C 280.6 -3.7 270.4 13.9 280 15.6 C 289.6 17.3 303.7 3.6 303.7 3.6 C 303.7 3.6 292.6 16.1 297.6 17.8 C 318.5 25.2 335.5 -2 335.5 -2 C 335.5 -2 331.5 9.9 321.3 22.9 C 343.4 28.6 359.8 -4.7 359.8 -4.7 L 343.4 28.6 C 351.9 33.1 385.9 -6 385.9 -6 C 385.9 -6 368.3 24.6 358.1 30.8 C 363.8 35.4 384.2 17.3 384.2 17.3 C 384.2 17.3 367.8 37.6 374 38.8 C 383 46.1 416.4 0.8 416.4 0.8 C 416.4 0.8 403.4 27.4 384.2 48.4 C 400.3 56.4 440.2 4.8 440.2 4.8 C 440.2 4.8 439.1 21.2 410.2 47.3 C 431.7 44.4 459.5 3.7 459.5 3.7 C 459.5 3.7 449.3 34.2 424.9 55.7 C 446.1 53.6 479.8 1.4 479.8 1.4 C 479.8 1.4 466.8 37.6 440.2 58.6 C 469.7 65.1 512.1 21.2 512.1 21.2 C 512.1 21.2 495.4 52.4 473.6 65.1 C 498 74.4 531.4 35.9 531.4 35.9 C 531.4 35.9 498 87.5 444.8 85.2 C 427.3 84.4 374.5 32.2 261.3 36.5 C 111.9 42.2 80.2 105.6 0.4 148.6"/>
    <path id="lower-eyelash-fade" class="eyelash" fill="#373535" fill-opacity="0.35" d="M -5.3 164.2 C 39.3 186.6 80 160.8 131.4 175.3 C 170.5 186.3 218 199.9 282.6 190.5 C 347.1 181.2 402.3 153.2 428.6 103.1 C 436.8 80.7 470.2 108.2 470.2 108.2 C 470.2 108.2 445.9 98 446.4 102.8 C 447 107.6 483 124.3 483 124.3 C 483 124.3 450.4 114.1 452.4 121.8 C 454.4 129.4 493.1 160 493.1 160 C 493.1 160 449.3 126.6 445.6 131.1 C 441.9 135.6 464.3 154 464.3 154 C 464.3 154 427.2 131.1 414.2 137.9 C 404.8 142.7 452.7 174.1 452.7 174.1 C 452.7 174.1 421.5 150.3 414.2 156.6 C 406.8 162.8 449.3 213.8 449.3 213.8 C 449.3 213.8 401.2 161.7 396.3 164.2 C 391.5 166.8 409.6 191.7 409.6 191.7 C 409.6 191.7 385.9 165.6 379.4 170.2 C 372.9 174.7 413.3 242.3 413.3 242.3 C 413.3 242.3 369.5 173 351.3 184.6 C 379.8 247 369.2 255.9 369.2 255.9 C 369.2 255.9 365.5 192.3 330.1 193.9 C 312.3 194.8 338.6 241.5 338.6 241.5 C 338.6 241.5 314.4 198.8 298.2 199.7 C 328 256 317.4 278.9 317.4 278.9 C 317.4 278.9 322.3 230.8 282 204 C 297.2 217.6 272.4 278.9 272.4 278.9 C 272.4 278.9 294.3 188.6 256.2 205.8 C 250.2 208.5 255.8 250.8 255.8 250.8 C 255.8 250.8 248.2 202.4 236.7 205 C 230 206.5 194.2 272.1 194.2 272.1 C 194.2 272.1 223.5 201.2 214.6 204.1 C 208.1 206.3 195.9 235.5 195.9 235.5 C 195.9 235.5 201.9 206.7 195.9 205 C 190 203.3 156.9 235.5 156.9 235.5 C 156.9 235.5 181.5 206.7 177.3 200.7 C 170.8 191.7 163.3 191.3 154.3 194.8 C 141.3 199.9 123.8 223.7 123.8 223.7 C 123.8 223.7 141.3 199.6 138.2 190.5 C 133.3 176 83 218.6 83 218.6 C 83 218.6 112.7 190.5 105.9 184.6 C 99.1 178.7 62.3 180.5 50.7 180.5 C 16.8 180.4 5 172.4 -5.3 164.2"/>
    <path id="lower-eyelash" class="eyelash" fill="#373535" d="M -7 159.1 C 37.6 181.5 78.3 155.7 129.7 170.2 C 168.8 181.2 216.3 194.8 280.9 185.4 C 345.4 176.1 400.6 148.1 426.9 98 C 435.1 75.6 468.5 103.1 468.5 103.1 C 468.5 103.1 444.2 92.9 444.8 97.7 C 445.3 102.5 481.3 119.2 481.3 119.2 C 481.3 119.2 448.7 109 450.7 116.7 C 452.7 124.3 491.5 154.9 491.5 154.9 C 491.5 154.9 447.6 121.5 443.9 126 C 440.2 130.5 462.6 148.9 462.6 148.9 C 462.6 148.9 425.5 126 412.5 132.8 C 403.1 137.6 451 169 451 169 C 451 169 419.8 145.3 412.5 151.5 C 405.1 157.7 447.6 208.7 447.6 208.7 C 447.6 208.7 399.5 156.6 394.6 159.1 C 389.8 161.7 408 186.6 408 186.6 C 408 186.6 384.2 160.5 377.7 165.1 C 371.2 169.6 411.6 237.2 411.6 237.2 C 411.6 237.2 367.8 167.9 349.6 179.5 C 378.1 241.9 367.5 250.8 367.5 250.8 C 367.5 250.8 363.8 187.2 328.4 188.8 C 310.6 189.7 336.9 236.4 336.9 236.4 C 336.9 236.4 312.7 193.7 296.5 194.6 C 326.3 250.9 315.7 273.8 315.7 273.8 C 315.7 273.8 320.6 225.7 280.3 198.9 C 295.5 212.5 270.7 273.8 270.7 273.8 C 270.7 273.8 292.6 183.5 254.5 200.7 C 248.5 203.4 254.1 245.7 254.1 245.7 C 254.1 245.7 246.5 197.3 235 199.9 C 228.3 201.4 192.5 267 192.5 267 C 192.5 267 221.8 196.1 212.9 199 C 206.4 201.2 194.2 230.4 194.2 230.4 C 194.2 230.4 200.2 201.6 194.2 199.9 C 188.3 198.2 155.2 230.4 155.2 230.4 C 155.2 230.4 179.8 201.6 175.6 195.6 C 169.1 186.6 161.6 186.2 152.6 189.7 C 139.6 194.8 122.1 218.6 122.1 218.6 C 122.1 218.6 139.6 194.5 136.5 185.4 C 131.6 170.9 81.3 213.5 81.3 213.5 C 81.3 213.5 111 185.4 104.2 179.5 C 97.4 173.6 60.6 175.4 49 175.4 C 15.1 175.3 3.3 167.3 -7 159.1"/>
</svg>
