<?xml version="1.0" encoding="UTF-8"?>
<?xml-stylesheet type="text/css" href="../styles/cemex.css" ?>
<svg viewBox="0 0 800 144" xmlns="http://www.w3.org/2000/svg">
  <path
    class="blue-default"
    id="cemex"
    fill="#0103aa"
    d="M 257.3 31.9 C 248 34.8 244.9 36.5 236.3 43.1 C 227.9 49.3 218.7 62.8 214.5 74.7 C 210.1 86.9 210 109.9 214.1 118.8 C 221.1 133.6 233.6 142 250.8 143.5 C 275.2 145.6 298.4 134.3 310.3 114.4 C 317.7 102 318.3 102.7 302.3 102.7 L 288.1 102.7 L 285.3 106.7 C 281.2 112.4 272 117.3 263.6 118.3 C 253.3 119.3 245.2 115.5 241.2 107.9 C 235.2 96 240 73.5 250.8 62.8 C 256.8 56.9 262.4 54.7 271.3 54.7 C 281.5 54.7 288.3 58.3 291.6 65.2 L 294 70.5 L 308.4 70.7 C 316.3 70.7 322.7 70.4 322.7 70 C 322.7 66.9 319.2 54.3 317.2 50.5 C 313.2 42.5 302.7 34 293.6 31.5 C 283.5 28.7 266.8 28.8 257.3 31.9 Z M 354.8 32.9 C 345.9 37.3 344.9 40.4 335.7 93.6 L 327.2 142.7 L 368.8 142.7 L 410.4 142.7 L 412.3 132.3 L 414.1 122 L 386 121.6 L 357.9 121.3 L 359.9 108.7 L 361.9 96 L 384.8 96 L 407.6 96 L 408.5 90.3 C 409.1 87.2 409.7 82.7 410.1 80.3 L 410.9 76 L 388.8 76 C 363.3 76 365.5 77.5 368.1 61.2 L 369.7 52 L 397.5 52 C 428.8 52 425.5 53.3 427.9 39.5 C 428.7 35.1 429.3 31.3 429.3 31.1 C 429.3 30.8 413.6 30.7 394.4 30.7 C 364.5 30.7 358.7 31.1 354.8 32.9 Z M 457.3 33.6 C 448.4 39.7 448.1 40.7 439.1 91.6 C 434.5 117.9 430.7 140.1 430.7 140.9 C 430.7 142.3 434.1 142.7 443.9 142.7 L 457.1 142.7 L 457.9 139.1 C 458.3 136.9 460.4 124.5 462.7 111.3 C 464.9 98.1 467.5 84 468.3 80 L 469.7 72.7 L 474.1 98.7 C 476.5 112.9 479.2 128.7 480 133.6 L 481.6 142.7 L 493.3 142.7 L 505.1 142.7 L 522.9 108.1 C 532.7 89.1 540.8 73.7 541.1 73.9 C 541.3 74.3 531.6 132.3 530 139.6 C 529.3 142.7 529.5 142.7 542.7 142.7 C 550 142.7 556 142.5 556 142.3 C 556.1 142.1 560.5 117.1 565.9 86.7 L 575.5 31.3 L 564.8 30.9 C 551.5 30.4 545.9 32 540.4 37.6 C 538.1 40 528.4 56.4 518.8 74 C 509.2 91.5 500.8 106.4 500.3 106.9 C 499.6 107.6 496 92.9 492.1 74.4 C 488.3 55.9 484.5 38.4 483.9 35.6 L 482.5 30.7 L 472.1 30.7 C 463.6 30.7 460.9 31.2 457.3 33.6 Z M 604 33.7 C 601.5 35.3 598.4 38.5 597.1 40.8 C 595.5 43.5 591.9 61.2 586.7 90.8 C 582.3 116 578.4 138 578 139.6 L 577.3 142.7 L 619.1 142.7 L 660.9 142.7 L 662.4 134.1 C 665.1 120 667.9 121.3 635.9 121.3 C 609.7 121.3 607.9 121.2 608.5 118.9 C 608.8 117.7 609.9 112 610.8 106.4 L 612.4 96 L 635.1 95.7 L 657.9 95.3 L 658.8 90.7 C 659.3 88.1 660.1 83.7 660.5 81.1 L 661.5 76 L 639.1 75.7 C 620.1 75.3 616.7 75.1 616.9 73.3 C 617.1 72.3 617.9 66.9 618.7 61.6 L 620.3 52 L 648.1 52 C 663.5 52 676 51.9 676 51.6 C 676 50.4 678.9 35.1 679.5 32.9 C 680.1 30.8 677.9 30.7 644.3 30.7 C 609.2 30.7 608.3 30.8 604 33.7 Z M 690.7 31.3 C 690.7 31.7 696.7 43.9 703.9 58.4 L 717.1 84.9 L 694.7 113.5 L 672.1 142 L 684.9 142.4 C 705.6 143.1 708.5 140.9 731.5 109.5 C 732.8 107.9 734.7 110.5 741.9 125.1 L 750.7 142.7 L 766.7 142.7 L 782.7 142.7 L 768.7 114.5 L 754.5 86.4 L 775.5 60.3 C 786.9 45.9 797.1 33.2 797.7 32.3 C 798.9 30.8 796.5 30.5 783.7 30.9 C 769.6 31.3 767.9 31.6 763.3 34.8 C 760.7 36.8 754 44.1 748.5 51.3 L 738.8 64.3 L 730.4 47.5 L 722 30.7 L 706.4 30.7 C 697.7 30.7 690.7 30.9 690.7 31.3 Z"
  />
  <path
    class="blue-default"
    id="right-line"
    fill="#0103aa"
    d="M 188.9 1.5 C 182.5 2.9 174.8 6.9 169.2 11.6 C 165.9 14.4 75.5 133.9 70.1 142.5 C 69.2 144 72.4 144.3 88.8 143.7 C 106.7 143.3 109.3 142.9 116 139.9 C 120 138 125.3 134.7 127.9 132.5 C 131.5 129.6 190.9 51.1 223.1 6.9 L 228.3 0 L 211.1 0.1 C 201.7 0.3 191.7 0.8 188.9 1.5 Z"
  />
  <path
    class="red-default"
    id="left-line"
    fill="#e33d3b"
    d="M 121.9 1.3 C 113.5 3.1 103.6 8.5 97.6 14.9 C 92.5 20.3 1.3 141.9 1.3 143.3 C 1.3 144.9 33.3 143.9 40.7 142 C 56.9 137.7 57.6 136.9 110.4 66.1 C 136.9 30.5 158.7 1.1 158.7 0.7 C 158.7 -0.4 127.9 0.1 121.9 1.3 Z"
  />
</svg>
