<?xml version="1.0" encoding="UTF-8"?>
<svg viewBox="0 0 720 720" xmlns="http://www.w3.org/2000/svg">
  <path
    fill="#4A94E6"
    d="M 713.2 297.2 C 711.3 295.6 693.2 282 655 282 C 645 282 634.9 282.9 625 284.5 C 617.6 233.9 575.7 209.3 573.9 208.1 L 563.6 202.2 L 556.9 212 C 548.5 225 542.3 239.4 538.7 254.5 C 531.8 283.4 536 310.6 550.7 333.8 C 533 343.6 504.5 346.1 498.8 346.3 L 28.1 346.3 C 15.8 346.3 5.8 356.2 5.8 368.5 C 5.2 409.8 12.2 450.8 26.4 489.5 C 42.6 532 66.7 563.3 98.1 582.5 C 133.3 604 190.4 616.3 255.2 616.3 C 284.4 616.4 313.6 613.8 342.4 608.4 C 382.4 601.1 420.8 587.1 456.2 567.1 C 485.4 550.2 511.6 528.7 533.9 503.5 C 571.2 461.3 593.4 414.3 609.9 372.5 L 616.5 372.5 C 657.3 372.5 682.5 356.1 696.3 342.4 C 705.5 333.7 712.7 323.1 717.3 311.3 L 720.3 302.7 Z M 71.7 332.5 L 134.8 332.5 C 137.8 332.5 140.3 330 140.3 327 L 140.3 270.8 C 140.3 267.8 137.9 265.3 134.8 265.3 C 134.8 265.3 134.8 265.3 134.8 265.3 L 71.7 265.3 C 68.7 265.3 66.2 267.7 66.2 270.8 L 66.2 270.8 L 66.2 327 C 66.2 330 68.7 332.5 71.7 332.5 Z M 158.6 332.5 L 221.7 332.5 C 224.8 332.5 227.2 330 227.2 327 L 227.2 270.8 C 227.2 267.8 224.8 265.3 221.7 265.3 C 221.7 265.3 221.7 265.3 221.7 265.3 L 158.6 265.3 C 155.6 265.3 153.1 267.8 153.1 270.8 L 153.1 327 C 153.1 330 155.6 332.5 158.6 332.5 M 246.9 332.5 L 309.9 332.5 C 313 332.5 315.5 330 315.5 327 L 315.5 270.8 C 315.5 267.8 313 265.3 310 265.3 C 310 265.3 310 265.3 309.9 265.3 L 246.9 265.3 C 243.8 265.3 241.4 267.7 241.4 270.8 L 241.4 270.8 L 241.4 327 C 241.4 330 243.8 332.5 246.9 332.5 Z M 334.1 332.5 L 397.1 332.5 C 400.2 332.5 402.7 330.1 402.7 327 L 402.7 270.8 C 402.7 267.8 400.2 265.3 397.1 265.3 L 334.1 265.3 C 331 265.3 328.6 267.7 328.6 270.8 L 328.6 270.8 L 328.6 327 C 328.6 330 331 332.5 334.1 332.5 Z M 158.6 251.7 L 221.7 251.7 C 224.8 251.7 227.2 249.2 227.2 246.1 L 227.2 190 C 227.2 186.9 224.8 184.5 221.7 184.5 L 158.6 184.5 C 155.6 184.5 153.1 186.9 153.1 190 L 153.1 246.1 C 153.1 249.2 155.6 251.7 158.6 251.7 M 246.9 251.7 L 309.9 251.7 C 313 251.7 315.5 249.2 315.5 246.1 L 315.5 190 C 315.5 186.9 313 184.5 309.9 184.5 L 246.9 184.5 C 243.8 184.5 241.4 186.9 241.4 190 L 241.4 246.1 C 241.4 249.2 243.8 251.7 246.9 251.7 M 334.1 251.7 L 397.1 251.7 C 400.2 251.7 402.7 249.2 402.7 246.1 L 402.7 190 C 402.7 186.9 400.2 184.5 397.1 184.5 L 334.1 184.5 C 331 184.5 328.6 186.9 328.6 190 L 328.6 246.1 C 328.6 249.2 331 251.7 334.1 251.7 M 334.1 170.8 L 397.1 170.8 C 400.2 170.8 402.7 168.4 402.7 165.3 L 402.7 109.1 C 402.7 106.1 400.2 103.6 397.1 103.6 L 334.1 103.6 C 331 103.6 328.6 106.1 328.6 109.1 L 328.6 165.3 C 328.6 168.4 331 170.8 334.1 170.8 M 422 332.5 L 485.1 332.5 C 488.2 332.5 490.6 330.1 490.6 327 L 490.6 270.8 C 490.6 267.8 488.2 265.3 485.1 265.3 L 422 265.3 C 419 265.3 416.5 267.7 416.5 270.8 L 416.5 270.8 L 416.5 327 C 416.5 330 419 332.5 422 332.5"
  />
</svg>
