<?xml version="1.0" encoding="UTF-8"?>
<?xml-stylesheet type="text/css" href="../styles/hey.css" ?>
<svg viewBox="0 0 5066 1080" xmlns="http://www.w3.org/2000/svg">
  <path
    class="hey"
    fill="#231e1f"
    d="M 4695.8 706.7 C 4695.8 587.7 4768 504.2 4880.7 504.2 C 4993.3 504.2 5065.5 589 5065.5 706.7 C 5065.5 824.5 4993.3 909.3 4880.7 909.3 C 4768 909.3 4695.8 825.8 4695.8 706.7 Z M 5006 706.7 C 5006 620.6 4961.7 553.5 4880.7 553.5 C 4799.6 553.5 4755.3 619.4 4755.3 706.7 C 4755.3 792.8 4799.6 858.7 4880.7 858.7 C 4961.7 858.7 5006 792.8 5006 706.7 Z M 4399.5 554.8 C 4321 554.8 4274.2 624.4 4274.2 706.7 C 4274.2 795.4 4326.1 858.7 4405.9 858.7 C 4470.4 858.7 4502.1 820.7 4512.2 771.3 L 4571.7 771.3 C 4559.1 853.6 4500.8 909.3 4405.9 909.3 C 4283.1 909.3 4214.7 818.2 4214.7 706.7 C 4214.7 595.3 4285.6 504.2 4399.5 504.2 C 4492 504.2 4559.1 562.4 4567.9 648.5 L 4508.4 648.5 C 4502.1 592.8 4455.2 552.3 4399.5 554.8 Z M 4076.7 652.3 L 4076.7 901.7 L 4014.6 901.7 L 4014.6 673.8 C 4014.6 591.5 3993.1 553.5 3939.9 553.5 C 3871.6 553.5 3804.5 638.4 3804.5 780.2 L 3804.5 901.7 L 3743.7 901.7 L 3743.7 511.8 L 3804.5 511.8 L 3804.5 634.6 C 3827.3 562.4 3871.6 504.2 3955.1 504.2 C 4031.1 502.9 4076.7 551 4076.7 652.3 Z M 3585.4 629.5 L 3585.4 901.7 L 3527.2 901.7 L 3527.2 829.5 C 3500.6 880.2 3447.4 911.8 3390.4 910.6 C 3319.5 910.6 3262.6 872.6 3262.6 799.2 C 3262.6 728.3 3311.9 697.9 3417 682.7 C 3491.7 671.3 3527.2 663.7 3527.2 621.9 C 3527.2 582.7 3490.5 553.5 3438.6 553.5 C 3375.2 553.5 3343.6 587.7 3339.8 646 L 3280.3 646 C 3282.8 570 3329.7 504.2 3439.8 504.2 C 3522.1 504.2 3585.4 545.9 3585.4 629.5 Z M 3527.2 728.3 L 3527.2 695.3 C 3495.5 710.5 3462.6 720.7 3428.4 724.5 C 3361.3 737.1 3322.1 753.6 3322.1 797.9 C 3322.1 842.2 3360.1 859.9 3403.1 859.9 C 3468.9 861.2 3527.2 813.1 3527.2 728.3 Z M 3136 709.3 C 3136 828.3 3072.6 909.3 2970.1 909.3 C 2892.9 909.3 2857.4 863.7 2846 840.9 L 2846 901.7 L 2786.5 901.7 L 2786.5 347.2 L 2847.3 347.2 L 2847.3 572.5 C 2866.3 530.7 2911.8 504.2 2967.6 504.2 C 3063.8 502.9 3136 582.7 3136 709.3 Z M 3076.4 713.1 C 3076.4 627 3038.5 554.8 2958.7 554.8 C 2884 554.8 2846 611.8 2846 704.2 C 2846 803 2887.8 858.7 2961.2 858.7 C 3038.5 858.7 3076.4 799.2 3076.4 713.1 Z M 2168.9 736.9 C 2167.6 710.3 2172.7 682.4 2182.8 657.1 C 2192.9 633.1 2206.8 610.3 2225.8 591.3 C 2243.6 572.3 2265.1 558.4 2289.1 548.2 C 2313.2 538.1 2338.5 533 2365.1 533 C 2417 531.8 2467.7 553.3 2503.1 592.5 C 2539.8 634.3 2558.8 687.5 2557.6 743.2 C 2557.6 820.4 2527.2 891.3 2467.7 957.2 C 2409.4 1021.8 2329.7 1063.5 2243.6 1077.5 L 2233.4 1069.9 C 2246.1 1062.3 2258.8 1053.4 2268.9 1042 C 2279 1031.9 2289.1 1019.2 2296.7 1006.6 C 2304.3 993.9 2310.7 980 2315.7 964.8 C 2320.8 950.9 2323.3 935.7 2324.6 920.5 C 2220.8 891.3 2168.9 829.3 2168.9 736.9 M 1803 186.1 L 1886.5 372.2 L 1967.5 186.1 L 2315.7 186.1 L 1938.4 1080 L 1548.5 1080 L 1692.8 740.7 L 1447.2 186.1 Z M 1516.8 558.4 C 1518.1 487.5 1501.6 417.8 1468.7 354.5 C 1438.3 296.3 1391.5 249.4 1334.5 219 C 1275 187.4 1207.9 170.9 1140.8 172.2 C 1074.9 170.9 1009.1 187.4 949.6 217.8 C 895.1 246.9 850.8 289.9 820.4 344.4 C 788.8 400.1 773.6 463.4 774.9 528 C 774.9 562.2 778.7 597.6 787.5 631.8 C 795.1 663.4 807.8 693.8 825.5 721.7 C 842 749.5 862.2 773.6 886.3 795.1 C 910.3 817.9 938.2 835.6 967.3 850.8 C 999 866 1031.9 877.4 1066.1 885 C 1104.1 892.6 1142 896.4 1180 896.4 C 1245.9 897.7 1311.7 885 1372.5 859.7 C 1430.7 833.1 1480.1 792.6 1518.1 741.9 L 1518.1 619.1 C 1506.7 631.8 1494 641.9 1480.1 650.8 C 1466.2 660.9 1449.7 668.5 1434.5 674.8 C 1418.1 681.2 1400.3 686.2 1382.6 690 C 1363.6 693.8 1344.6 695.1 1326.9 695.1 C 1307.9 695.1 1287.6 692.6 1268.7 687.5 C 1250.9 682.4 1234.5 674.8 1219.3 664.7 C 1204.1 654.6 1191.4 643.2 1180 629.3 C 1168.6 615.3 1159.8 598.9 1153.4 582.4 L 1520.6 582.4 Z M 904 458.3 L 904 452 C 902.7 429.2 910.3 406.4 924.3 387.4 C 935.7 371 954.7 362.1 974.9 362.1 C 996.4 360.8 1016.7 371 1029.4 388.7 C 1044.5 409 1052.1 434.3 1050.9 459.6 Z M 1137 458.3 L 1137 453.3 C 1135.7 436.8 1143.3 419.1 1154.7 407.7 C 1166.1 395 1182.6 388.7 1199 388.7 C 1216.7 387.4 1234.5 395 1247.1 407.7 C 1259.8 421.6 1266.1 439.3 1266.1 458.3 Z M 270.9 0 L 270.9 277.3 C 322.9 214 401.4 178.5 482.4 179.8 C 562.2 179.8 625.5 202.6 669.8 249.4 C 715.4 295 738.1 358.3 738.1 439.3 L 738.1 882.5 L 400.1 882.5 L 400.1 477.3 C 401.4 455.8 395 433 382.4 415.3 C 369.7 400.1 352 391.2 331.7 392.5 C 308.9 393.8 286.1 403.9 269.7 420.4 L 269.7 885 L 7.3e-05 885 L 7.3e-05 0 Z"
  />
</svg>
