<?xml version="1.0" encoding="UTF-8"?>
<svg viewBox="0 0 703 703" xmlns="http://www.w3.org/2000/svg">
  <path
    id="fill"
    fill="#326ce5"
    d="M 348.98642 10.09375 C 342.773041 10.406738 336.685242 11.947266 331.08017 14.625 L 86.736404 131.375 C 73.925461 137.493103 64.620445 149.064026 61.455154 162.8125 L 1.173905 425.062469 C -1.638355 437.269867 0.649915 450.086487 7.517656 460.59375 C 8.341909 461.865173 9.228386 463.095764 10.173906 464.28125 L 179.298904 674.5625 C 188.16687 685.584778 201.612381 692.002747 215.830154 692 L 487.04892 691.9375 C 501.261383 691.947876 514.705933 685.54187 523.580139 674.53125 L 692.642639 464.21875 C 701.51532 453.190918 704.839661 438.754791 701.673889 424.999969 L 641.298889 162.75 C 638.133606 149.001526 628.828613 137.430603 616.017639 131.3125 L 371.64267 14.625 C 364.592346 11.256653 356.801941 9.698547 348.98642 10.09375 Z"
  />
  <path
    id="ship-rudder"
    fill="#ffffff"
    stroke="#ffffff"
    stroke-width="0.25"
    d="M 351.407593 99.340881 C 343.330627 99.341675 336.781616 106.61676 336.782593 115.590881 C 336.782593 115.728577 336.810791 115.860168 336.813782 115.997131 C 336.80188 117.216492 336.742981 118.685486 336.782593 119.747131 C 336.975189 124.923096 338.103485 128.884583 338.782593 133.653381 C 340.012848 143.859985 341.043762 152.32074 340.407593 160.184631 C 339.788879 163.150024 337.604706 165.862 335.657593 167.747131 L 335.313843 173.934631 C 326.537018 174.661804 317.701477 175.993347 308.876343 177.997131 C 270.901733 186.619263 238.206238 206.180145 213.313812 232.590851 C 211.698593 231.488922 208.872787 229.4617 208.032516 228.840851 C 205.421341 229.193451 202.782303 229.999115 199.345016 227.997101 C 192.80011 223.591461 186.839142 217.510162 179.626266 210.184601 C 176.321289 206.680389 173.927948 203.343567 170.001266 199.965851 C 169.109543 199.198761 167.748688 198.161285 166.751266 197.372101 C 163.681381 194.92453 160.060562 193.648071 156.563766 193.528351 C 152.067871 193.37439 147.739822 195.132202 144.907516 198.684601 C 139.872299 204.999969 141.48439 214.652649 148.501266 220.247101 C 148.572464 220.303802 148.648285 220.34787 148.720016 220.403351 C 149.684235 221.184967 150.864975 222.186462 151.751266 222.840851 C 155.918137 225.917389 159.724472 227.492279 163.876266 229.934601 C 172.62326 235.336395 179.874634 239.81546 185.626266 245.215851 C 187.872284 247.610016 188.264847 251.828766 188.563766 253.653351 L 193.251266 257.840851 C 168.157837 295.604523 156.544403 342.250275 163.407562 389.778351 L 157.282562 391.559601 C 155.668259 393.644196 153.387161 396.924347 151.001266 397.903351 C 143.476135 400.273529 135.007019 401.143951 124.782516 402.215851 C 119.982208 402.61496 115.840332 402.376801 110.751266 403.340851 C 109.631187 403.553009 108.070541 403.959625 106.845016 404.247101 C 106.802414 404.256073 106.762611 404.268707 106.720016 404.27829 C 106.653214 404.293793 106.565453 404.326202 106.501266 404.34079 C 97.881126 406.423553 92.343521 414.346771 94.126266 422.15329 C 95.909424 429.961639 104.329407 434.710052 113.001266 432.84079 C 113.063858 432.826508 113.15477 432.824066 113.220016 432.809601 C 113.317917 432.787201 113.404099 432.739716 113.501266 432.715912 C 114.710114 432.450531 116.225037 432.155304 117.282516 431.872162 C 122.285858 430.532501 125.909454 428.564178 130.407516 426.840912 C 140.084457 423.370148 148.099243 420.470673 155.907516 419.340912 C 159.168701 419.08548 162.60463 421.353058 164.313766 422.309662 L 170.688766 421.215912 C 185.358948 466.69873 216.102921 503.460938 255.032532 526.528442 L 252.376282 532.903442 C 253.33371 535.378845 254.389679 538.728149 253.676514 541.172729 C 250.83783 548.533936 245.97551 556.303711 240.438766 564.965942 C 237.757919 568.967834 235.014236 572.073547 232.595016 576.653442 C 232.016113 577.749329 231.278839 579.432739 230.720016 580.590942 C 226.961182 588.633301 229.718369 597.896118 236.938766 601.372192 C 244.204514 604.870056 253.223236 601.180847 257.126282 593.122192 C 257.132294 593.110779 257.151978 593.102356 257.157471 593.090942 C 257.161469 593.08197 257.153473 593.068481 257.157471 593.059753 C 257.713409 591.917236 258.501007 590.415405 258.969971 589.341003 C 261.042114 584.593994 261.731598 580.52594 263.188721 575.934753 C 267.05835 566.2146 269.184387 556.015747 274.511322 549.660645 C 275.970001 547.92041 278.348114 547.25116 280.813721 546.591003 L 284.126221 540.591003 C 318.064484 553.617798 356.052887 557.113464 394.001221 548.497253 C 402.658203 546.531677 411.015656 543.987793 419.094971 540.934753 C 420.02597 542.586121 421.756104 545.760498 422.219971 546.559753 C 424.725555 547.374939 427.460419 547.795898 429.688721 551.091003 C 433.674133 557.900024 436.399628 565.9552 439.719971 575.684753 C 441.177368 580.275879 441.897614 584.344116 443.969971 589.091003 C 444.442322 590.172974 445.225983 591.695862 445.782471 592.841003 C 449.677307 600.925842 458.724609 604.627686 466.001221 601.122253 C 473.220734 597.644348 475.980957 588.382385 472.219971 580.341003 C 471.661102 579.182861 470.89267 577.49939 470.313721 576.403503 C 467.894257 571.82373 465.151031 568.749023 462.469971 564.747253 C 456.93277 556.085327 452.340302 548.889587 449.501221 541.528503 C 448.314117 537.731934 449.701508 535.370789 450.626221 532.903503 C 450.072449 532.268738 448.887421 528.683411 448.188721 526.997253 C 488.646118 503.109131 518.487244 464.975952 532.501221 420.934723 C 534.393616 421.232147 537.682739 421.814117 538.751221 422.028473 C 540.950745 420.577789 542.973145 418.684967 546.938721 418.997223 C 554.747009 420.126617 562.761597 423.026947 572.438721 426.497223 C 576.936829 428.220306 580.560303 430.220367 585.563721 431.559723 C 586.621216 431.842804 588.136108 432.106964 589.344971 432.372223 C 589.442139 432.396027 589.528259 432.443634 589.626221 432.465912 C 589.691528 432.48056 589.782349 432.482819 589.844971 432.497162 C 598.517334 434.364105 606.938782 429.618439 608.719971 421.809662 C 610.500671 414.002655 604.965637 406.077606 596.344971 403.997162 C 595.091003 403.712006 593.312683 403.227753 592.094971 402.997162 C 587.005859 402.033356 582.864014 402.271027 578.063721 401.872162 C 567.839111 400.800751 559.370178 399.929474 551.844971 397.559662 C 548.776672 396.369354 546.593933 392.718414 545.53241 391.215912 L 539.62616 389.497162 C 542.688416 367.342743 541.862671 344.285797 536.56366 321.215881 C 531.215271 297.931183 521.763306 276.63504 509.15741 257.872131 C 510.672424 256.494843 513.533569 253.961243 514.34491 253.215881 C 514.582031 250.591705 514.378296 247.840363 517.09491 244.934631 C 522.846252 239.533936 530.098206 235.055664 538.84491 229.653381 C 542.996582 227.210876 546.834412 225.636414 551.00116 222.559631 C 551.94342 221.863892 553.230042 220.762054 554.21991 219.965881 C 561.235291 214.369568 562.850464 204.717468 557.81366 198.403381 C 552.776794 192.089294 543.016541 191.494568 536.00116 197.090881 C 535.002563 197.881744 533.647644 198.913422 532.75116 199.684631 C 528.824646 203.062592 526.399719 206.399017 523.09491 209.903381 C 515.882385 217.22934 509.920837 223.341156 503.37616 227.747131 C 500.540192 229.398193 496.3862 228.826904 494.501129 228.715881 L 488.938629 232.684631 C 457.219818 199.424072 414.033966 178.15918 367.532593 174.028381 C 367.402527 172.079651 367.232117 168.55719 367.188843 167.497131 C 365.285126 165.675476 362.985413 164.120239 362.407593 160.184631 C 361.771423 152.32074 362.833557 143.859985 364.063843 133.653381 C 364.74292 128.884583 365.871216 124.923096 366.063843 119.747131 C 366.107635 118.570496 366.037323 116.863098 366.032623 115.590881 C 366.031677 106.61676 359.484589 99.340027 351.407623 99.340881 Z M 333.095093 212.778351 L 328.751343 289.497101 L 328.438843 289.653351 C 328.147491 296.516693 322.498871 301.997101 315.563843 301.997101 C 312.723022 301.997101 310.100891 301.084808 307.970093 299.528351 L 307.845093 299.590851 L 244.938828 254.997101 C 264.272491 235.985931 289.00174 221.936707 317.501343 215.465851 C 322.707306 214.283813 327.91098 213.406738 333.095093 212.778351 Z M 369.751343 212.778351 C 403.024811 216.870667 433.796326 231.937164 457.376343 255.028351 L 394.876343 299.340851 L 394.657593 299.247131 C 389.110138 303.298828 381.294159 302.293518 376.970093 296.872131 C 375.198761 294.651184 374.269348 292.039764 374.157593 289.403381 L 374.095093 289.372192 Z M 222.126312 283.653351 L 279.563843 335.028351 L 279.501343 335.340851 C 284.685699 339.847809 285.450195 347.668793 281.126343 353.090851 C 279.355133 355.311859 276.984253 356.801605 274.438843 357.497101 L 274.376343 357.747101 L 200.751312 378.997101 C 197.004028 344.731903 205.079865 311.423462 222.126312 283.653351 Z M 480.282593 283.68454 C 488.816681 297.51709 495.279144 312.966675 499.126312 329.71579 C 502.927368 346.264069 503.881287 362.782745 502.313782 378.74704 L 428.313843 357.43454 L 428.251343 357.12204 C 421.624817 355.311005 417.552399 348.570404 419.095093 341.80954 C 419.727112 339.039948 421.197296 336.696899 423.188843 334.96579 L 423.157623 334.80954 L 480.282623 283.68454 Z M 339.626343 338.99704 L 363.157593 338.99704 L 377.782593 357.27829 L 372.532593 380.09079 L 351.407593 390.24704 L 330.220093 380.05954 L 324.970093 357.24704 Z M 415.063843 401.55954 C 416.063812 401.509064 417.059418 401.599152 418.032593 401.77829 L 418.157593 401.62204 L 494.313843 414.49704 C 483.168335 445.81015 461.841034 472.937256 433.345093 491.09082 L 403.782593 419.68454 L 403.876282 419.55954 C 401.160675 413.249542 403.878265 405.850006 410.126282 402.84079 C 411.725922 402.070404 413.397156 401.643768 415.063782 401.55954 Z M 287.157593 401.87204 C 292.96933 401.953522 298.18219 405.987274 299.532593 411.90329 C 300.164764 414.672882 299.857086 417.417023 298.813843 419.84079 L 299.032593 420.12204 L 269.782593 490.80957 C 242.43541 473.260986 220.65329 446.985535 209.001312 414.747101 L 284.501343 401.934601 L 284.626343 402.090851 C 285.470825 401.935455 286.327332 401.860443 287.157593 401.872101 Z M 350.938843 432.840851 C 352.963287 432.766449 355.017487 433.181793 356.970093 434.122101 C 359.529602 435.354645 361.506805 437.295258 362.751343 439.622101 L 363.032593 439.622101 L 400.251343 506.872131 C 395.421051 508.491333 390.455231 509.875183 385.376343 511.028381 C 356.911804 517.491272 328.53772 515.53302 302.845093 506.778381 L 339.970093 439.653351 L 340.032593 439.653351 C 342.260254 435.488922 346.485046 433.004486 350.938843 432.840851 Z"
  />
</svg>
