<?xml version="1.0" encoding="UTF-8"?>
<svg viewBox="0 0 947 947" xmlns="http://www.w3.org/2000/svg">
  <path
    fill="#000080"
    d="M 835.5 473.6 C 835.5 273.8 673.3 111.6 473.5 111.6 S 111.5 273.8 111.5 473.6 C 111.5 673.4 273.7 835.6 473.5 835.6 S 835.5 673.4 835.5 473.6"
  />
  <path
    fill="#ffffff"
    d="M 729.5 323.6 C 729.5 265.1 682 217.6 623.5 217.6 S 517.5 265.1 517.5 323.6 C 517.5 382.1 565 429.6 623.5 429.6 S 729.5 382.1 729.5 323.6"
  />
  <path
    fill="#000080"
    d="M 941.5 111.5 C 941.5 53 894 5.5 835.5 5.5 S 729.5 53 729.5 111.5 C 729.5 170 777 217.5 835.5 217.5 S 941.5 170.1 941.5 111.5"
  />
  <path
    fill="none"
    stroke="#808080"
    stroke-width="10.8612"
    stroke-miterlimit="10"
    stroke-dasharray="40.8475"
    d="M 890.6 261 C 924.1 326.8 941.6 399.6 941.6 473.5 C 941.6 731.9 731.9 941.6 473.5 941.6 S 5.4 731.9 5.4 473.5 C 5.4 215.1 215.1 5.4 473.5 5.4 C 556.6 5.4 638.1 27.5 709.7 69.3"
  />
</svg>
