<?xml version="1.0" encoding="UTF-8"?>
<svg viewBox="0 0 700 700" xmlns="http://www.w3.org/2000/svg">
  <path
    id="fill"
    fill="#019639"
    d="M 348.7 0 L 350.3 0 C 358.7 4 366.8 8.4 374.6 13.2 C 465.1 65.2 555.6 117.3 646.1 169.3 C 653.2 173.2 657.3 181 656.4 189 C 656.2 298.8 656.4 408.5 656.3 518.2 C 655.1 523.4 651.9 527.9 647.4 530.8 C 551.2 586.2 455 641.6 358.7 696.9 C 354 700.6 347.4 700.9 342.3 697.8 C 246 642.6 149.7 587.3 53.6 531.8 C 47.2 528.8 43.2 522.3 43.6 515.2 C 43.6 405.5 43.6 295.8 43.6 186.1 C 43.1 179.1 46.9 172.5 53.3 169.4 C 143.6 117.4 234 65.4 324.4 13.4 C 332.4 8.8 340.3 3.9 348.7 0"
  />
  <path
    id="N"
    fill="#ffffff"
    d="M 169.2 213.5 C 169.2 303.9 169.2 394.4 169.2 484.9 C 168.9 495 172.8 504.8 179.9 512.1 C 193.7 525.7 215.1 527.9 231.4 517.3 C 242.1 510 248.5 497.9 248.5 484.9 C 248.5 419.4 248.4 353.9 248.5 288.4 C 308.2 359.9 368 431.3 428 502.6 C 444.9 519.8 469.4 527.1 493 522.2 C 509.8 518.9 522.5 505 524.3 487.9 C 524.4 395.6 524.4 303.2 524.3 210.9 C 522.5 190.4 505.4 174.8 484.9 174.8 C 464.4 174.8 447.3 190.4 445.5 210.9 C 445.5 277.4 445.1 343.9 445.5 410.4 C 386.8 341.3 328.9 271.5 270.5 202.1 C 254.8 182 229.5 172 204.3 175.8 C 184.9 178 170 194 169.2 213.5 Z"
  />
</svg>
