<?xml version="1.0" encoding="UTF-8"?>
<?xml-stylesheet type="text/css" href="../styles/openai.css" ?>
<svg viewBox="0 0 800 800" xmlns="http://www.w3.org/2000/svg">
  <path
    fill="#000000"
    d="M 742.7 327.4 C 760.8 272.9 754.6 213.2 725.5 163.7 C 681.9 87.7 594.2 48.7 508.5 67 C 460.3 13.3 387 -10.6 316.4 4.4 C 245.8 19.3 188.4 70.8 166 139.4 C 109.8 150.9 61.2 186.2 32.8 236.1 C -11.3 311.9 -1.3 407.6 57.5 472.6 C 39.4 527.1 45.6 586.7 74.6 636.3 C 118.2 712.3 206 751.4 291.7 733 C 329.8 775.9 384.6 800.3 442 800 C 529.8 800.1 607.6 743.4 634.4 659.8 C 690.6 648.2 739.2 613 767.6 563.1 C 811.2 487.4 801.2 392.3 742.7 327.4 Z M 442 747.6 C 407 747.7 373 735.4 346.1 712.9 L 350.8 710.3 L 510.1 618.3 C 518.2 613.6 523.2 605 523.2 595.6 L 523.2 371.1 L 590.5 410 C 591.2 410.3 591.7 411 591.8 411.7 L 591.8 597.8 C 591.6 680.5 524.7 747.5 442 747.6 Z M 120 610.1 C 102.4 579.8 96.1 544.2 102.2 509.7 L 106.9 512.5 L 266.3 604.4 C 274.4 609.2 284.3 609.2 292.3 604.4 L 487.1 492.2 L 487.1 569.9 C 487.1 570.7 486.7 571.5 486 572 L 324.7 665 C 253 706.3 161.4 681.7 120 610.1 Z M 78 263.2 C 95.7 232.6 123.7 209.4 156.9 197.4 L 156.9 386.7 C 156.8 396 161.7 404.6 169.8 409.2 L 363.6 521 L 296.3 560 C 295.5 560.4 294.7 560.4 293.9 560 L 132.9 467.1 C 61.4 425.6 36.8 334.1 78 262.4 Z M 631.2 391.7 L 436.8 278.8 L 504 240 C 504.7 239.6 505.6 239.6 506.3 240 L 667.3 333 C 717.6 362 746.6 417.4 741.8 475.3 C 736.9 533.1 699.2 582.9 644.8 603.2 L 644.8 413.9 C 644.5 404.7 639.4 396.2 631.2 391.7 Z M 698.3 290.9 L 693.5 288.1 L 534.4 195.4 C 526.3 190.6 516.3 190.6 508.2 195.4 L 313.6 307.7 L 313.6 229.9 C 313.5 229.1 313.9 228.3 314.6 227.9 L 475.6 135 C 526 106 588.6 108.7 636.3 141.9 C 683.9 175.2 708.1 233 698.3 290.3 Z M 276.9 428.8 L 209.6 390 C 208.9 389.6 208.4 388.9 208.3 388.1 L 208.3 202.5 C 208.4 144.3 242 91.5 294.7 66.8 C 347.3 42.2 409.4 50.2 454.1 87.3 L 449.4 90 L 290.1 182 C 282.1 186.7 277.1 195.3 277 204.7 Z M 313.5 349.9 L 400.2 299.9 L 487.1 349.9 L 487.1 449.9 L 400.5 499.9 L 313.6 449.9 Z"
  />
</svg>
