<?xml version="1.0" encoding="UTF-8"?>
<svg viewBox="0 0 593 593" xmlns="http://www.w3.org/2000/svg">
<path
  id="fill"
  fill="#000000"
  stroke="#000000"
  stroke-width="49.860401"
  d="M 439.9 431.5 C 443.7 400 442.6 395.4 466 400.5 L 472 401 C 490 401.8 513.6 398.1 527.4 391.7 C 557.2 377.8 574.9 354.7 545.5 360.8 C 478.5 374.6 473.8 351.9 473.8 351.9 C 544.7 246.9 574.3 113.5 548.7 80.8 C 479 -8.2 358.4 33.9 356.4 35 L 355.7 35.1 C 342.5 32.4 327.6 30.7 311 30.4 C 280.6 29.9 257.6 38.4 240.1 51.6 C 240.1 51.6 24.9 -37 34.9 163.1 C 37.1 205.7 96 485.4 166.2 400.9 C 191.9 370 216.7 343.9 216.7 343.9 C 229 352.1 243.8 356.3 259.3 354.8 L 260.5 353.7 C 260.1 357.6 260.3 361.3 261 365.8 C 242.9 386 248.2 389.5 212 397 C 175.4 404.5 196.9 418 210.9 421.5 C 227.9 425.7 267.3 431.8 293.9 394.5 L 292.9 398.8 C 300 404.4 299.5 439.6 300.5 464.7 C 301.5 489.8 303.2 513.2 308.3 527.1 C 313.4 540.9 319.5 576.5 367 566.3 C 406.8 557.7 437.2 545.5 439.9 431.5"
/>
<path
  id="face"
  fill="#336791"
  stroke="none"
  d="M 545.5 360.8 C 478.5 374.6 473.8 351.9 473.8 351.9 C 544.7 246.8 574.3 113.5 548.7 80.8 C 479 -8.2 358.4 33.9 356.4 35 L 355.7 35.1 C 342.5 32.3 327.6 30.7 311 30.4 C 280.6 29.9 257.6 38.4 240.1 51.6 C 240.1 51.6 24.9 -37 34.9 163.1 C 37.1 205.7 96 485.4 166.2 400.9 C 191.9 370 216.7 343.9 216.7 343.9 C 229 352.1 243.8 356.3 259.3 354.8 L 260.5 353.7 C 260.1 357.6 260.3 361.3 260.9 365.8 C 242.8 386 248.2 389.5 212 397 C 175.4 404.5 196.9 418 210.9 421.5 C 227.9 425.7 267.3 431.8 293.9 394.5 L 292.9 398.8 C 300 404.4 305 435.7 304.1 464.1 C 303.3 492.4 302.7 511.9 308.3 527.1 C 313.9 542.3 319.5 576.5 367 566.3 C 406.8 557.7 427.4 535.7 430.2 498.9 C 432.3 472.7 436.9 476.6 437.2 453.2 L 440.9 442.1 C 445.1 406.6 441.5 395.1 466 400.5 L 472 401 C 490 401.8 513.6 398.1 527.4 391.7 C 557.2 377.8 574.9 354.7 545.5 360.8 Z"
/>
<path
  id="trunk"
  fill="none"
  stroke="#ffffff"
  stroke-width="16.620134"
  stroke-linecap="round"
  stroke-linejoin="round"
  d="M 296.8 381.1 C 295 447.2 297.3 513.6 303.7 529.8 C 310.2 546 324 577.4 371.6 567.2 C 411.4 558.7 425.8 542.2 432.1 505.8 C 436.7 479 445.6 404.6 446.8 389.4"
/>
<path
  id="left-ear"
  fill="none"
  stroke="#ffffff"
  stroke-width="16.620134"
  stroke-linecap="round"
  stroke-linejoin="round"
  d="M 239.8 50.2 C 239.8 50.2 24.4 -37.9 34.5 162.3 C 36.6 204.9 95.5 484.5 165.8 400.1 C 191.4 369.2 214.6 345 214.6 345"
/>
<path
  id="right-ear"
  fill="none"
  stroke="#ffffff"
  stroke-width="16.620134"
  stroke-linecap="round"
  stroke-linejoin="round"
  d="M 356.1 34.1 C 348.7 36.4 475.9 -12.4 548.2 80 C 573.8 112.6 544.2 246 473.4 351.1"
/>
<path
  id="right-face-contour"
  fill="none"
  stroke="#ffffff"
  stroke-width="16.620134"
  stroke-linecap="round"
  stroke-linejoin="bevel"
  d="M 473.4 351.1 C 473.4 351.1 478 373.8 545.1 360 C 574.4 353.9 556.8 377 527 390.8 C 502.5 402.2 447.7 405.1 446.8 389.4 C 444.5 348.9 475.6 361.2 473.4 351.1 C 471.3 342 457.4 333 448.2 310.6 C 440.1 291.1 337.8 141.5 476.6 163.7 C 481.7 162.7 440.4 31.7 310.5 29.6 C 180.7 27.5 184.9 189.3 184.9 189.3"
/>
<path
  id="left-tusk"
  fill="none"
  stroke="#ffffff"
  stroke-width="16.620134"
  stroke-linecap="round"
  stroke-linejoin="round"
  d="M 260.5 364.9 C 242.4 385.2 247.7 388.7 211.5 396.2 C 174.9 403.7 196.4 417.1 210.4 420.6 C 227.5 424.9 266.9 430.9 293.5 393.7 C 301.6 382.3 293.4 364.2 282.3 359.6 C 276.9 357.4 269.7 354.6 260.5 364.9 Z"
/>
<path
  id="left-cheek"
  fill="none"
  stroke="#ffffff"
  stroke-width="16.620134"
  stroke-linecap="round"
  stroke-linejoin="round"
  d="M 259.3 364.6 C 257.5 352.7 263.2 338.5 269.3 322 C 278.6 297.2 299.9 272.3 282.8 193.5 C 270.1 134.8 185 181.3 184.9 189.3 C 184.9 197.2 188.8 229.6 183.5 267.3 C 176.6 316.6 214.8 358.2 258.8 353.9"
/>
<path
  id="left-eye"
  fill="#ffffff"
  stroke="#ffffff"
  stroke-width="5.54"
  d="M 239 188.1 C 238.6 190.8 244 198.1 251 199 C 258 200 263.9 194.3 264.3 191.6 C 264.7 188.9 259.3 185.9 252.4 184.9 C 245.4 184 239.4 185.4 239 188.1 Z"
/>
<path
  id="right-eye"
  fill="#ffffff"
  stroke="#ffffff"
  stroke-width="2.77"
  d="M 451.6 182.5 C 452 185.3 446.6 192.5 439.6 193.5 C 432.6 194.5 426.7 188.8 426.3 186.1 C 425.9 183.4 431.3 180.4 438.3 179.4 C 445.2 178.4 451.2 179.8 451.6 182.5 Z"
/>
<path
  id="right-cheek"
  fill="none"
  stroke="#ffffff"
  stroke-width="16.620134"
  stroke-linecap="round"
  stroke-linejoin="round"
  d="M 476.6 163.7 C 477.7 185.1 472 199.6 471.3 222.3 C 470.2 255.3 487 293 461.7 330.9"
/>
</svg>
