<?xml version="1.0" encoding="UTF-8"?>
<svg viewBox="0 0 115 115" xmlns="http://www.w3.org/2000/svg">
  <path
    id="fill"
    fill="#e6522c"
    d="M 56.667 0.667 C 25.372 0.667 0 26.035995 0 57.332001 C 0 88.626999 25.372 113.998001 56.667 113.998001 C 87.961998 113.998001 113.333 88.626999 113.333 57.332001 C 113.333 26.035995 87.960999 0.667 56.667 0.667 Z"
  />
  <path
    id="torch"
    fill="#ffffff"
    d="M 56.667 106.722 C 47.763 106.722 40.543999 100.774002 40.543999 93.439003 L 72.790001 93.439003 C 72.790001 100.773003 65.570999 106.722 56.667 106.722 Z M 83.296997 89.040001 L 30.034 89.040001 L 30.034 79.382004 L 83.297997 79.382004 L 83.297997 89.040001 Z M 83.106003 74.411003 L 30.186001 74.411003 C 30.01 74.208 29.83 74.008003 29.66 73.802002 C 24.208 67.181999 22.924 63.726002 21.677 60.203999 C 21.656 60.088001 28.288 61.558998 32.991001 62.617001 C 32.991001 62.617001 35.410999 63.176998 38.949001 63.821999 C 35.551998 59.84 33.535 54.778 33.535 49.604004 C 33.535 38.244995 42.247002 28.319 39.104 20.295998 C 42.162998 20.544998 45.435001 26.751999 45.655998 36.457001 C 48.908001 31.962997 50.269001 23.755997 50.269001 18.723999 C 50.269001 13.514 53.702 7.461998 57.136002 7.254997 C 54.075001 12.300003 57.929001 16.625 61.355 27.354004 C 62.639999 31.384003 62.476002 38.166 63.467999 42.466995 C 63.797001 33.533997 65.333 20.5 71 16 C 68.5 21.667 71.370003 28.757996 73.333 32.167 C 76.5 37.667 78.419998 41.834 78.419998 49.714996 C 78.419998 54.999001 76.469002 59.973999 73.178001 63.862999 C 76.919998 63.160999 79.503998 62.528 79.503998 62.528 L 91.655998 60.157001 C 91.656998 60.155998 89.890999 67.417999 83.106003 74.411003 Z"
  />
</svg>
