<?xml version="1.0" encoding="UTF-8"?>
<svg viewBox="0 0 113 113" xmlns="http://www.w3.org/2000/svg">
  <linearGradient
    id="linear-gradient-1"
    x1="1"
    y1="0.331893"
    x2="62.326145"
    y2="53.604196"
    gradientUnits="userSpaceOnUse"
  >
    <stop offset="1e-05" stop-color="#5a9fd4" stop-opacity="1" />
    <stop offset="1" stop-color="#306998" stop-opacity="1" />
  </linearGradient>
  <path
    id="left-python"
    fill="url(#linear-gradient-1)"
    d="M 55.9 0.3 C 51.3 0.4 47 0.7 43.1 1.4 C 31.8 3.4 29.7 7.6 29.7 15.4 L 29.7 25.6 L 56.5 25.6 L 56.5 29 L 29.7 29 L 19.6 29 C 11.8 29 5 33.7 2.9 42.6 C 0.4 52.8 0.3 59.2 2.9 69.8 C 4.8 77.8 9.3 83.4 17.1 83.4 L 26.4 83.4 L 26.4 71.2 C 26.4 62.3 34 54.5 43.1 54.5 L 69.9 54.5 C 77.3 54.5 83.3 48.4 83.3 40.9 L 83.3 15.4 C 83.3 8.1 77.2 2.6 69.9 1.4 C 65.3 0.7 60.5 0.3 55.9 0.3 Z M 41.4 8.6 C 44.2 8.6 46.5 10.9 46.5 13.7 C 46.5 16.5 44.2 18.8 41.4 18.8 C 38.6 18.8 36.4 16.5 36.4 13.7 C 36.4 10.9 38.6 8.6 41.4 8.6 Z"
  />
  <linearGradient
    id="linear-gradient-2"
    x1="70.930694"
    y1="97.879936"
    x2="49.031158"
    y2="66.596737"
    gradientUnits="userSpaceOnUse"
  >
    <stop offset="1e-05" stop-color="#ffd43b" stop-opacity="1" />
    <stop offset="1" stop-color="#ffe873" stop-opacity="1" />
  </linearGradient>
  <path
    id="right-python"
    fill="url(#linear-gradient-2)"
    d="M 86.6 29 L 86.6 40.9 C 86.6 50.1 78.8 57.9 69.9 57.9 L 43.1 57.9 C 35.8 57.9 29.7 64.2 29.7 71.5 L 29.7 97.1 C 29.7 104.3 36 108.6 43.1 110.7 C 51.6 113.2 59.7 113.6 69.9 110.7 C 76.6 108.7 83.3 104.8 83.3 97.1 L 83.3 86.8 L 56.5 86.8 L 56.5 83.4 L 83.3 83.4 L 96.7 83.4 C 104.5 83.4 107.4 78 110.1 69.8 C 112.9 61.4 112.8 53.4 110.1 42.6 C 108.2 34.8 104.5 29 96.7 29 Z M 71.6 93.6 C 74.4 93.6 76.6 95.9 76.6 98.7 C 76.6 101.6 74.4 103.9 71.6 103.9 C 68.8 103.9 66.5 101.6 66.5 98.7 C 66.5 95.9 68.8 93.6 71.6 93.6 Z"
  />
</svg>
