<?xml version="1.0" encoding="UTF-8"?>
<svg viewBox="0 0 140 140" xmlns="http://www.w3.org/2000/svg">
  <path
    id="fill"
    fill="#57d1e5"
    d="M 69.300003 1.800003 C 37 1.800003 14 22.099998 14 51 C 14 64.800003 28.400002 132.399994 28.400002 132.399994 C 29.299999 136.399994 33.200001 139.100006 37.299999 138.5 C 38.200001 138.300003 39.099998 138 39.799999 137.600006 L 40.400002 137.600006 C 41.799999 138.399994 43.5 138.800003 45.299999 138.600006 C 46.700001 138.399994 48 137.899994 49.099998 137.100006 L 50.900002 137 C 52.300003 138.100006 54.199997 138.800003 56.199997 138.699997 C 58.199997 138.600006 60 137.699997 61.300003 136.399994 L 64.400002 136.199997 C 65.800003 137.699997 67.699997 138.600006 69.900002 138.699997 C 72.199997 138.800003 74.300003 137.800003 75.800003 136.300003 L 79 136.5 C 80.199997 137.699997 81.800003 138.5 83.599998 138.699997 C 85.699997 138.899994 87.699997 138.300003 89.300003 137.100006 L 91.199997 137.199997 C 92.099998 137.899994 93.199997 138.399994 94.400002 138.600006 C 96.099998 138.899994 97.699997 138.600006 99.199997 137.899994 C 99.800003 138.199997 100.5 138.399994 101.199997 138.5 C 105.300003 139.199997 109.199997 136.5 110.099998 132.399994 C 110.099998 132.399994 124.5 64.900002 124.5 51 C 124.5 22.099998 101.5 1.800003 69.300003 1.800003 Z"
  />
  <path
    id="eye"
    fill="#ffffff"
    d="M 76 46 C 76 59.586205 64.986206 70.599998 51.400002 70.599998 C 37.813797 70.599998 26.799999 59.586205 26.799999 46 C 26.799999 32.413795 37.813797 21.400002 51.400002 21.400002 C 64.986206 21.400002 76 32.413795 76 46 Z"
  />
  <path
    id="eyeline"
    fill="#3a2d55"
    d="M 51.400002 72 C 37.099998 72 25.400002 60.300003 25.400002 46 C 25.400002 31.699997 37.099998 20 51.400002 20 C 65.699997 20 77.400002 31.699997 77.400002 46 C 77.400002 60.300003 65.699997 72 51.400002 72 Z M 51.400002 22.699997 C 38.599998 22.699997 28.099998 33.199997 28.099998 46 C 28.099998 58.800003 38.599998 69.300003 51.400002 69.300003 C 64.199997 69.300003 74.699997 58.800003 74.699997 46 C 74.699997 33.199997 64.300003 22.699997 51.400002 22.699997 Z"
  />
  <path
    id="eyeball"
    fill="#3a2d55"
    d="M 56.5 29.800003 C 52.300003 30.699997 51.400002 40 54 42.599998 C 55.699997 44.300003 59.099998 44.800003 59.099998 46 C 59.099998 47.199997 55.699997 47.699997 54 49.400002 C 51.5 51.900002 52.300003 61.300003 56.5 62.099998 C 61.599998 63.099998 69.199997 57 69.199997 46 C 69.199997 35 61.599998 28.800003 56.5 29.800003 Z"
  />
  <path
    id="left-tooth"
    fill="#ffffff"
    d="M 39.299999 79.599998 C 40.099998 82.099998 42.900002 87 46.299999 86.099998 C 47.900002 85.699997 48.800003 83.599998 48.800003 80.199997"
  />
  <path
    id="right-tooth"
    fill="#ffffff"
    d="M 61.599998 77.400002 C 62.400002 80.800003 63.300003 83.300003 65.800003 83.300003 C 68.300003 83.300003 71.699997 79.900002 70.900002 74"
  />
  <path
    id="mounth"
    stroke="none"
    d="M 83 65.699997 C 81.900002 64.5 80.400002 63.699997 78.800003 63.400002 L 78.800003 63.400002 L 78.699997 63.400002 C 78 63.300003 77.300003 63.900002 77.300003 64.599998 C 77.300003 65.300003 77.800003 66 78.5 66 C 79.199997 66.099998 79.900002 66.300003 80.599998 66.599998 C 74 71 66.599998 74.300003 59 76.099998 C 51 78 42.700001 78.400002 34.599998 77.199997 C 34 77.099998 33.400002 77.5 33.299999 78.099998 C 33.200001 78.699997 33.599998 79.300003 34.200001 79.400002 C 35.5 79.599998 36.700001 79.699997 38 79.900002 L 38 80 C 39.099998 83.199997 41.900002 87.599998 45.5 87.599998 C 45.900002 87.599998 46.200001 87.599998 46.599998 87.5 C 47.900002 87.199997 50.199997 85.800003 50.199997 80.300003 C 50.199997 80.199997 50.199997 80.099998 50.199997 80.099998 C 53.400002 79.800003 56.5 79.400002 59.599998 78.599998 C 59.900002 78.5 60.199997 78.400002 60.5 78.400002 C 61.199997 81.300003 62.300003 84.900002 65.900002 84.900002 C 67.400002 84.900002 69 84.099998 70.199997 82.699997 C 71.199997 81.5 72.900002 78.800003 72.300003 74.400002 C 75.800003 72.800003 79.199997 70.900002 82.5 68.699997 C 82.800003 69.199997 83.099998 69.800003 83.199997 70.400002 L 83.199997 70.400002 C 83.300003 70.800003 83.699997 71.099998 84.199997 71.099998 C 84.699997 71.099998 85.099998 70.599998 85 70.099998 C 84.800003 68.400002 84.099998 66.900002 83 65.699997 Z M 47.5 80.199997 C 47.5 82.800003 46.900002 84.599998 46 84.800003 C 44 85.300003 42 82.300003 41 80.099998 C 43.099998 80.199997 45.299999 80.199997 47.5 80.199997 C 47.5 80.099998 47.5 80.099998 47.5 80.199997 Z M 68.099998 80.699997 C 67.400002 81.5 66.5 82 65.800003 82 C 64.5 82 63.900002 80.900002 63 77.5 C 65.300003 76.900002 67.5 76.099998 69.699997 75.199997 C 69.800003 77.5 69.300003 79.400002 68.099998 80.699997 Z"
  />
  <path
    id="bodyline"
    fill="#3a2d55"
    d="M 110.400002 14.699997 C 100.199997 5.600006 85.699997 0.600006 69.800003 0.600006 C 53.800003 0.600006 39.400002 5.600006 29.200001 14.699997 C 18.900002 23.900002 13.200001 36.800003 13.200001 51.199997 C 13.200001 65 27 130.100006 27.599998 132.899994 C 28.599998 137.199997 32.299999 140.100006 36.599998 140.100006 C 37.099998 140.100006 37.599998 140.100006 38.099998 140 C 39 139.899994 39.799999 139.600006 40.599998 139.199997 C 42.299999 140 44.299999 140.300003 46.200001 139.899994 C 47.599998 139.600006 49 139 50.099998 138.100006 C 51.099998 138.899994 52.199997 139.5 53.5 139.800003 C 55.5 140.300003 57.699997 140.100006 59.599998 139.300003 C 60.900002 138.699997 62.099998 137.800003 63 136.699997 C 63.699997 137.5 64.5 138.300003 65.400002 138.800003 C 66.099998 139.199997 66.900002 139.600006 67.699997 139.800003 C 68.5 140 69.400002 140.100006 70.199997 140.100006 C 71 140.100006 71.900002 140 72.699997 139.800003 C 73.5 139.5 74.300003 139.199997 75 138.800003 C 75.699997 138.399994 76.400002 137.800003 76.900002 137.199997 C 77.099998 137 77.199997 136.899994 77.300003 136.699997 L 77.300003 136.699997 C 78.699997 138.5 80.800003 139.699997 83.099998 140 C 85.300003 140.399994 87.699997 139.800003 89.599998 138.5 C 89.800003 138.399994 90 138.199997 90.099998 138.100006 C 91.199997 139 92.5 139.600006 93.800003 139.899994 C 94.800003 140.100006 95.699997 140.199997 96.699997 140 C 97.599998 139.899994 98.400002 139.699997 99.199997 139.300003 C 99.900002 139.600006 100.599998 139.800003 101.400002 140 C 106.199997 140.800003 110.800003 137.699997 111.900002 132.899994 C 112.5 130.100006 126.300003 65.099998 126.300003 51.300003 C 126.300003 36.900002 120.699997 23.900002 110.400002 14.699997 Z M 109.300003 132.300003 C 108.599998 135.600006 105.5 137.699997 102.199997 137.399994 C 102.800003 136.800003 103.400002 136.100006 103.800003 135.300003 C 104.300003 134.399994 104.599998 133.5 104.800003 132.600006 L 105.199997 130.100006 L 106.800003 120.199997 C 107.300003 116.900002 107.800003 113.599998 108.300003 110.300003 C 108.400002 109.800003 108.099998 109.400002 107.599998 109.300003 C 107.099998 109.199997 106.599998 109.5 106.5 110 C 105.800003 113.300003 105.099998 116.5 104.5 119.800003 L 102.599998 129.600006 L 102.099998 132 C 102 132.699997 101.699997 133.300003 101.400002 133.899994 C 101.099998 134.5 100.599998 135 100.099998 135.5 C 99.599998 136 99 136.399994 98.400002 136.600006 C 97.800003 136.899994 97.099998 137.100006 96.400002 137.100006 C 95.699997 137.199997 95 137.100006 94.400002 137 C 93.5 136.800003 92.699997 136.5 92 136 C 92.599998 135.100006 93.099998 134 93.400002 132.899994 C 93.5 132.600006 93.5 132.300003 93.599998 132.100006 C 93.599998 132 93.599998 131.800003 93.699997 131.699997 L 93.699997 131.300003 L 93.800003 129.899994 L 94.099998 127 L 94.699997 121.199997 C 95.099998 117.300003 95.400002 113.5 95.699997 109.599998 C 95.699997 109.099998 95.400002 108.699997 94.900002 108.599998 C 94.400002 108.5 94 108.900002 93.900002 109.400002 C 93.300003 113.199997 92.800003 117.099998 92.300003 120.900002 L 91.599998 126.699997 L 91.199997 129.600006 C 91.099998 130.5 91 131.600006 90.800003 132.300003 C 90.400002 133.899994 89.400002 135.199997 88.099998 136.100006 C 86.800003 137 85.099998 137.300003 83.5 137.100006 C 81.900002 136.899994 80.5 136 79.400002 134.800003 C 79.199997 134.5 78.900002 134.199997 78.699997 133.800003 C 78.800003 133.399994 78.900002 133 79 132.600006 C 79.199997 131.800003 79.199997 130.899994 79.199997 130.199997 L 79.300003 125.899994 C 79.400002 123 79.400002 120.199997 79.400002 117.300003 C 79.400002 114.400002 79.400002 111.599998 79.400002 108.699997 C 79.400002 108.199997 79 107.800003 78.599998 107.800003 C 78.099998 107.800003 77.699997 108.099998 77.699997 108.599998 C 77.5 111.400002 77.400002 114.300003 77.199997 117.099998 C 77.099998 119.900002 76.900002 122.800003 76.800003 125.600006 L 76.599998 129.899994 C 76.599998 130.199997 76.599998 130.600006 76.5 130.899994 C 76.5 131.199997 76.400002 131.5 76.400002 131.800003 C 76.300003 132.399994 76.099998 132.899994 75.800003 133.5 C 74.699997 135.600006 72.400002 137 70 136.899994 C 69.400002 136.899994 68.800003 136.800003 68.300003 136.699997 C 67.699997 136.600006 67.199997 136.300003 66.699997 136 C 65.699997 135.399994 64.900002 134.5 64.300003 133.5 C 64 133 63.800003 132.399994 63.699997 131.899994 C 63.599998 131.300003 63.5 130.800003 63.5 130 L 63.300003 125.699997 C 63.199997 122.900002 63.099998 120 62.900002 117.199997 C 62.800003 114.400002 62.599998 111.5 62.400002 108.699997 C 62.400002 108.199997 62 107.900002 61.5 107.900002 C 61 107.900002 60.599998 108.300003 60.599998 108.800003 C 60.599998 111.699997 60.599998 114.5 60.599998 117.400002 C 60.599998 120.300003 60.699997 123.100006 60.699997 126 L 60.800003 130.300003 C 60.800003 131 60.800003 131.899994 61 132.699997 C 61.099998 133.100006 61.199997 133.5 61.400002 134 C 60.699997 135.199997 59.599998 136.199997 58.400002 136.699997 C 57.099998 137.300003 55.599998 137.399994 54.199997 137.100006 C 52.800003 136.699997 51.5 135.899994 50.599998 134.699997 C 50.199997 134.100006 49.800003 133.5 49.599998 132.800003 C 49.5 132.5 49.400002 132.100006 49.300003 131.699997 C 49.300003 131.5 49.199997 131.300003 49.199997 131.100006 L 49.099998 130.399994 L 47.799999 119.900002 C 47.299999 116.400002 46.900002 112.900002 46.299999 109.400002 C 46.200001 108.900002 45.799999 108.599998 45.400002 108.599998 C 44.900002 108.599998 44.5 109.099998 44.599998 109.599998 C 44.900002 113.099998 45.200001 116.599998 45.5 120.099998 L 46.5 130.600006 L 46.599998 131.300003 C 46.599998 131.5 46.599998 131.699997 46.700001 132 C 46.799999 132.5 46.900002 133 47 133.5 C 47.299999 134.399994 47.700001 135.199997 48.199997 135.899994 C 47.400002 136.399994 46.599998 136.800003 45.599998 137 C 44.299999 137.199997 42.900002 137.100006 41.599998 136.5 C 40.400002 135.899994 39.299999 134.899994 38.700001 133.699997 C 38.400002 133.100006 38.099998 132.5 38 131.800003 L 37.5 129.399994 L 35.599998 119.699997 C 34.900002 116.5 34.299999 113.199997 33.599998 110 C 33.5 109.599998 33.099998 109.199997 32.599998 109.300003 C 32.099998 109.400002 31.799999 109.800003 31.799999 110.300003 C 32.200001 113.599998 32.700001 116.900002 33.299999 120.099998 L 34.900002 129.899994 L 35.299999 132.300003 C 35.5 133.300003 35.799999 134.199997 36.200001 135 C 36.599998 135.800003 37.200001 136.5 37.799999 137.100006 C 37.700001 137.100006 37.599998 137.199997 37.5 137.199997 C 34.099998 137.800003 30.799999 135.600006 30.099998 132.199997 C 30 131.5 15.700001 64.599998 15.700001 51.099998 C 15.700001 37.5 21 25.300003 30.799999 16.600006 C 40.700001 8 54.5 3.300003 69.800003 3.300003 C 85.099998 3.300003 98.900002 8.100006 108.599998 16.800003 C 118.300003 25.5 123.699997 37.699997 123.699997 51.300003 C 123.699997 64.699997 109.400002 131.600006 109.300003 132.300003 Z"
  />
</svg>
