<?xml version="1.0" encoding="UTF-8"?>
<?xml-stylesheet type="text/css" href="../main.css" ?>
<svg viewBox="0 0 256 256" xmlns="http://www.w3.org/2000/svg">
  <path
    d="M 112 256 L 112 237.3 C 89.5 235.5 71 224.4 56 208.2 L 200 208.2 C 185.6 224.6 166.2 235.6 144 237.3 L 144 256 C 187.7 247.9 225.6 224.2 244.7 182.5 C 276.1 113.9 240.5 30.1 168.5 6.3 C 157.2 2.5 144.9 0 132.9 -0.2 C 99.6 -0.6 67.1 9.9 42 32.6 C -11.3 80.8 -15.3 170.2 37.9 220.4 C 59.2 240.4 83.7 250.7 112 256 M 128.3 6.3 C 131.3 8.9 134.2 11.6 136.4 15 C 148.6 33.8 127.9 49.9 116.1 61.7 C 104 73.8 92 85.9 79.9 97.9 C 69.8 107.9 59.3 117.4 55.4 131.7 C 52.7 141.5 55.3 150.7 56.6 160.3 C 52.7 157.3 49.9 152.8 47.3 148.6 C 27 115.6 61.4 87.8 82.9 67.4 C 87.9 62.7 92.6 57.7 97.4 53 C 103.8 46.6 110.5 40.4 116.5 33.7 C 120.8 28.9 124.5 23 126.3 16.8 C 127.3 13.4 127 9.4 128.3 6.3 M 163.2 15 C 182.4 29.7 166.7 51.9 154.5 64 C 136.6 82 118.9 100.3 100.3 117.6 C 87.3 129.8 72.3 145.9 72.3 165 C 57.5 152.7 65.8 128.5 75.2 116 C 83 105.5 93.3 96.9 102.6 87.9 C 111 79.9 118.7 71.4 127.1 63.5 C 137.9 53.5 149.4 43.3 157.2 30.8 C 160.4 25.7 161 20.3 163.2 15 M 180.2 46.5 C 182.2 52.8 183.6 59.1 183 65.8 C 181.2 83.6 163.6 96.7 151.5 108 C 143 116 134.9 124.6 126.5 132.9 C 112.7 146.7 99 160.7 95.3 180.7 C 94 188 95.3 194 96.2 201.2 C 78.3 190.7 80.9 163.1 89 147.5 C 95.1 135.9 103.9 127.8 113.1 118.9 C 123.1 109.2 132.8 99.2 142.9 89.6 C 152.1 80.6 161.7 71.7 169.9 61.7 C 173.7 57 176.2 50.9 180.2 46.5 M 209.3 59.4 C 211.6 66.3 213.3 73.6 212 80.9 C 209.3 95.9 194.5 107.4 183.9 117.2 C 175.2 125.3 167.1 133.9 158.6 142.2 C 141.4 159.1 124.8 175.7 124.8 201.2 L 124.2 201.2 C 119 192.6 113.5 184.8 113.7 174.3 C 114 160.1 124.1 148.8 133.6 139.3 C 148.9 123.9 164.6 108.9 180.2 93.8 C 187.2 86.9 194.2 79.9 200.3 72.2 C 203.5 68.2 205.7 62.9 209.3 59.4 M 208.7 106 C 209.9 115.3 210.4 123.4 206.5 132.3 C 202.4 141.4 194.1 148.1 187.1 155 C 173.3 168.9 159.5 181.7 153.9 201.2 C 144.5 193.3 147.5 177.6 151.6 167.9 C 157.1 154.9 169.1 145.9 179 136.4 C 189.2 126.6 198.5 115.4 208.7 106 Z"
  />
</svg>
