<?xml version="1.0" encoding="UTF-8"?>
<?xml-stylesheet type="text/css" href="../styles/tec.css" ?>
<svg viewBox="0 0 512 176" xmlns="http://www.w3.org/2000/svg">
  <path
    class="tec"
    d="M 253.6 5.4 C 260.6 7.4 259.8 12.1 259.8 18.5 C 259.8 31.4 262 46.7 259.7 59.3 C 258.9 63.4 254.3 62.9 253.6 66.9 L 276.9 66.9 L 270.9 59.3 L 270.7 39.9 L 270.7 -0.2 C 266.5 0.2 255.1 1 253.6 5.4 M 313.8 2.6 C 305 2.6 303.4 3.8 300.6 12.3 C 300 13.9 298.1 17.8 299.8 19.1 C 301.6 20.5 303.5 17.5 304.3 16.4 C 307.7 12 311.4 7.6 313.8 2.6 M 30.9 4.7 L 30.2 21.3 L 33.6 21.3 C 35.2 10.4 42 9.5 51.4 9.5 L 51.4 42.7 L 51.1 58.6 L 42.5 66.9 L 71.9 66.9 L 63.3 59.3 L 63 43.4 L 63 9.5 C 72.7 9.5 78.6 10.5 80.7 21.3 L 84.2 21.3 L 83.5 4.7 L 30.9 4.7 M 382.1 5.2 C 374.7 7.9 379 19.5 386.2 16.4 C 393 13.6 389.1 2.7 382.1 5.2 M 111.5 55.9 C 108.5 57 105.9 59.1 102.6 59.8 C 92.3 61.8 89.3 51.7 86.9 44.1 C 91.5 43.3 96 43.8 100.6 43.3 C 103.7 42.8 109.5 43.4 111.8 40.9 C 117.1 35.3 106.8 25.6 101.9 24.4 C 82.5 19.7 69.8 46.8 81.2 61.4 C 86.7 68.6 97.1 70 104.7 65.7 C 108.4 63.5 112.3 60.5 111.5 55.9 M 152.5 55.9 C 147.9 57.8 144.1 61 138.8 59.5 C 128.3 56.4 124.1 39.9 131.6 31.8 C 138.7 24.1 144.8 37.2 150.3 33.3 C 154 30.7 151.8 26.2 148.4 24.8 C 127.5 16.3 106.2 48.8 124.5 63.8 C 131.1 69.2 140.1 69.5 147.1 64.9 C 150.3 62.8 153.4 59.9 152.5 55.9 M 156.6 27.5 L 156.6 29.6 L 161.3 32.5 L 162.1 39.9 L 161.6 60.6 L 155.9 66.9 L 177.8 66.9 C 177.3 63.8 174.5 63.4 173.5 60.7 C 171.4 55.5 173 46.9 173 41.3 C 173 39.3 172.6 36.5 173.7 34.7 C 177.4 28.5 186.2 30.8 187.7 37.2 C 189.1 43 189.4 54.3 187.7 60 C 186.9 63.1 183.8 63.7 183.3 66.9 L 204.4 66.9 C 203.8 63.2 199.7 63.2 199.1 59.4 C 197.4 48.4 204.2 24.3 186.7 24.1 C 184.8 24.1 183 24.3 181.2 25 C 178.3 26.4 175.6 28.5 173 30.3 L 173 24.1 L 156.6 27.5 M 225 24.4 C 198 29.5 205.7 72.9 233.2 67.9 C 261.1 62.8 253.6 18.9 225 24.4 M 297.4 24.4 C 270.3 29.5 277.9 73 305.6 67.9 C 333.5 62.8 325.9 18.9 297.4 24.4 M 338.4 52.4 C 336.1 54.1 331.7 56 330.2 58.4 C 327.7 62.5 333.9 66.9 337 67.6 C 334.5 70.8 330 72.7 328.5 76.6 C 325.9 84 333.7 89.2 339.8 90.3 C 351.8 92.4 369.8 85.9 369.7 71.1 C 369.6 59.7 358.1 60.1 350 60 C 347.7 60 340.5 59.9 341.2 55.9 C 341.7 52.6 350.2 53.8 352.7 53.1 C 363.3 50 366.2 40.5 362.3 31 C 366.7 31.5 371 30 370.5 24.7 C 359.9 27.3 349.1 21.2 339.1 25.5 C 327.3 30.8 326.7 46.8 338.4 52.4 M 373.9 26.8 L 373.9 30.3 C 381.7 31.9 381.4 53.7 378.9 60 C 377.6 63.3 373.9 63.3 373.2 66.9 C 378.2 66.9 394.7 69.5 396.5 64.2 L 390.6 60.7 L 389.6 49 L 389.6 24.1 L 373.9 26.8 M 419.7 24.4 C 408.8 26.5 399 36.6 399.2 48.3 C 399.5 61.3 412.7 72.1 425.2 67 C 427.6 66 436.3 61.1 434.6 57.5 C 433.4 55.2 427.1 59.6 425.2 59.9 C 420 60.6 414.8 56.7 412.2 52.4 C 408.3 45.8 409 29.6 419 29.1 C 423.3 28.9 428.2 35.5 431.8 33.6 C 435.3 31.8 433.9 27.1 431.3 25.4 C 428.2 23.4 423.2 23.7 419.7 24.4 M 455.2 24.4 C 428.3 29.5 435.9 72.9 463.4 67.9 C 491.4 62.8 483.8 18.9 455.2 24.4 M 87.6 39.3 C 88.5 34.8 90.4 27.1 96.5 27.9 C 100 28.3 104.6 35 101.5 38.1 C 99.1 40.8 91 39.3 87.6 39.3 M 227 27.8 C 231.4 26.6 235.1 30 236.8 33.8 C 240 40.6 242.3 61.6 232.5 64.1 C 227.9 65.3 224.2 61.9 222.5 58 C 219.3 50.9 216.9 30.5 227 27.8 M 299.4 27.8 C 303.7 26.7 307.3 30.1 309.1 33.8 C 312.1 40.4 314.6 61.5 304.9 63.9 C 299.9 65.2 296.4 61.5 294.5 57.2 C 291.3 50.2 289.3 30.5 299.4 27.8 M 345.3 27.9 C 355.2 24.2 357.6 46.8 349.3 49.8 C 339.8 53.3 337.1 31 345.3 27.9 M 457.3 27.8 C 470.2 24.4 469.7 47.9 468.8 55.2 C 468.3 58.6 466.9 62.7 463.4 63.8 C 448.4 68.6 444.9 31.1 457.3 27.8 M 343.2 69.3 C 347.3 68.3 355.3 68.1 358.8 70.9 C 364.7 75.7 359.1 83.5 353.4 85 C 348.9 86.2 343.3 85.5 339.9 82 C 335.8 77.8 337.2 70.7 343.2 69.3 M 23.4 88.4 L 23.4 91.1 C 32.9 93.3 28.5 102.1 30.2 109.2 C 20.9 109.6 12.6 109.9 5.7 117.5 C -4.1 128.4 -1.1 149.4 14.5 153 C 20.8 154.5 24.7 150.7 30.2 148.6 L 29.5 153.4 C 32.4 153.2 45.8 151.8 46.8 149.1 C 47.6 146.7 42.7 146.2 41.6 144.9 C 40.2 143.1 40.5 140.4 40.5 138.2 C 40.4 120.5 40.5 102.7 40.5 85 L 23.4 88.4 M 114.2 90.5 C 115.2 95.8 122.6 93.9 123 100.9 C 123.4 108 121.9 115.9 121.2 123 C 120.6 129.5 121.1 136.6 119.2 143 C 117.8 148 111.9 147.7 111.5 152.7 L 134.1 152.7 L 134.1 149.3 C 131.3 148.7 128.2 148.3 126.5 145.7 C 123.8 141.5 125.1 133.9 125.7 129.2 C 126.7 120.6 126.5 111.5 126.5 102.9 L 127.3 102.9 C 131.6 115.8 137.4 128.3 142.4 141 C 143.2 143 145.7 152.8 148.8 151.2 C 152.1 149.6 154 141.4 155.4 138.2 L 165.7 114 C 167.4 110 168.7 105.3 171.7 102.2 C 169 111.4 171.7 125 171.7 134.8 C 171.7 141.8 172.1 147.6 164.2 149.3 L 164.2 152.7 L 190.8 152.7 L 190.8 149.3 C 187.5 148.6 184.5 147.9 183.2 144.4 C 181.6 140.2 182.7 134.3 182.6 129.9 C 182.3 120.1 179.7 107.7 182.1 98.1 C 183 94.5 186.3 94 189.4 93.9 L 189.4 90.5 L 171.9 91.2 L 165.5 103.6 L 151.9 133.4 L 138.5 102.9 L 132.5 91.2 L 114.2 90.5 M 287.8 114 L 294.6 114.7 C 294.6 125.5 289.2 156 306.9 153.3 C 310.4 152.7 313.4 150.6 316.5 149.3 L 315.8 145.8 C 300.2 149.4 304.9 124.8 304.9 114.7 C 306 114.7 319.4 113.8 314.1 110.9 C 311.6 109.5 307.6 111.8 305.6 108.9 C 303.8 106.1 304.9 100 304.9 96.7 C 301.5 97.5 296.5 100.3 295.1 103.7 C 294.4 105.4 294.9 107.4 294 108.9 C 292.5 111.1 289.5 111.5 287.8 114 M 61.7 129.2 C 67.5 129.2 73.6 128.7 79.4 128 C 81.4 127.8 84.3 128.2 85.8 126.6 C 87.9 124.6 86.7 120.4 85.6 118.1 C 82.6 111.8 76 108.2 69.2 109.4 C 49 112.8 42.9 147.9 65.1 153 C 71.1 154.4 77.4 152.8 82 148.7 C 83.2 147.7 86.7 144.7 85.4 142.8 C 84.5 141.3 76.7 145.2 74.6 145.3 C 65.9 145.5 61.7 136.9 61.7 129.2 M 212 109.5 C 183.5 114.7 191.1 158.7 220.2 153.1 C 246.6 148 239 104.5 212 109.5 M 240.7 112.6 L 240.7 115.4 C 248.6 117.5 247.8 138.1 245.8 145.1 C 245.2 147.3 239 149.9 240.1 151.6 C 241.1 153.3 244.6 152.7 246.1 152.7 C 250.5 152.7 260.9 154.9 261.9 149.3 C 255.8 148 257.3 143 257 138.2 C 256.6 131 253.4 116.4 264.6 116.3 C 274.5 116.1 273.6 138.7 271.7 145.1 C 271.1 147.1 266.9 149.4 267.3 151.2 C 267.6 152.9 270.2 152.7 271.4 152.7 C 275 152.8 284.6 154.4 287.4 152 C 288.1 151.4 288 150.6 287.4 149.9 C 283.2 145.3 282.3 144.2 282.3 137.5 C 282.3 127.5 284.4 105.9 268 109.4 C 263.7 110.3 260.4 113.7 256.4 115.4 L 256.4 109.2 L 240.7 112.6 M 328.8 129.2 C 334.7 129.2 340.8 128.9 346.6 128.1 C 348.5 127.8 351.5 128.3 353 126.7 C 361.1 118.6 343.7 108.3 337 109.4 C 317 112.3 310.1 146.7 331.5 152.9 C 337.8 154.7 344.3 152.9 349.3 148.9 C 350.7 147.8 353.8 145.4 353.1 143.3 C 352.5 141.3 343.4 145.3 341.1 145.2 C 333.1 144.6 329 136.5 328.8 129.2 M 357.5 113.3 L 357.5 114.7 C 365.2 119 364.9 136.8 362.8 145.1 C 362.3 147.1 356.6 150 357.6 151.6 C 358.6 153.3 362.1 152.7 363.7 152.7 L 381.5 152.7 L 381.5 149.3 C 379.1 149.2 376.6 149 375 147 C 371.4 142.4 372.9 123.9 377.4 120.5 C 381.7 117.1 387.4 124.6 390.3 117.4 C 392.2 112.8 388.2 108.4 383.5 109.4 C 379.3 110.4 376.4 114.5 374.6 118.1 L 373.9 118.1 L 373.9 109.2 L 357.5 113.3 M 395.1 112.6 L 399.7 119.5 L 399.9 142.3 L 394.5 151.6 L 400.6 152.7 L 418.3 152.7 L 418.3 149.3 C 408.1 148.8 407.3 126 414.3 120.5 C 418.5 117.2 423.7 124.2 427.1 118 C 429.7 113.3 425.4 108.3 420.4 109.4 C 416.1 110.4 413.5 115 410.8 118.1 L 410.8 109.2 L 395.1 112.6 M 439.5 129.2 C 445.6 129.2 451.9 128.8 458 128 C 460.1 127.7 462.8 128.1 464.3 126.2 C 471.1 117.6 454.5 108.3 447.7 109.4 C 427.8 112.3 420.9 146.6 442.3 152.9 C 448.4 154.7 455.1 153 460 149 C 461.4 147.8 464.5 145.4 463.8 143.3 C 463.2 141.4 454.1 145.3 451.8 145.2 C 443.8 144.7 439.8 136.4 439.5 129.2 M 466.2 110.5 C 466.8 114.1 470.3 114.6 472.1 117.5 C 475.1 122.4 477 128.6 479 134 C 481.2 140.1 486.9 149.8 484.4 156.2 C 482.5 161 473.3 166.4 473.3 170.7 C 473.3 175.7 480.5 178.1 482.8 173.4 C 489.7 159.6 494 143.5 500.2 129.2 C 502.9 122.9 504.6 115.2 511.9 113.3 L 511.9 110.5 L 494.9 110.5 C 495.4 113.5 498.5 114.1 499 116.8 C 500.3 122.7 494 133.3 492.1 138.9 L 491.5 138.9 C 489.6 133 480.2 116.1 488.1 113.3 L 488.1 110.5 L 466.2 110.5 M 214 113 C 226.2 112 225.5 133.5 224.2 141 C 223.6 144.8 221.7 149.2 217.5 149.8 C 205.1 151.4 204.4 128.5 206.6 120.9 C 207.6 117.4 210.1 113.3 214 113 M 20.6 113.5 C 33.1 110.8 29.5 129.2 29.7 136.1 C 29.8 140 30.9 145 26.1 146.2 C 9.3 150.2 6.1 116.7 20.6 113.5 M 61.7 124.3 C 62.6 119.7 65.4 111.3 71.9 113.8 C 74.4 114.8 78.5 121.2 75.5 123.7 C 73.7 125.2 69.4 124.3 67.1 124.4 C 65.1 124.5 63.5 124.8 61.7 124.3 M 329.5 125.1 C 329.6 120.1 333 110.4 339.7 114 C 342.2 115.3 345.7 121.3 342.8 123.7 C 340.3 125.6 332.7 124.6 329.5 125.1 M 454.6 124.3 L 440.2 125.1 C 440.5 111.6 454.5 110 454.6 124.3 Z"
  />
</svg>
