<?xml version="1.0" encoding="UTF-8"?>
<?xml-stylesheet type="text/css" href="../../styles/avatars.css" ?>
<svg viewBox="0 0 1024 1024" xmlns="http://www.w3.org/2000/svg">
  <path
    id="hairline"
    fill="#000000"
    stroke="#000000"
    stroke-width="6"
    d="M 246.7 861.9 C 229.2 881.2 236.3 980.5 227.6 979 C 218.9 977.5 202.2 930.2 202.2 930.2 C 190 924.7 192.4 979.7 184.9 977.9 C 177.4 976.1 143.5 946.3 142.3 892 C 141 837.6 134.9 766.7 84.3 686 C 33.7 605.4 82.3 461 82.3 461 C 55.3 428.9 112.8 397.3 112.8 397.3 C 110.6 288.9 138.1 233.8 138.1 233.8 C 306.7 -118.3 512 41.7 512 41.7 C 544.4 7.7 575.3 6.7 608.5 8.7 C 954.2 28.6 865 425.8 899 431.2 C 935.4 437 958.5 460.8 969.1 493.8 C 979.8 526.8 943.2 595.7 940.7 613.8 C 938.2 631.8 966.1 646.7 966.1 646.7 C 964.9 666.1 897.3 698.7 884.8 724.2 C 872.3 749.7 892.6 776.3 885.9 794.2 C 879.2 812.2 850.5 777.7 823.9 820.8 C 797.3 863.9 855.5 842.2 852.3 859 C 849.2 875.8 818.8 868.6 811.7 891.9 C 804.6 915.1 785.5 957.5 758.9 960.7 C 732.3 964 761.8 994.1 759.9 1005.3 C 758 1016.6 702.6 1004.9 691.8 999 C 681.1 993 689.5 923.9 683.4 921.7 C 713.7 883.2 732 840.4 750.8 800.6 C 750.8 800.6 840.8 758.5 815.8 696.6 C 815.8 696.6 786.6 681.8 773.1 716.8 C 773.1 716.8 780.5 578.7 744.6 568.1 C 744.6 568.1 769.1 500.1 683.6 473.6 C 677.2 471.7 670.1 469.9 662.3 468.4 C 662.3 468.4 654.2 462.1 650.2 446.6 C 646 431.1 646 406.5 662.3 369.7 C 662.3 369.7 688.7 264.6 607.5 266.7 C 526.2 268.8 492.7 249.7 492.7 249.7 C 492.7 249.7 451.7 238.4 452 263.5 C 452 263.5 488.1 348 433.8 390.9 C 433.8 390.9 470.4 322.4 437.8 260.3 C 437.8 260.3 418.1 266.2 421.6 296.4 C 425 326.7 414.6 393.7 294.6 446.1 C 291 447.6 286.3 449.5 280.7 452.5 C 269.8 458.2 255.9 468.3 242.8 489 C 222.2 521.5 211.5 580.1 209.3 689.2 C 209.3 689.2 139.6 626.5 167.6 747.6 C 174.2 776 211.3 764.6 211.3 764.6 C 211.3 764.6 224.2 808.9 250.8 861.9"
  />
  <path
    id="faceline"
    fill="#ffffff"
    stroke="#000000"
    stroke-width="6"
    d="M 211.3 764.6 C 211.3 764.6 224.2 808.9 250.8 861.9 C 287.4 935.2 346.8 1001.2 436.9 1014.4 C 546.8 1030.4 622 1000 683.4 921.7 C 713.7 883.2 732 840.4 750.8 800.6 C 750.8 800.6 840.8 758.5 815.8 696.6 C 815.8 696.6 786.6 681.8 773.1 716.8 C 773.1 716.8 780.5 578.7 744.6 568.1 C 744.6 568.1 769.1 500.1 683.6 473.6 C 677.1 471.6 670.1 469.9 662.3 468.4 C 662.3 468.4 654.2 462.1 650.1 446.6 C 646 431.2 646 406.5 662.3 369.7 C 662.3 369.7 688.8 264.6 607.5 266.7 C 526.2 268.8 492.7 249.7 492.7 249.7 C 492.7 249.7 451.7 238.4 452 263.5 C 452 263.5 488.1 348 433.8 390.9 C 433.8 390.9 470.4 322.5 437.8 260.3 C 437.8 260.3 418.1 266.2 421.6 296.4 C 425 326.7 414.6 393.6 294.6 446.1 C 291.1 447.6 286.3 449.5 280.7 452.5 C 269.8 458.2 255.9 468.3 242.8 489 C 222.2 521.5 211.5 580.1 209.3 689.2 C 209.3 689.2 139.6 626.5 167.6 747.6 C 174.2 776 211.3 764.6 211.3 764.6 Z"
  />
  <path
    id="hair-4"
    fill="none"
    stroke="#ffffff"
    stroke-width="2"
    d="M 188.9 247.6 C 188.9 247.6 157.6 395.2 207.2 488.6"
  />
  <path
    id="hair-3"
    fill="none"
    stroke="#ffffff"
    stroke-width="2"
    d="M 533.3 113.9 C 533.3 113.9 439.3 104.1 453.1 234.9"
  />
  <path
    id="hair-2"
    fill="none"
    stroke="#ffffff"
    stroke-width="2"
    d="M 416.5 262.1 C 416.5 262.1 324.1 176.8 406.3 113.9"
  />
  <path
    id="hair-1"
    fill="none"
    stroke="#ffffff"
    stroke-width="2"
    d="M 601.4 136.1 C 601.4 136.1 731.8 104.7 731.4 296.4 C 731.1 488.2 878.3 467.9 906.2 446.1"
  />
  <path
    id="lower-lip"
    fill="none"
    stroke="#000000"
    stroke-width="4"
    d="M 546.6 877.1 C 425.4 918.1 359.6 827.2 359.6 827.2"
  />
  <path
    id="teeth"
    fill="none"
    stroke="#000000"
    stroke-width="6"
    d="M 367.8 796.4 C 367.8 796.4 465.2 825.1 600.4 803.8 C 600.4 803.8 601.4 816.5 601.4 816.5 C 601.4 816.5 499.6 896.5 366.8 811.3 L 367.8 796.4 Z"
  />
  <path
    id="right-teeth-fill"
    fill="#000000"
    fill-rule="evenodd"
    stroke="#000000"
    stroke-width="6"
    d="M 601.4 816.5 C 602.4 815.5 606 813.9 607.9 810.1 C 608.8 808.2 608.5 805.9 607.5 804.9 C 605.5 803.8 602.4 803.8 600.4 803.8 L 601.4 816.5"
  />
  <path
    id="left-teeth-fill"
    fill="#000000"
    fill-rule="evenodd"
    stroke="#000000"
    stroke-width="6"
    d="M 366.8 811.3 C 364.7 810.2 361.1 808.9 359.3 803.8 C 358.4 801.4 358.6 798.5 359.6 797.5 C 360.7 796.4 364.7 795.3 367.8 796.4 L 366.8 811.3"
  />
  <path
    id="nose"
    fill="none"
    stroke="#000000"
    stroke-width="4"
    d="M 438.9 654.2 C 438.9 654.2 388.2 691.7 418.6 710.4 C 431.3 718.3 442.6 709.5 459.2 724.3 C 475.5 738.8 505.5 734.3 518.1 726.3 C 532.6 717.2 546.9 714.7 556.7 714.5 C 567.9 714.3 596.3 685.1 549.6 655.2 C 549.6 655.2 549.6 618.7 550.6 613.8"
  />
  <path
    id="glasses"
    fill="none"
    stroke="#000000"
    stroke-width="8"
    d="M 242.8 489 L 265.1 493.9 C 265.1 493.9 288 452.9 362.7 462 C 437.3 471.2 455.7 491.7 461.2 503.4 C 461.2 503.4 495.4 468.3 542.5 503.4 C 542.5 503.4 563.6 459.8 662.3 468.4 C 670.1 469.9 677.2 471.7 683.6 473.6 C 769.1 500.1 744.6 568.1 744.6 568.1 C 737.5 594.7 732.5 654.1 651.2 665.8 C 566.2 672.8 519 594.4 539.4 510.8 C 539.4 510.8 500.6 482.1 463.2 511.9 C 463.2 511.9 476.9 641.8 376.9 652 C 276.9 662.2 244.7 591 265.1 493.9 Z"
  />
  <path
    id="right-eyeball"
    fill="#000000"
    stroke="#000000"
    stroke-width="6"
    d="M 674.6 533.8 C 667 566.7 641 565 641 565 C 607.3 564.5 605.5 535.3 604.8 532.6 C 621.2 523 644.9 517.6 674.6 533.8"
  />
  <path
    id="right-eyeball-detail"
    fill="#ffffff"
    fill-rule="evenodd"
    stroke="#ffffff"
    stroke-width="2"
    d="M 603.4 540 C 603.4 542.1 605 543.7 607 543.7 L 608 543.7 C 610 543.7 611.6 542.1 611.6 540 C 611.6 538 610 536.3 608 536.3 L 607 536.3 C 605 536.3 603.4 538 603.4 540 Z"
  />
  <path
    id="right-eyelash"
    fill="none"
    stroke="#000000"
    stroke-width="6"
    d="M 579.1 556.5 C 579.1 556.5 588.1 542.4 604.8 532.6 C 621.2 523 644.9 517.6 674.6 533.8 C 685.1 539.5 696.2 547.9 708.1 559.7"
  />
  <path
    id="right-eyebrow"
    fill="#000000"
    stroke="#000000"
    stroke-width="6"
    d="M 650.2 447.1 C 604.1 443.9 583.5 448.9 548.6 466.3 C 539.6 470.7 561.8 497 561.8 497 C 561.8 497 591.9 467.2 680.6 482.2 C 680.6 482.2 684.2 476.2 683.6 473.6 C 677.1 471.6 670.1 469.9 662.3 468.4 C 662.3 468.4 654.2 462.1 650.1 446.6 Z"
  />
  <path
    id="left-eyeball"
    fill="#000000"
    stroke="#000000"
    stroke-width="6"
    d="M 380.3 522.7 C 379.2 556.1 346.4 554.4 346.4 554.4 C 312.7 554.4 313.9 525.7 313.7 525 C 330.3 516.9 354.6 510.6 380.3 522.7"
  />
  <path
    id="left-eyeball-detail"
    fill="#ffffff"
    fill-rule="evenodd"
    stroke="#ffffff"
    stroke-width="2"
    d="M 311.9 532.6 C 311.9 534.7 313.5 536.3 315.4 536.3 L 316.4 536.3 C 318.4 536.3 320 534.7 320 532.6 C 320 530.6 318.4 528.9 316.4 528.9 L 315.4 528.9 C 313.5 528.9 311.9 530.6 311.9 532.6 Z"
  />
  <path
    id="left-eyelash"
    fill="none"
    stroke="#000000"
    stroke-width="6"
    d="M 291.6 539.5 C 291.6 539.5 300 531.7 313.7 525 C 330.3 516.9 354.6 510.6 380.3 522.7 C 388.9 526.8 397.7 532.9 406.4 541.6"
  />
  <path
    id="left-eyebrow"
    fill="#000000"
    stroke="#000000"
    stroke-width="6"
    d="M 280.4 453.5 C 280.4 453.5 282.5 482.6 286.5 483.3 C 290.5 483.9 346.6 460.5 431.7 488.6 C 431.7 488.6 461.5 466.9 444.9 458.8 C 381.4 428 324.1 438.8 294.6 446.1 C 291.1 447.6 286.3 449.5 280.7 452.5 Z"
  />
</svg>
