<?xml version="1.0" encoding="UTF-8"?>
<?xml-stylesheet type="text/css" href="../../styles/avatars.css" ?>
<svg viewBox="0 0 1024 1024" xmlns="http://www.w3.org/2000/svg">
  <path
    id="hairline"
    fill="#000000"
    stroke="#000000"
    stroke-width="6"
    d="M 692.6 730.3 C 698.9 721.9 749.1 647.1 745.1 608.4 C 745.1 608.4 753.4 584.2 762.3 574.9 C 767.4 569.6 773.3 560.4 777.8 548.5 C 779.5 543.9 781 538.8 782.2 533.4 C 784 525 785 515.7 784.5 505.8 C 784.5 505.8 841.8 304.1 757.6 265.4 C 682.9 231.1 606.9 155.1 520.9 194.8 C 459.2 223.4 297 315 277.8 402.4 C 277.8 402.4 264 439 247.5 437 C 239.2 436 238 407.8 238.2 390.3 C 238.5 371.5 236.4 367.1 232.1 358.9 C 222.1 340 204.4 320.7 174.2 358 C 174.2 358 157.9 376.3 170.3 426 C 170.3 426 177 479.4 174.5 484.9 C 171.4 491.6 173.6 555.1 216.3 552.8 C 228.3 552.1 238.6 542.6 238.6 542.6 C 238.6 542.6 226.3 682.4 271.5 744.5 C 343.2 1030.5 212 990.9 184.8 1006.5 C 153.5 1024.4 109.4 920.6 32.4 951 C -44.5 981.5 53.6 565.5 122.5 388.6 C 165.6 278.1 242.3 143.5 318.7 91.8 C 395.2 40.1 441.3 0.5 551 22.2 C 660.7 44 705.8 102.2 703.4 108.2 C 703.4 108.2 810.7 119.2 947.3 249.7 C 1021.2 320.3 1025.5 399.5 1016.8 449.5 C 1008.1 499.5 987.4 563.2 962.3 574.4 C 937.1 585.7 931.3 652 958.5 690.2 C 985.6 728.3 1029.2 825.2 994.4 866.7 C 959.6 908.1 1001.2 971 990.6 989.5 C 980 1007.9 848.4 1020.8 804.8 961.5 C 804.8 961.5 712 936.2 691 920.1 C 691 920.1 629.6 873.6 680.7 829.8 C 731.8 786 673.4 746.6 692.6 730.3"
  />
  <path
    id="faceline"
    fill="#ffffff"
    stroke="#000000"
    stroke-width="6"
    d="M 238.6 542.6 C 238.6 542.6 226.3 682.4 271.5 744.5 C 271.5 744.5 317.5 825.1 341.8 850.9 C 366 876.7 414 903.6 436.3 901.4 C 521.4 893.2 676.1 753 692.6 730.3 C 698.9 721.9 749.1 647.1 745.1 608.4 C 745.1 608.4 753.4 584.2 762.3 574.9 C 767.4 569.6 773.3 560.4 777.8 548.5 C 779.5 543.9 781 538.8 782.2 533.4 C 784 525 785 515.7 784.5 505.8 C 784.5 505.8 841.8 304.1 757.6 265.4 C 682.9 231.1 606.9 155.1 520.9 194.8 C 459.2 223.4 297 315 277.8 402.4 C 277.8 402.4 264 439 247.5 437 C 239.2 436 238 407.8 238.2 390.3 C 238.5 371.5 236.4 367.1 232.1 358.9 C 222.1 340 204.4 320.7 174.2 358 C 174.2 358 157.9 376.3 170.3 426 C 170.3 426 177 479.4 174.5 484.9 C 171.4 491.6 173.6 555.1 216.3 552.8 C 228.3 552.1 238.6 542.6 238.6 542.6 Z"
  />
  <path
    class="bg-fill"
    id="hair-13"
    fill="#ffffff"
    stroke="#ffffff"
    stroke-width="2"
    d="M 973.4 543 C 973.4 543 1012 417.8 981.1 380.6 C 981.1 380.6 984.2 427.3 983.3 450.6 C 982.2 481.6 973.4 543 973.4 543 Z"
  />
  <path
    id="hair-12"
    fill="none"
    stroke="#ffffff"
    stroke-width="2"
    d="M 832.1 935 C 832.1 935 979.6 867.6 962.8 822.1"
  />
  <path
    id="hair-11"
    fill="none"
    stroke="#ffffff"
    stroke-width="2"
    opacity="0.1"
    d="M 852.8 649.8 C 852.8 649.8 838.8 596.2 860.7 560.5 C 882.7 524.7 934 407.9 868.5 382.8"
  />
  <path
    id="hair-10"
    fill="none"
    stroke="#ffffff"
    stroke-width="2"
    d="M 839.8 274.3 C 839.8 274.3 976.4 397.5 923.6 541 C 870.9 684.6 893.5 677.1 893.5 677.1"
  />
  <path
    id="hair-9"
    fill="none"
    stroke="#ffffff"
    stroke-width="2"
    d="M 831.8 773.7 C 831.8 773.7 774.2 654.7 804.1 635.7"
  />
  <path
    id="hair-8"
    fill="none"
    stroke="#ffffff"
    stroke-width="4"
    d="M 862.2 765.5 C 862.2 765.5 923.5 797.9 875.6 866.9 C 827.7 935.9 746.8 900.7 746.8 900.7"
  />
  <path
    id="hair-7"
    fill="none"
    stroke="#ffffff"
    stroke-width="4"
    d="M 722.9 204.5 C 722.9 204.5 827.2 170.3 947.3 249.7"
  />
  <path
    id="hair-6"
    fill="none"
    stroke="#ffffff"
    stroke-width="4"
    d="M 689.4 171.1 C 689.4 171.1 616.8 33.2 486.3 122.9 C 355.8 212.5 251.3 302.9 231.8 261.5"
  />
  <path
    id="hair-5"
    fill="none"
    stroke="#ffffff"
    stroke-width="4"
    d="M 190.1 663.5 C 190.1 663.5 256.7 855.4 233.3 901.9"
  />
  <path
    id="hair-4"
    fill="none"
    stroke="#ffffff"
    stroke-width="4"
    d="M 192.5 841.1 C 192.5 841.1 153.1 925.6 225.3 950.6"
  />
  <path
    id="hair-3"
    fill="none"
    stroke="#ffffff"
    stroke-width="2"
    d="M 184.8 1006.5 C 181.8 1004.5 140.9 1001 153.1 887.8 C 167.7 751.2 138.5 731.6 138.5 731.6"
  />
  <path
    id="hair-2"
    fill="none"
    stroke="#ffffff"
    stroke-width="2"
    d="M 137.8 431.2 C 137.8 431.2 52.3 671.6 75.5 706.3"
  />
  <path
    id="hair-1"
    fill="none"
    stroke="#ffffff"
    stroke-width="2"
    d="M 32.4 951 C 29.4 951 115.3 807.8 85.7 731.7"
  />
  <path
    id="earing"
    fill="#000000"
    stroke="#000000"
    stroke-width="2"
    d="M 204 533.5 C 211.7 533.2 216.6 522.4 217.2 515.2 C 217.8 507.8 216.4 496.7 204 506.1 C 204 506.1 187.3 497.6 192.8 521.4 C 192.8 521.4 198.5 533.8 204 533.5 Z"
  />
  <path
    id="lips"
    fill="#cdcdcd"
    fill-rule="evenodd"
    stroke="#cdcdcd"
    stroke-width="2"
    d="M 508.8 801.6 C 496 801.6 482.1 798.9 469.1 792.5 C 424.7 769.8 402.4 716.8 405.2 712.8 C 409.9 710.9 477.1 715.6 498 745.5 C 529.1 745.9 547.9 750.5 574.1 765.7 C 558.5 790.1 536 801.7 508.8 801.6 Z"
  />
  <path
    id="mouth"
    fill="none"
    stroke="#000000"
    stroke-width="4"
    d="M 387 696.4 C 387 696.4 392.5 701.5 405.2 712.8 C 420.8 726.6 478.4 760.1 488.7 764.3 C 492.7 765.9 550.6 784.3 574.1 765.7 C 577.4 763 599.4 759.9 599.4 759.9"
  />
  <path
    id="nose"
    fill="none"
    stroke="#000000"
    stroke-width="2"
    d="M 661.8 541.6 C 661.8 541.6 624.3 544 612.2 605.7 C 601.8 658.5 607.3 685.8 607.3 685.8 C 607.3 685.8 615.5 708.4 593.1 712.3 C 570.8 716.1 576.4 713.6 565.8 718.4 C 562.4 720 546.6 727.4 531.2 704.3 C 515.9 681.2 513.1 680.6 493.6 675 C 481.6 671.5 464 633.3 510.7 628.3"
  />
  <path
    id="left-lower-eyelash"
    fill="none"
    stroke="#000000"
    stroke-width="4"
    d="M 524.7 532.8 C 521.7 528.7 508.9 517.5 485.1 514.6"
  />
  <path
    id="left-eyeball"
    fill="#000000"
    fill-rule="evenodd"
    stroke="#000000"
    stroke-width="2"
    d="M 482.9 473.9 C 491.7 485.1 480 499.4 470.9 501.5 C 461.8 503.5 454.7 504.3 440.4 492.4 C 433.3 484.3 432.1 471 444.3 464.1 C 465.7 463.9 478.3 471 482.9 473.9 Z"
  />
  <path
    id="left-upper-eyelash"
    fill="none"
    stroke="#000000"
    stroke-width="8"
    d="M 399.8 469.1 C 399.8 469.1 423.2 464.5 444.3 464.1 C 465.7 463.9 478.3 471 482.9 473.9 C 498.4 483.5 512.9 500.4 524.7 532.8"
  />
  <path
    id="left-eyebrow"
    fill="#000000"
    fill-rule="evenodd"
    stroke="#000000"
    stroke-width="2"
    d="M 399.6 404.2 C 423.5 394.1 455.7 401.3 476.8 405 C 501.3 409.4 571.4 450.5 573.3 457.6 C 574.7 462.7 570.3 479.9 570.3 479.9 C 491.6 402.8 415.9 413.3 415.9 413.3 L 399.6 404.2 Z"
  />
  <path
    id="right-lower-eyelash"
    fill="none"
    stroke="#000000"
    stroke-width="4"
    d="M 671 578.1 C 677.1 581.2 713.9 593 730.1 567.4"
  />
  <path
    id="right-eyeball"
    fill="#000000"
    fill-rule="evenodd"
    stroke="#000000"
    stroke-width="2"
    d="M 700.6 548.6 C 714.6 556.8 696.2 587.3 671 578.1 C 654.3 572.1 653.6 554.5 655.9 551.9 C 667.3 546 682.7 542.3 700.6 548.6 Z"
  />
  <path
    id="right-upper-eyelash-2"
    fill="none"
    stroke="#000000"
    stroke-width="4"
    d="M 743.1 589.1 C 743.1 589.1 726 580.9 730.1 567.4"
  />
  <path
    id="right-upper-eyelash-1"
    fill="none"
    stroke="#000000"
    stroke-width="8"
    d="M 634.4 569 C 634.4 569 642.4 558.9 655.9 551.9 C 667.3 546 682.7 542.3 700.6 548.6 C 709.8 551.9 719.7 557.8 730.1 567.4 C 736.1 573.1 743.6 581.7 746.1 582"
  />
  <path
    id="right-eyebrow"
    fill="#000000"
    fill-rule="evenodd"
    stroke="#000000"
    stroke-width="2"
    d="M 782.2 533.4 C 756.5 512.8 706.9 511.8 692.2 512.1 C 677.4 512.5 677 529.4 677 529.4 C 677 529.4 743.1 521.8 777.5 548.5 C 779.5 543.9 781 538.8 782.2 533.4"
  />
</svg>
