<?xml version="1.0" encoding="UTF-8"?>
<?xml-stylesheet type="text/css" href="../../styles/avatars.css" ?>
<svg viewBox="0 0 1024 1024" xmlns="http://www.w3.org/2000/svg">
  <path
    id="hairline"
    fill="#000000"
    stroke="#000000"
    stroke-width="6"
    d="M 892.3 462.1 C 892.3 462.1 820.6 485 825.4 585.3 C 825.4 585.3 800.3 472.7 807.3 432.3 C 807.3 432.3 769 394.7 753.1 389.8 C 753.1 389.8 767.1 309.3 741.4 279.4 C 715.8 249.5 667.5 187.2 631 190.1 C 594.5 193.1 465.5 228.9 440.8 237.9 C 371 263.6 361 242.9 339.9 242.2 C 117.7 235 188 611.9 188 611.9 C 187 611.9 180.1 596.4 170.6 570.6 C 150.4 515.5 118.7 413.3 116.8 311.2 C 112.5 68.9 382.2 20.5 460 7.4 C 553.1 -8.2 728.2 52.3 820 136 C 911.9 219.7 879.5 368.6 879.5 368.6 C 879.5 368.6 876.7 428.6 892.3 462.1"
  />
  <path
    id="faceline"
    fill="#ffffff"
    fill-rule="evenodd"
    stroke="#000000"
    stroke-width="6"
    d="M 188 611.9 C 188 611.9 195.8 675.6 220 753.4 C 256.5 870.2 329 1006 469.5 1018.7 C 469.5 1018.7 736.1 1035.6 808.4 796.7 C 808.4 796.7 843.1 708.2 838.1 695.8 C 838.1 695.8 885.2 701.1 902.9 611.9 C 922.9 510.9 925.6 450 892.3 462.1 C 892.3 462.1 820.6 485 825.4 585.3 C 825.4 585.3 800.3 472.7 807.3 432.3 C 807.3 432.3 769 394.7 753.1 389.8 C 753.1 389.8 767.1 309.3 741.4 279.4 C 715.8 249.5 667.5 187.2 631 190.1 C 594.5 193.1 465.5 228.9 440.8 237.9 C 371 263.6 361 242.9 339.9 242.2 C 117.7 235 188 611.9 188 611.9 Z"
  />
  <path
    id="hair-3"
    fill="none"
    stroke="#ffffff"
    stroke-width="2"
    d="M 577.9 190.1 C 577.9 190.1 551.4 128.6 584.2 105.2"
  />
  <path
    id="hair-2"
    fill="none"
    stroke="#ffffff"
    stroke-width="2"
    d="M 534.3 199.7 C 534.3 199.7 498.7 145 521.6 111.5"
  />
  <path
    id="hair-1"
    fill="none"
    stroke="#ffffff"
    stroke-width="2"
    d="M 219.9 288.9 C 219.9 288.9 222 44.1 646.9 93.5"
  />
  <path
    id="right-ear-3"
    fill="none"
    stroke="#000000"
    stroke-width="2"
    d="M 855.1 611.9 C 855.1 611.9 899.3 609.4 892.3 544.9"
  />
  <path
    id="right-ear-2"
    fill="none"
    stroke="#000000"
    stroke-width="2"
    d="M 844.2 545.3 C 844.5 544.9 852.4 526.4 882.7 543.9"
  />
  <path
    id="right-ear-1"
    fill="none"
    stroke="#000000"
    stroke-width="4"
    d="M 841.3 563 C 841.3 563 841.2 556 844.2 545.3 C 848.7 528.4 860.6 502.3 891.2 479.1"
  />
  <path
    id="left-ear"
    fill="#ffffff"
    fill-rule="evenodd"
    stroke="#000000"
    stroke-width="6"
    d="M 220 753.4 C 222 764.8 188 756.3 170.6 570.6 C 180.1 596.4 187 611.9 188 611.9 C 188 611.9 195.8 675.6 220 753.4"
  />
  <path
    id="scar"
    fill="none"
    stroke="#e4e4e4"
    stroke-width="4"
    d="M 424.9 439.8 C 424.9 439.8 426.1 364.7 404.7 336.7"
  />
  <path
    id="lips"
    fill="#e0e0e0"
    fill-rule="evenodd"
    d="M 365.4 853 C 365.4 853 439.5 814.1 470.6 831.7 C 470.6 831.7 487.2 808.3 605.5 824.3 C 605.5 824.3 566.5 876 476.9 888 C 415.7 896.3 365.4 853 365.4 853 Z"
  />
  <path
    id="mouth"
    fill="none"
    stroke="#000000"
    stroke-width="4"
    d="M 367.5 854 C 367.5 854 478.8 867.9 603.4 825.4"
  />
  <path
    id="nose-detail-2"
    fill="#e4e4e4"
    stroke="#e4e4e4"
    stroke-width="4"
    d="M 530.1 666 C 530.1 666 501.2 664.1 496.1 680.9"
  />
  <path
    id="nose-detail-1"
    fill="#e4e4e4"
    fill-rule="evenodd"
    d="M 405.8 666 C 405.8 666 396.4 674.6 388.7 685.4 C 388.7 685.4 399.4 675.6 414.3 686.2 C 415.8 687.3 404.2 667.8 405.8 666 Z"
  />
  <path
    id="nose"
    fill="none"
    stroke="#000000"
    stroke-width="4"
    d="M 412.1 583.2 L 405.8 666 C 405.8 666 396.4 674.6 388.7 685.4 C 380 697.7 373.4 712.9 384.5 722.3 C 410.2 743.8 433.5 748.5 458.9 751 C 475.7 752.6 511 721 546 718.1 C 564.9 716.5 546.2 668.4 530.1 666"
  />
  <path
    id="right-eye-bag"
    fill="none"
    stroke="#e4e4e4"
    stroke-width="2"
    d="M 521.6 572.5 C 521.6 572.5 554.4 600.4 646.9 577.9"
  />
  <path
    id="right-lower-eyelash"
    fill="none"
    stroke="#303030"
    stroke-width="4"
    d="M 675.6 530.1 C 675.6 529 638.3 578.5 553.4 558.7"
  />
  <path
    id="right-eyeball"
    fill="#000000"
    fill-rule="evenodd"
    stroke="#000000"
    stroke-width="4"
    d="M 570.1 513.3 C 585.6 506.8 606.6 504 634.3 512 C 635.2 514.1 636.1 551.1 602.3 552.4 C 569.3 553.6 571.5 514.1 570.1 513.3 Z"
  />
  <path
    id="right-upper-eyelash"
    fill="none"
    stroke="#000000"
    stroke-width="6"
    d="M 534.3 544.9 C 534.3 544.9 544.8 524.1 570.1 513.3 C 585.6 506.8 606.6 504 634.3 512 C 646.7 515.6 660.4 521.4 675.6 530.1"
  />
  <path
    id="right-eyebrow"
    fill="#000000"
    fill-rule="evenodd"
    stroke="#000000"
    stroke-width="6"
    d="M 717 486.5 C 736.6 492.8 690.9 451.5 644.8 439.8 C 598.7 428 515.2 469.5 515.2 469.5 C 515.2 469.5 515.7 500.3 523.7 497.1 C 589.3 471 651 465.4 717 486.5 Z"
  />
  <path
    id="left-eye-bag"
    fill="none"
    stroke="#e4e4e4"
    stroke-width="2"
    d="M 291.1 611.9 C 291.1 611.9 351.4 628.9 401.5 589.5"
  />
  <path
    id="left-lower-eyelash"
    fill="none"
    stroke="#303030"
    stroke-width="4"
    d="M 260.2 583.2 C 260.2 583.2 312.9 613.1 383.5 583.2"
  />
  <path
    id="left-eyeball"
    fill="#000000"
    fill-rule="evenodd"
    stroke="#000000"
    stroke-width="4"
    d="M 305 547.3 C 320.4 543.5 340.8 543.1 367.5 549.8 C 366.5 551.3 364.8 585.3 335.7 585.3 C 302.8 585.3 304.9 549.2 305 547.3 Z"
  />
  <path
    id="left-upper-eyelash"
    fill="none"
    stroke="#000000"
    stroke-width="6"
    d="M 260.2 583.2 C 260.2 583.2 269.4 556 305 547.3 C 320.4 543.5 340.8 543.1 367.5 549.8 C 372.6 551.1 377.9 552.7 383.5 554.5"
  />
  <path
    id="left-eyebrow"
    fill="#000000"
    fill-rule="evenodd"
    stroke="#000000"
    stroke-width="6"
    d="M 199.7 537.5 C 206.5 544 195.1 500.4 383.5 512 C 383.5 512 383.1 486 378.2 484.4 C 349 474.6 239 474.4 233.7 480.1 C 227.4 487 189.1 527.5 199.7 537.5 Z"
  />
</svg>
