<?xml version="1.0" encoding="UTF-8"?>
<?xml-stylesheet type="text/css" href="../../main.css" ?>
<svg viewBox="0 0 1024 1024" xmlns="http://www.w3.org/2000/svg">
  <path
    id="hairline"
    fill="#000000"
    stroke="#000000"
    stroke-width="6"
    d="M 908.1 468.7 C 908.1 468.7 885.4 556.4 847.6 575.2 C 847.6 575.2 846.3 498 843.4 494.8 C 843.4 494.8 864.8 487.7 865.3 481.2 C 865.7 477.5 869.6 446.2 839.2 452 C 839.2 452 783.6 299.1 730.7 261 C 677.8 222.8 516.1 135.8 338.2 197.3 C 338.2 197.3 326.5 243.9 257.8 283.9 C 189.2 323.9 198.3 461.4 198.3 461.4 C 198.3 461.4 165.2 465.6 156.6 476 C 148 486.4 170.9 549.6 182.7 549.1 C 182.7 549.1 190.3 613 199.4 622.1 C 135.9 559.4 149.3 443.6 149.3 443.6 C 155.1 293.5 174.8 318.3 181.6 297.5 C 315.5 -109.1 619 26.1 619 26.1 C 884.7 27 922.7 423.8 908.1 468.7"
  />
  <path
    id="faceline"
    fill="#ffffff"
    stroke="#000000"
    stroke-width="6"
    d="M 199.4 622.1 C 208.5 631.3 168.6 841.9 360.1 965.5 C 428.3 1009.6 502.2 1055.8 626.3 973.9 C 715.2 915.2 798.9 904.6 829.8 718.2 C 829.8 718.2 860.1 724.9 875.6 699.3 C 879.8 692.5 882.9 683.3 884.1 671.2 C 884.1 671.2 963.4 487 908.1 468.7 C 908.1 468.7 885.4 556.4 847.6 575.2 C 847.6 575.2 846.3 498 843.4 494.8 C 843.4 494.8 864.8 487.7 865.3 481.2 C 865.7 477.5 869.6 446.2 839.2 452 C 839.2 452 783.6 299.1 730.7 261 C 677.8 222.8 516.1 135.8 338.2 197.3 C 338.2 197.3 326.5 243.9 257.8 283.9 C 189.2 323.9 198.3 461.4 198.3 461.4 C 198.3 461.4 165.2 465.6 156.6 476 C 148 486.4 170.9 549.6 182.7 549.1 C 182.7 549.1 190.3 613 199.4 622.1 Z"
  />
  <path
    id="hair-2"
    fill="none"
    stroke="#ffffff"
    stroke-width="2"
    d="M 526.1 153.4 C 526.1 153.4 531.6 78.2 577.2 53.2"
  />
  <path
    id="hair-1"
    fill="none"
    stroke="#000000"
    stroke-width="6"
    d="M 829.8 718.2 C 829.8 718.2 841.8 665.2 839.2 656.6"
  />
  <path
    id="left-cheek"
    fill="none"
    stroke="#cdcdcd"
    stroke-width="2"
    d="M 252.6 743.2 C 252.6 743.2 259.1 821.1 288.1 847.6"
  />
  <path
    id="right-cheek"
    fill="none"
    stroke="#cdcdcd"
    stroke-width="2"
    d="M 685.8 864.3 C 685.8 864.3 725.6 811.5 709.8 774.5"
  />
  <path
    id="left-ear"
    fill="none"
    stroke="#000000"
    stroke-width="1"
    d="M 840.3 638.8 C 840.3 638.8 855 614.2 874.7 602.3 C 894.5 590.4 897.3 571.9 890.4 545.9"
  />
  <path
    id="right-earing-1"
    fill="#dfdfdf"
    stroke="#000000"
    stroke-width="6"
    d="M 875.6 699.3 C 899.9 745.1 861 752.6 857 752.6 C 831.6 752.7 829.8 719.2 829.8 718.2 C 829.8 718.2 860.1 724.9 875.6 699.3"
  />
  <path
    class="bg-fill"
    id="right-earing-2"
    fill="#ffffff"
    stroke="#000000"
    stroke-width="2"
    d="M 847.6 728.6 C 847.6 735.1 851.5 741.4 862.2 740.1 C 871.1 739 873.1 722.3 865.3 721.3 C 854.9 720 847.6 724.4 847.6 728.6 Z"
  />
  <path
    id="lips"
    fill="#cdcdcd"
    fill-rule="evenodd"
    stroke="none"
    d="M 342.4 778.7 C 342.4 778.7 454.2 746.1 486.4 773.5 C 486.4 773.5 511.1 747.2 632.6 779.7 C 632.6 779.7 601.3 872.2 487.5 864.3 C 367.9 856 342.4 778.7 342.4 778.7 Z"
  />
  <path
    id="teeth"
    fill="#ffffff"
    fill-rule="evenodd"
    stroke="#000000"
    stroke-width="6"
    d="M 363.3 783.9 C 362.2 782.4 366.4 782.2 373.9 782.7 C 396.6 784.2 449.9 792.2 487.5 792.3 C 487.5 792.3 585.4 791.2 608.6 786 C 619.6 783.5 603.7 840.4 484.3 831.9 C 409.1 826.6 389.2 818.1 370.8 794.5 C 368.3 791.2 365.8 787.7 363.3 783.9 Z"
  />
  <path
    id="teeth-fill"
    fill="#000000"
    fill-rule="evenodd"
    stroke="#000000"
    stroke-width="4"
    d="M 363.3 783.9 C 362.2 782.4 366.4 782.2 373.9 782.7 C 372.6 782.9 372 785.7 371.6 788.1 C 371 791.6 370.6 793.3 370.8 794.5 C 368.3 791.2 365.8 787.7 363.3 783.9 Z"
  />
  <path
    id="nose"
    fill="none"
    stroke="#000000"
    stroke-width="2"
    d="M 390.7 675.4 C 390.4 678.5 388.2 715.4 416.5 712.9 C 444.7 710.5 446.3 730.3 470.8 729.6 C 470.8 729.6 494.2 730.6 506.3 717.1 C 513.4 709.1 532.6 707.8 545.9 709.8 C 553.8 711 581.8 703.1 576.5 671.4"
  />
  <path
    id="left-eyebrow"
    fill="#000000"
    fill-rule="evenodd"
    stroke="#000000"
    stroke-width="4"
    d="M 231 461.3 C 235.8 461.1 279.4 421.9 384.1 462.4 C 389.7 464.6 401.6 445.7 390.4 441.5 C 262.4 393.6 225.7 457.5 231 461.3 Z"
  />
  <path
    id="right-glasses-detail-1"
    fill="#dfdfdf"
    fill-rule="evenodd"
    stroke="#dfdfdf"
    stroke-width="6"
    d="M 804.2 512.1 C 796.8 516 803.3 500 801.4 487.3 C 799.6 475.5 788.9 467.2 789.1 465.5 C 791.2 463.5 839.2 452 839.2 452 C 869.6 446.2 865.7 477.5 865.3 481.2 C 864.8 487.7 851.6 492.1 843.4 494.8 C 830 499.2 815.8 505.9 804.2 512.1"
  />
  <path
    id="glasses"
    fill="#6d6d6d"
    fill-rule="evenodd"
    stroke="#6d6d6d"
    stroke-width="6"
    d="M 198.3 461.4 C 198.3 461.4 165.2 465.6 156.6 476 C 148 486.4 170.9 549.6 182.7 549.1 C 182.7 549.1 190.3 613 199.4 622.1 C 199.4 622.1 260.4 718.5 390.7 675.4 C 419.1 666 430.6 640.9 464.5 563.7 C 464.5 563.7 481 548.8 496.9 563.7 C 511.6 577.5 519.4 654.9 576.5 671.4 C 657.7 694.8 774.4 697.2 779.7 526.1 C 779.7 526.1 788.5 520.5 804.2 512.1 C 796.8 516 803.3 500 801.4 487.3 C 799.6 475.5 788.9 467.2 789.1 465.5 C 788.7 468.9 555.9 447.3 516.7 509.4 C 510.1 519.9 455.4 523.1 447.8 508.3 C 427.1 468.2 293.8 461.9 231 461.3 C 211.1 461 198.3 461.4 198.3 461.4 Z"
  />
  <path
    id="left-glass-detail"
    fill="#dfdfdf"
    fill-rule="evenodd"
    stroke="none"
    d="M 180.6 501 C 177.6 513.5 203 513.1 206.7 509.4 C 216.6 499.4 182.6 492.7 180.6 501 Z"
  />
  <path
    id="right-glasses-detail-2"
    fill="#dfdfdf"
    fill-rule="evenodd"
    stroke="none"
    d="M 751.2 500 C 754.3 506.8 786.4 503.8 776.6 491.6 C 772.8 487 746.5 489.7 751.2 500 Z"
  />
  <path
    id="left-lens"
    fill="#ffffff"
    fill-rule="evenodd"
    stroke="#6d6d6d"
    stroke-width="4"
    d="M 211.9 518.8 C 207.4 582.1 213.9 694.4 370.6 661.8 C 414.7 652.6 441.1 585.6 437.4 530.3 C 434.6 489.2 216 461.5 211.9 518.8 Z"
  />
  <path
    id="right-lens"
    fill="#ffffff"
    fill-rule="evenodd"
    stroke="#6d6d6d"
    stroke-width="4"
    d="M 526.1 533.4 C 524.4 609.5 564.3 669.6 653.4 668.1 C 754.5 666.3 772.7 545.4 742.2 507.3 C 707.7 464.3 527.1 487.1 526.1 533.4 Z"
  />
  <path
    id="right-eyeball"
    fill="#000000"
    fill-rule="evenodd"
    stroke="#000000"
    stroke-width="4"
    d="M 610.7 507.9 C 628.1 497.5 643.6 496.2 671.1 501.6 C 671 503 677 544.5 643 543.8 C 608.1 543.2 611.8 509 610.7 507.9 Z"
  />
  <path
    id="right-eyelash"
    fill="none"
    stroke="#000000"
    stroke-width="6"
    d="M 583.5 535.5 C 583.5 535.5 597.6 515.7 610.7 507.9 C 628.1 497.5 643.6 496.2 671.1 501.6 C 672.3 501.9 693.1 507.3 703.5 511.5"
  />
  <path
    id="right-eyebrow"
    fill="#000000"
    fill-rule="evenodd"
    stroke="#000000"
    stroke-width="4"
    d="M 551.1 444.7 C 554.8 429.4 710.9 384.9 739 434.2 C 742.7 440.7 674.8 407.9 564.7 459.3 C 558 462.4 548.7 455 551.1 444.7 Z"
  />
  <path
    id="left-eyeball"
    fill="#000000"
    fill-rule="evenodd"
    stroke="#000000"
    stroke-width="4"
    d="M 318.6 504.9 C 338.8 503.5 357.4 506.3 377.7 519.2 C 377 530 363.5 553.4 341.3 549.1 C 325.8 546 315.2 533.4 318.6 504.9 Z"
  />
  <path
    id="left-eyelash"
    fill="none"
    stroke="#000000"
    stroke-width="6"
    d="M 280.8 524 C 280.8 524 302.9 506 318.6 504.9 C 338.8 503.5 357.4 506.3 377.7 519.2 C 384.4 523.5 391.5 528.9 398.7 535.5"
  />
</svg>
