<?xml version="1.0" encoding="UTF-8"?>
<?xml-stylesheet type="text/css" href="../../styles/avatars.css" ?>
<svg viewBox="0 0 1024 1024" xmlns="http://www.w3.org/2000/svg">
  <path
    id="hairline"
    fill="#000000"
    stroke="#000000"
    stroke-width="6"
    d="M 820.9 594.1 C 825.3 524.7 820.9 370.5 820.9 370.5 C 821.9 340.2 713.8 240.5 624.3 298.1 C 618.4 301.9 612.3 305.4 606.1 308.8 C 595.6 314.8 571.9 314.7 563.1 307.7 C 527.8 279.5 467.7 277 439.8 263.8 C 423.8 256.3 422.8 268 412.7 278.5 C 395.7 296.2 374.8 282.5 354.9 284.6 C 342.3 285.9 296.5 319.5 295.8 337.9 C 295.8 337.9 243.2 453.9 236.6 507.7 C 236.6 507.7 185.9 460.9 177.1 463.4 C 176.7 304.8 213.9 245.2 213.9 245.2 C 217.1 152.6 279.8 145.8 279.8 145.8 C 299.6 67.3 385.6 58.3 385.6 58.3 C 405.9 29 454.8 28.1 454.8 28.1 C 582.9 -37.1 565.8 54.3 606 34.6 C 646.2 14.8 676.5 60.3 688.1 61.6 C 699.6 62.8 764 81.4 772.3 99.4 C 780.6 117.4 820.9 143.7 820.9 143.7 C 833.5 150.7 824.4 185.7 850.1 199.8 C 875.8 214 865.5 247.8 879.3 310 C 893 372.2 863.1 431 863.1 431 C 871.1 438.7 849.5 494.3 841.3 559.9 C 839.1 577.5 846.9 596.3 847.9 608.1 C 847.2 608 820.8 596.5 820.9 594.1"
  />
  <path
    id="faceline"
    fill="#ffffff"
    stroke="#000000"
    stroke-width="6"
    d="M 820.9 594.1 C 825.3 524.7 820.9 370.5 820.9 370.5 C 821.9 340.2 713.8 240.5 624.3 298.1 C 618.4 301.9 612.3 305.4 606.1 308.8 C 595.6 314.8 571.9 314.7 563.1 307.7 C 527.8 279.5 467.7 277 439.8 263.8 C 423.8 256.3 422.8 268 412.7 278.5 C 395.7 296.2 374.8 282.5 354.9 284.6 C 342.3 285.9 296.5 319.5 295.8 337.9 C 295.8 337.9 243.2 453.9 236.6 507.7 C 236.6 507.7 185.9 460.9 177.1 463.4 C 168.4 465.9 126.2 474.6 136.1 554.1 C 144.3 619.9 171.9 748 216 714 C 216 714 265 938.8 411.5 997 C 535.7 1046.3 650.1 1013.9 714 916 C 749.9 860.9 782.6 760.7 786.2 748.1 C 797 710.1 807.7 663.4 818.7 603.5 C 818.8 603.8 840.5 612.7 849 615.7 C 849 615.7 849 613.5 847.9 608.1 C 847.2 608 820.8 596.5 820.9 594.1 Z"
  />
  <path
    id="left-sideburn"
    fill="#000000"
    stroke="#000000"
    stroke-width="6"
    d="M 196.3 486.2 C 206.1 496 218.3 508.1 230.6 519.6 C 225.9 602.9 223.5 637.8 211.7 627.6 C 203 620 209.9 546.7 196.3 486.2 Z"
  />
  <path
    id="right-ear-2"
    fill="none"
    stroke="#000000"
    stroke-width="2"
    d="M 817.7 685.9 C 817.3 680.7 844.7 632.7 830.6 627.6"
  />
  <path
    id="right-ear-1"
    fill="#ffffff"
    stroke="#000000"
    stroke-width="6"
    d="M 786.2 748.1 C 786.4 748.6 797.2 769 808 738.8 C 826.2 687.9 895.5 583.9 873.9 553 C 873.9 553 863.8 537.9 841.3 559.9"
  />
  <path
    id="left-ear-2"
    fill="none"
    stroke="#000000"
    stroke-width="4"
    d="M 190.1 591.9 C 190.4 588.4 186.2 571.6 179.6 555.8 C 175.3 545.7 170 536 164.2 530.4"
  />
  <path
    id="left-ear-1"
    fill="none"
    stroke="#000000"
    stroke-width="2"
    d="M 179.6 555.8 C 154.7 573.7 176.5 621.9 176.1 636.2"
  />
  <path
    id="lower-lip"
    fill="none"
    stroke="#000000"
    stroke-width="4"
    d="M 464.5 886.8 C 464.5 886.8 493 908.6 577.9 898.7"
  />
  <path
    id="mouth"
    fill="none"
    stroke="#000000"
    stroke-width="6"
    d="M 410.5 833.9 C 410.5 833.9 483.6 873.6 643.8 856.6"
  />
  <path
    id="right-nose-hole"
    fill="#000000"
    stroke="#000000"
    stroke-width="4"
    d="M 570 774.3 C 579.1 766 590 768.1 597.6 769.7 C 588 773 579 774 570 774.3"
  />
  <path
    id="left-nose-hole"
    fill="#000000"
    stroke="#000000"
    stroke-width="4"
    d="M 476.8 758.7 C 485.7 758.2 498.7 757.5 505 766 C 495 765 486 763 476.8 758.7"
  />
  <path
    id="nose"
    fill="none"
    stroke="#000000"
    stroke-width="4"
    d="M 490.7 651 C 491.5 653.5 486.5 702.2 488.2 705 C 490 707.8 448.3 721.6 467.7 758 C 468.4 759.2 472 759 476.8 758.7 C 485.7 758.2 498.7 757.5 505 766 C 505.6 766.8 506.1 767.7 506.6 768.8 C 513.2 783 559.6 786.7 567.1 777.4 C 568 776.2 569 775.2 570 774.3 C 579.1 766 590 768.1 597.6 769.7 C 602.9 770.9 606.7 771.8 607.1 768.8 C 609.6 750.1 608.4 726.4 590.6 713.8 C 588.5 712.3 591.8 659.5 588.5 634.1"
  />
  <path
    id="glasses"
    fill="none"
    stroke="#000000"
    stroke-width="6"
    d="M 177.1 463.4 C 176.1 465.6 184.3 474.2 196.3 486.2 C 206.1 496 218.3 508.1 230.6 519.6 C 249.6 537.4 268.7 553.9 278.7 558.4 C 278.7 558.4 269.3 632.4 319.7 648.1 C 360.8 660.8 444.9 684.5 490.7 651 C 511.3 635.9 524.1 609.3 521.7 564.9 C 521.7 564.9 558.6 550.7 595.2 574.6 C 595.2 574.6 541.9 694.4 754 688.1 C 754 688.1 798.9 696.6 818.7 603.5 C 818.8 603.8 840.5 612.7 849 615.7 C 849 615.7 849 613.5 847.9 608.1 C 847.2 608 820.8 596.5 820.9 594.1 C 818.2 585.1 812.9 570.5 801.9 562.6 C 768.4 538.7 699.4 514.1 620 537.9 C 620 537.9 607.9 542.1 597.3 568.2 C 597.3 568.2 568.1 549.3 521.7 558.4 C 521.7 558.4 517.2 531 506.6 525 C 497.2 519.7 318.4 453 280.8 537.9 C 280.8 537.9 241 513.7 236.6 507.7"
  />
  <path
    id="glasses-join"
    fill="none"
    stroke="#000000"
    stroke-width="4"
    d="M 506.6 525 C 506.6 523.9 595.5 531.7 620 537.9"
  />
  <path
    id="right-eyeball"
    fill="#000000"
    stroke="#000000"
    stroke-width="6"
    d="M 661.9 587.2 C 674.5 581.9 692.8 578.6 715 587 C 715.1 588.7 713.2 616.4 688.1 616.8 C 662.5 617.1 661.1 587.6 661.9 587.2 Z"
  />
  <path
    id="right-eyelash"
    fill="none"
    stroke="#000000"
    stroke-width="6"
    d="M 642.7 599.5 C 642.7 599.5 649.6 592.4 661.9 587.2 C 674.5 581.9 692.8 578.6 715 587 C 722.9 589.9 731.2 594.3 739.9 600.6"
  />
  <path
    id="right-eyebrow"
    fill="#000000"
    stroke="#000000"
    stroke-width="6"
    d="M 636.2 554.1 C 636.2 554.1 631.4 535.5 635.1 530.4 C 638.9 525.3 743.9 514.2 787.4 544.4 C 787.4 544.4 787.7 573.9 784.2 572.5 C 721.1 546.3 636.2 554.1 636.2 554.1 Z"
  />
  <path
    id="left-eyeball"
    fill="#000000"
    stroke="#000000"
    stroke-width="6"
    d="M 365 556.3 C 380 553.3 399.3 552.4 420 561.5 C 422.3 562.8 418.2 595.3 391 591.9 C 363.2 588.5 366.2 556.3 365 556.3 Z"
  />
  <path
    id="left-eyelash"
    fill="none"
    stroke="#000000"
    stroke-width="6"
    d="M 339.2 570.3 C 339.2 570.3 346.7 561.5 365 557 C 380 553.3 399.3 552.4 420 561.5 C 431.6 566.7 440.5 574.9 452.6 587.6"
  />
  <path
    id="left-eyebrow"
    fill="#000000"
    stroke="#000000"
    stroke-width="6"
    d="M 319.7 493.6 C 315.3 494.4 313.6 507.2 318.9 523.9 C 318.9 523.9 404.3 523.1 474.2 539 C 474.2 539 481.2 516 477.4 506.6 C 477.4 506.6 400.7 480.2 319.7 493.6 Z"
  />
</svg>
