<?xml version="1.0" encoding="UTF-8"?>
<?xml-stylesheet type="text/css" href="../../main.css" ?>
<svg viewBox="0 0 1024 1024" xmlns="http://www.w3.org/2000/svg">
  <path
    id="hairline"
    fill="#000000"
    fill-rule="evenodd"
    stroke="#000000"
    stroke-width="6"
    d="M 609.3 668.2 C 609.3 633.4 649.4 551.9 644.1 521.2 C 638.8 490.5 523.5 472 501.5 398.6 C 496.5 381.9 494.2 361.5 493.3 340.9 C 492.8 331.6 492.7 322.4 492.7 313.3 C 492.7 281.3 494.5 252.5 492.8 240.3 C 483.7 175.2 354.6 115.3 310.2 178.6 C 310.2 178.6 226.7 128.2 198.9 237.7 C 186.7 285.3 175.6 319.6 168.9 350.7 C 166.6 361.1 164.8 370.7 163.7 379.8 C 160.3 406 162 427.2 171.9 446.4 C 180.4 463 161.5 529.9 161.5 529.9 L 161.5 529.9 C 161.5 529.9 156.6 633.8 247.6 716.9 C 261.2 729.3 257.2 747.6 296.3 798.6 C 316.5 825.1 357.5 829.4 395.5 822.3 C 395.5 822.3 451.5 938 413.7 982.1 C 375.8 1026.2 326 1007.1 312.8 1005.6 C 299.5 1004.1 298.8 1019.7 288.4 1018.6 C 288.4 1018.6 224.7 1028.4 218 969.1 C 211.3 909.7 142.7 830.3 142.3 803.8 C 142.2 796.7 143.6 786.5 145.5 775.1 C 148.2 759.7 152.1 741.9 155.3 726 C 158.6 710.1 160.2 680.2 157.7 674.6 C 152.4 662.2 141.9 644.5 131.4 622.2 C 116.7 591.1 101.9 550.9 100.6 502.9 C 97.8 405.1 108.5 320.1 133.6 236.8 C 144.7 200.1 181.1 93.3 254.5 42.9 C 290.4 18.2 337.3 25.8 346.7 21.2 C 360 14.6 507.3 -45.8 645 113.3 C 782.7 272.4 797.3 404.3 789.3 416.8 C 789.3 416.8 852.6 463.2 866.7 527.3 C 882.1 596.9 902.5 693.8 879.8 719.5 C 879.8 719.5 917.6 792.4 868.5 839.5 C 868.5 839.5 864.9 857.6 862.6 862.6 C 860.5 867.5 857.4 876.2 844.1 876.6 C 844.1 876.6 826.5 916.5 809.3 920.4 C 792.2 924.2 767.3 956.3 778 966.5 C 788.8 976.7 713.9 1012.4 685 958.6 C 656 904.8 674.6 886.5 674.6 886.5 C 674.6 886.5 603.3 873.8 604.1 807.3 C 604.9 740.8 609.3 668.2 609.3 668.2 Z"
  />
  <path
    id="faceline"
    fill="#ffffff"
    fill-rule="evenodd"
    stroke="#000000"
    stroke-width="6"
    d="M 161.5 529.9 C 161.5 529.9 156.6 633.8 247.6 716.9 C 261.2 729.3 257.2 747.6 296.3 798.6 C 316.5 825.1 357.5 829.4 395.5 822.3 C 420.8 817.5 444.9 807.7 460.6 796 C 460.6 796 609.4 703 609.3 668.2 C 609.3 633.4 649.4 551.9 644.1 521.2 C 638.8 490.5 523.5 472 501.5 398.6 C 496.5 381.9 494.2 361.5 493.3 340.9 C 492.8 331.6 492.7 322.4 492.7 313.3 C 492.7 281.3 494.5 252.5 492.8 240.3 C 483.7 175.2 354.6 115.3 310.2 178.6 C 310.2 178.6 226.7 128.2 198.9 237.7 C 186.7 285.3 175.6 319.6 168.9 350.7 C 166.6 361.1 164.8 370.7 163.7 379.8 C 160.3 406 162 427.2 171.9 446.4 C 180.4 463 161.5 529.9 161.5 529.9 Z"
  />
  <path
    id="hair-8"
    fill="none"
    stroke="#ffffff"
    stroke-width="2"
    d="M 798.7 524.7 C 798.7 524.7 856.4 650.4 849.4 726.6"
  />
  <path
    id="hair-7"
    fill="none"
    stroke="#ffffff"
    stroke-width="4"
    d="M 781.4 858.6 C 781.4 858.6 762 849.5 798.7 737.8"
  />
  <path
    id="hair-6"
    fill="none"
    stroke="#ffffff"
    stroke-width="2"
    d="M 680 257.8 C 680 257.8 770.3 402 750 473.9 C 729.2 547.2 680 552.1 680 552.1"
  />
  <path
    id="hair-5"
    fill="none"
    stroke="#ffffff"
    stroke-width="2"
    d="M 673.8 689.2 C 673.8 689.2 616.3 794.9 688 851.6"
  />
  <path
    id="hair-4"
    fill="none"
    stroke="#ffffff"
    stroke-width="4"
    d="M 402.9 956 C 402.9 956 415.3 925.5 401.9 904.2"
  />
  <path
    id="hair-3"
    fill="none"
    stroke="#ffffff"
    stroke-width="2"
    d="M 313.6 151.2 C 313.6 151.2 324.4 67.9 346.1 47.7"
  />
  <path
    id="hair-2"
    class="outside-hair"
    fill="none"
    stroke="#000000"
    stroke-width="8"
    d="M 157.7 674.6 C 156.3 673.9 133.3 717 145.5 775.1"
  />
  <path
    id="hair-1"
    class="outside-hair"
    fill="none"
    stroke="#000000"
    stroke-width="8"
    d="M 131.4 622.2 C 130.9 619.1 109.6 684.6 155.3 726"
  />
  <path
    id="lips"
    fill="#cdcdcd"
    fill-rule="evenodd"
    stroke="none"
    d="M 484.1 612.5 C 486 613.1 461 674.1 386.7 690.8 C 315.7 706.7 292.8 683.8 292.8 683.8 C 266 657.9 281.5 637.7 281.5 637.7 C 281.5 637.7 268 640.2 267.6 638.6 C 267.1 637 260.3 637.8 256.3 627.3 C 252.2 616.8 295.8 606.1 345 612.5 C 345 612.5 405 588.8 484.1 612.5 Z"
  />
  <path
    id="teeth"
    fill="#ffffff"
    fill-rule="evenodd"
    stroke="#000000"
    stroke-width="2"
    d="M 293.6 636 C 314.2 634 339.5 633.4 347.6 634.3 C 347.6 634.3 376.2 619.7 465 619.5 C 465 619.5 441.6 657.2 351.9 668.2 C 291.7 675.5 293.6 636 293.6 636"
  />
  <path
    id="right-cheek"
    fill="none"
    stroke="#cdcdcd"
    stroke-width="1"
    d="M 429.3 535.8 C 429.3 535.8 511.8 582.3 506.4 643.4"
  />
  <path
    id="nose"
    fill="none"
    stroke="#000000"
    stroke-width="2"
    d="M 292.8 441.2 C 292.8 441.2 281.2 517.9 266.7 531.6 C 255.1 542.6 264 566.8 283.2 560.3 C 283.2 560.3 311.7 580 331 562.9 C 350.4 545.9 369.6 550 374.5 549 C 380.4 547.8 398.5 536.8 375.4 507.3"
  />
  <path
    id="scar"
    fill="#e4e4e4"
    fill-rule="evenodd"
    stroke="none"
    d="M 296.3 397.8 C 312.9 401.5 332.8 395.4 346.1 386.7 C 352.5 382.5 283.9 395 296.3 397.8 Z"
  />
  <path
    id="right-eyeball"
    fill="#000000"
    fill-rule="evenodd"
    stroke="#000000"
    stroke-width="4"
    d="M 436.9 394.2 C 450.1 390.6 467.2 390 488.7 396.6 C 489.3 396.8 488.3 420 462.4 419.6 C 437.9 419.2 437.1 395.1 436.9 394.2 Z"
  />
  <path
    id="right-eyeball-detail"
    fill="#ffffff"
    fill-rule="evenodd"
    stroke="none"
    d="M 477 400.9 C 477 398.6 474.9 396.8 472.4 396.8 C 469.9 396.8 467.9 398.6 467.9 400.9 C 467.9 403.1 469.9 404.9 472.4 404.9 C 474.9 404.9 477 403.1 477 400.9 Z"
  />
  <path
    id="right-eyelash"
    fill="none"
    stroke="#000000"
    stroke-width="8"
    d="M 401.5 417.7 C 401.5 417.7 412.4 400.8 436.9 394.2 C 450.1 390.6 467.2 390 488.7 396.6 C 492.8 397.9 494 398 501.5 398.6"
  />
  <path
    id="right-eyelid"
    fill="none"
    stroke="#cdcdcd"
    stroke-width="2"
    d="M 401.9 397.8 C 401.9 397.8 435.8 361 488.2 384.6"
  />
  <path
    id="right-eyebrow"
    fill="#000000"
    fill-rule="evenodd"
    stroke="#000000"
    stroke-width="4"
    d="M 492.8 314.2 C 492.8 314.2 366.2 321.9 364.1 342.9 C 362.2 361.5 384.1 356 384.1 356 C 384.1 356 469.9 327.2 491.9 338.6 C 492.8 331.6 492.7 322.4 492.7 313.3"
  />
  <path
    id="left-lower-eyelash"
    fill="none"
    stroke="#000000"
    stroke-width="4"
    d="M 171.9 446.4 C 172 447 183.9 453.8 195.9 452.6"
  />
  <path
    id="left-eyeball"
    fill="#000000"
    fill-rule="evenodd"
    stroke="#000000"
    stroke-width="4"
    d="M 206.7 420.9 C 219.5 416.9 236.2 416.1 257 422.9 C 256.3 422.9 255.9 447.5 228.4 446.4 C 205.1 445.5 206.7 421.2 206.7 420.9 Z"
  />
  <path
    id="left-eyeball-detail"
    fill="#ffffff"
    fill-rule="evenodd"
    stroke="none"
    d="M 241.5 428.3 C 241.5 426 239.5 424.2 237 424.2 C 234.4 424.2 232.4 426 232.4 428.3 C 232.4 430.5 234.4 432.3 237 432.3 C 239.5 432.3 241.5 430.5 241.5 428.3 Z"
  />
  <path
    id="left-upper-eyelash"
    fill="none"
    stroke="#000000"
    stroke-width="8"
    d="M 171.9 446.4 C 171.9 446.4 182.6 428.2 206.7 420.9 C 219.5 416.9 236.2 416.1 257 422.9 C 260.2 423.9 263.4 425.1 266.7 426.4"
  />
  <path
    id="left-eyelid"
    fill="none"
    stroke="#cdcdcd"
    stroke-width="2"
    d="M 175.6 418.1 C 175.6 418.1 210.6 390.2 263.9 410"
  />
  <path
    id="left-eyebrow"
    fill="#000000"
    fill-rule="evenodd"
    stroke="#000000"
    stroke-width="4"
    d="M 168.9 350.7 C 166.6 361.1 164.8 370.7 163.7 379.8 C 188.2 361.7 271 391.8 260.6 374.2 C 250.2 356.7 244.4 358.1 232.8 354.2 C 212.7 347.5 169.3 351.6 168.9 350.7"
  />
</svg>
