<?xml version="1.0" encoding="UTF-8"?>
<?xml-stylesheet type="text/css" href="../../styles/avatars.css" ?>
<svg viewBox="0 0 1024 1024" xmlns="http://www.w3.org/2000/svg">
  <path
    id="hairline"
    fill="#000000"
    stroke="#000000"
    stroke-width="6"
    d="M 840.1 621.6 C 840.1 621.6 867.4 451.6 813.7 406 C 813.7 406 783.1 365.9 790 358.7 C 790 358.7 772.6 438.5 797.9 450.7 C 823.2 463 689.4 390.6 624.1 406 C 624.1 406 710.9 312.7 663.6 250.9 C 663.6 250.9 607 318.9 497.8 363.1 C 470.2 374.3 439.2 384 404.8 390.7 C 348.8 401.6 283.9 404.5 210.6 392.9 C 210.6 392.9 188.3 491.9 186.9 537.5 C 186.7 541.3 178.3 506 147.3 509 C 152.7 484.5 84.1 393.1 84.1 393.1 C 55.4 366.8 136.9 183.3 279 74.5 C 421.2 -34.3 568.8 16.6 568.8 16.6 C 742.6 19.5 771.6 121.9 771.6 121.9 C 902.7 265.3 881.1 221.2 932.2 361.5 C 968 459.8 911.1 544.3 873.8 586.2 C 857.7 604.2 845.3 614.3 840.1 621.6"
  />
  <path
    id="faceline"
    fill="#ffffff"
    stroke="#000000"
    stroke-width="6"
    d="M 192.4 719.6 C 201 774.8 229.6 855.1 297.4 940.4 C 364 1024.1 575.4 1054.2 668.2 965.4 C 734.2 902.2 790.8 853.5 818.6 763.9 C 831.1 723.7 838.6 677.4 840.1 621.6 C 840.1 621.6 867.4 451.6 813.7 406 C 813.7 406 783.1 365.9 790 358.7 C 790 358.7 772.6 438.5 797.9 450.7 C 823.2 463 689.4 390.6 624.1 406 C 624.1 406 710.9 312.7 663.6 250.9 C 663.6 250.9 607 318.9 497.8 363.1 C 470.2 374.3 439.2 384 404.8 390.7 C 348.8 401.6 283.9 404.5 210.6 392.9 C 210.6 392.9 188.3 491.9 186.9 537.5 C 186.7 541.3 178.3 506 147.3 509 C 131.5 510.5 125.3 513.2 123.6 540.1 C 107.3 800 188.8 695.7 192.4 719.6 Z"
  />
  <path
    id="right-ear"
    fill="#ffffff"
    stroke="#000000"
    stroke-width="6"
    d="M 818.6 763.9 C 831.1 723.7 838.6 677.4 840.1 621.6 C 845.3 614.3 857.7 604.2 873.8 586.2 C 877.1 763.2 824.3 764.4 818.6 763.9"
  />
  <path
    id="lips"
    fill="#cdcdcd"
    fill-rule="evenodd"
    stroke="#cdcdcd"
    stroke-width="2"
    d="M 360.9 789.8 C 362.4 814.9 384 874.1 516.8 877.5 C 652.3 881 661.5 809.2 661.5 806.6 C 661.5 796 650.8 784.3 644.3 781.2 C 616.2 764.4 567.9 743.8 526.6 769.7 C 526.6 769.7 469.7 725.3 375.8 769.8 C 370.9 772.2 360 776 360.9 789.8 Z"
  />
  <path
    id="smile-fill"
    fill="#000000"
    fill-rule="evenodd"
    stroke="#000000"
    stroke-width="2"
    d="M 644.3 781.2 C 642.5 782.9 560.8 789.4 518.7 787.5 C 471.1 785.4 376.5 769.7 375.8 769.8 C 370.9 772.2 360 776 360.9 789.8 C 363.3 798.7 391.6 839.1 513.5 844 C 635.3 848.9 655.2 823.1 661.5 806.6 C 661.5 796 650.8 784.3 644.3 781.2"
  />
  <path
    id="teeth"
    fill="#ffffff"
    fill-rule="evenodd"
    stroke="#ffffff"
    stroke-width="2"
    d="M 376.5 777.6 C 376.5 777.6 436.6 796.2 513.4 798.1 C 515.3 798.2 518.5 803.4 520.3 803.5 C 522.4 803.5 524.1 798.3 526.1 798.4 C 586.3 799.6 630.5 798.5 647.8 796 C 647.8 796 642.9 817.3 639.9 819.7 C 635.3 823.4 518.1 846.8 439.7 825 C 437.6 824.4 391.6 808.8 376.5 798.7 Z"
  />
  <path
    id="right-septum"
    fill="#000000"
    fill-rule="evenodd"
    stroke="#000000"
    stroke-width="2"
    d="M 579.3 680.2 L 579.3 677.5 C 575.4 678.7 571.2 682.7 570.1 683.3 C 568.8 688.1 570.3 698.2 568.8 696 C 567.3 693.7 556.7 696 555.6 703.9 C 554.6 710.5 568.1 712.9 576.7 711.8 C 585.2 710.7 579.3 693.3 579.3 693.3 L 579.3 680.2"
  />
  <path
    id="left-septum"
    fill="#000000"
    fill-rule="evenodd"
    stroke="#000000"
    stroke-width="2"
    d="M 502.3 672.5 C 502.5 680.3 502.7 688.1 502.9 696 C 502.9 696 495.8 704.5 508.2 709.1 C 520.6 713.8 526.5 708.1 526.6 703.9 C 526.6 703.9 526.6 693.3 513.5 693.3 C 510.8 693.3 508.2 672.3 508.2 672.3 L 502.3 672.5 Z"
  />
  <path
    id="nose"
    fill="none"
    stroke="#000000"
    stroke-width="4"
    d="M 589.8 503.7 C 589.8 503.7 570.7 583.7 608.3 624.9 C 645.8 666 622.8 685 616.2 685.4 C 612 685.7 592.9 673.4 579.3 677.5 C 575.4 678.7 571.2 682.7 570.1 683.3 C 554.3 692.7 534.7 705.7 508.2 672.3 C 508.2 672.3 505.9 672.3 502.3 672.5 C 493.2 673 475.8 674.4 468.7 677.5 C 465 679.1 422.6 661.8 458.1 622.2"
  />
  <path
    id="right-lower-eyelash"
    fill="none"
    stroke="#000000"
    stroke-width="4"
    d="M 629.3 509 C 629.3 509 665.2 512.9 668.9 516.9"
  />
  <path
    id="right-eye"
    fill="none"
    stroke="#000000"
    stroke-width="12"
    d="M 629.3 503.7 C 629.3 503.7 718.1 489.2 771.6 514.3"
  />
  <path
    id="right-upper-eyelash"
    fill="none"
    stroke="#000000"
    stroke-width="4"
    d="M 629.3 503.7 C 629.3 501.1 663.2 488.3 668.9 493.2"
  />
  <path
    id="left-lower-eyelash"
    fill="none"
    stroke="#000000"
    stroke-width="4"
    d="M 402.8 495.8 C 402.8 495.8 426.3 490.3 445 498.5"
  />
  <path
    id="left-eye"
    fill="none"
    stroke="#000000"
    stroke-width="12"
    d="M 315.9 472.1 C 315.9 472.1 384.1 459.6 450.2 490.6"
  />
  <path
    id="left-upper-eyelash"
    fill="none"
    stroke="#000000"
    stroke-width="4"
    d="M 410.7 466.9 C 410.7 466.9 440.9 472.1 450.2 490.6"
  />
  <path
    id="left-eyebrow"
    fill="#000000"
    fill-rule="evenodd"
    stroke="#000000"
    stroke-width="6"
    d="M 404.8 390.7 C 413.4 395.8 484.5 403.7 489.7 403.7 C 495 401 497.7 372.1 497.8 363.1 C 470.2 374.3 439.2 384 404.8 390.7 Z"
  />
</svg>
