<?xml version="1.0" encoding="UTF-8"?>
<?xml-stylesheet type="text/css" href="../../styles/avatars.css" ?>
<svg viewBox="0 0 1024 1024" xmlns="http://www.w3.org/2000/svg">
  <path
    id="hairline"
    fill="#000000"
    stroke="#000000"
    stroke-width="6"
    d="M 688.8 788.8 C 717.1 738.4 733.8 667.3 728.5 599.1 C 728.5 599.1 767 632.6 790.7 571.4 C 814.5 510.3 850.9 410.8 787.8 387.1 C 787.8 387.1 765.2 373.3 716.6 454.7 C 716.6 454.7 480.9 27.7 322.2 212 C 322.2 212 256.4 251.7 209.5 239.7 C 209.5 239.7 123.2 360.7 171 586.8 C 185 653 202.4 716.6 231.5 776.5 C 243.3 800.9 279.9 863.4 331.6 905.9 C 307.4 965.2 254.9 998.7 191.7 1013.5 C 169.5 1018.7 146.1 1021.5 122.1 1022.1 C 103.1 1022.7 104.6 1022.1 85 1019.9 C -22.1 1008.9 108.7 823.3 108.7 823.3 C 81.7 831.3 -10.8 820.3 4.9 798.8 C 44.1 745.3 58.3 696.5 60.4 655.6 C 64.2 579.7 25.7 531.5 25.7 531.5 C 12.3 437.8 73.1 387.1 84.1 285.1 C 90 230.5 117 171.2 156.2 126 C 288.1 -25.7 357.8 33.9 357.8 33.9 C 504.3 -63.5 657.3 92.2 657.3 92.2 C 874.4 112.5 856 304.2 856 304.2 C 907.9 358.9 891.9 434.4 903.4 500.8 C 920 597.2 993 780 1007.2 826.4 C 1030.3 902.3 1019.1 978.1 891.6 924.7 C 872 916.4 944 989.5 950.9 997.2 C 964.2 1012.9 929.2 1013.5 893.9 1007.3 C 877.3 1004.6 783.6 949.9 768.2 936.4 C 732.3 904.7 708.9 874.9 688.8 788.8"
  />
  <path
    id="faceline"
    fill="#ffffff"
    stroke="#000000"
    stroke-width="6"
    d="M 688.8 788.8 C 717.1 738.4 733.8 667.3 728.5 599.1 C 728.5 599.1 767 632.6 790.7 571.4 C 814.5 510.3 850.9 410.8 787.8 387.1 C 787.8 387.1 765.2 373.3 716.6 454.7 C 716.6 454.7 480.9 27.7 322.2 212 C 322.2 212 256.4 251.7 209.5 239.7 C 209.5 239.7 123.2 360.7 171 586.8 C 185 653 202.4 716.6 231.5 776.5 C 243.3 800.9 279.9 863.4 331.6 905.9 C 375.5 942 423.1 959.8 455.9 957.9 C 558.9 951.7 652.4 853.5 688.8 788.8 Z"
  />
  <path
    id="hair-7"
    fill="none"
    stroke="#ffffff"
    stroke-width="4"
    d="M 1007.2 826.4 C 882.1 735.8 832.3 513.1 832.3 513.1"
  />
  <path
    id="hair-6"
    fill="none"
    stroke="#ffffff"
    stroke-width="2"
    d="M 817.4 589.9 C 817.4 589.9 814.7 695.4 844.1 728.1"
  />
  <path
    id="hair-5"
    fill="none"
    stroke="#ffffff"
    stroke-width="2"
    d="M 817.4 291.9 C 817.4 291.9 810.4 197 728.5 162.9"
  />
  <path
    id="hair-4"
    fill="none"
    stroke="#ffffff"
    stroke-width="2"
    d="M 340 132.2 C 340 132.2 470.9 24.8 574.3 104.5"
  />
  <path
    id="hair-3"
    fill="none"
    stroke="#ffffff"
    stroke-width="2"
    d="M 325.2 162.9 C 325.2 162.9 281 73.8 221.4 113.7"
  />
  <path
    id="hair-2"
    fill="none"
    stroke="#ffffff"
    stroke-width="2"
    d="M 123.5 212 C 123.5 212 229.9 100.1 292.6 162.9"
  />
  <path
    id="hair-1"
    fill="none"
    stroke="#ffffff"
    stroke-width="4"
    d="M 58.3 654.4 C 58.3 654.4 187.9 824.6 153.2 887.8 C 118.5 951.1 113.8 1019.6 122.1 1022.1"
  />
  <path
    id="right-ear"
    fill="none"
    stroke="#000000"
    stroke-width="2"
    d="M 749.2 531.5 C 751.3 527.8 785.8 463.6 767 442.4"
  />
  <path
    id="mole-2"
    fill="#000000"
    fill-rule="evenodd"
    stroke="#000000"
    stroke-width="2"
    d="M 620.8 661.6 C 620.8 659.3 619 657.4 616.8 657.4 C 614.6 657.4 612.8 659.3 612.8 661.6 C 612.8 663.9 614.6 665.7 616.8 665.7 C 619 665.7 620.8 663.9 620.8 661.6 Z"
  />
  <path
    id="mole-1"
    fill="#000000"
    fill-rule="evenodd"
    stroke="#000000"
    stroke-width="2"
    d="M 416.2 317.5 C 416.2 315.3 414.4 313.4 412.2 313.4 C 410 313.4 408.2 315.3 408.2 317.5 C 408.2 319.8 410 321.7 412.2 321.7 C 414.4 321.7 416.2 319.8 416.2 317.5 Z"
  />
  <path
    id="teeth"
    fill="none"
    stroke="#000000"
    stroke-width="4"
    d="M 353.7 784.5 C 353.7 784.5 402.2 805.5 434.8 795.6 C 481.9 787.5 556.4 731.1 556.1 726.4 C 489.6 727.7 428.7 766 428.7 766 C 405.1 759.3 357 767.6 353.7 769.8 C 352.7 771.5 351.8 783.5 353.7 784.5"
  />
  <path
    id="lips"
    fill="#000000"
    stroke="#000000"
    stroke-width="4"
    d="M 325.1 761.9 C 329.6 756.4 400.8 734.4 428.9 749.6 C 428.9 749.6 483.4 703.3 574.3 715.8 C 574.3 715.8 564.4 775.6 467.5 814.1 C 418.6 833.5 360.1 821.9 353.7 784.5 C 353.7 784.5 402.2 805.5 434.8 795.6 C 481.9 787.5 556.4 731.1 556.1 726.4 C 489.6 727.7 428.7 766 428.7 766 C 405.1 759.3 357 767.6 353.7 769.8 C 352.7 771.5 320.7 767.4 325.1 761.9 Z"
  />
  <path
    id="lower-nose"
    fill="none"
    stroke="#000000"
    stroke-width="4"
    d="M 361.9 624.7 C 350 649.1 348.4 677.8 359 698.4 C 361.4 703.3 379.5 695.3 392.5 700.5 C 400.4 703.6 424.5 703.6 432.9 696.4 C 440.6 689.8 456.9 674.6 469.3 675.8 C 480.4 676.9 482.3 622.9 460.4 611.3"
  />
  <path
    id="upper-nose"
    fill="none"
    stroke="#000000"
    stroke-width="4"
    d="M 357.9 508.9 C 357.9 508.9 370.8 553.5 365.5 594.2"
  />
  <path
    id="right-eyeball"
    fill="#000000"
    stroke="#000000"
    stroke-width="6"
    d="M 541.7 454.7 C 544.6 457.8 546.1 495.6 515 494.6 C 488 494 488.3 460.8 489.5 456.9 C 502.5 449.8 520.3 447 543.4 455"
  />
  <path
    id="right-upper-eyelash"
    fill="none"
    stroke="#000000"
    stroke-width="8"
    d="M 455.7 500.8 C 455.7 500.8 464 470.7 489.5 456.9 C 502.5 449.8 520.3 447 543.4 455 C 552.9 458.1 563 463 574.3 470.1"
  />
  <path
    id="right-eyebrow"
    fill="#000000"
    fill-rule="evenodd"
    stroke="#000000"
    stroke-width="6"
    d="M 426 457.8 C 430 459.9 481.1 419.4 532.2 402.8 C 550.5 396.9 588 390.5 601 402.5 C 601 402.5 561.1 366.7 517.9 381 C 482.9 392.6 419.1 415.4 417.1 427.1 C 415.1 438.7 416.8 453 426 457.8 Z"
  />
  <path
    id="left-eyeball"
    fill="#000000"
    stroke="#000000"
    stroke-width="6"
    d="M 309.8 508.2 C 308.6 527.8 309.8 542.9 286.6 543.8 C 256.7 545 262.9 506.9 264.7 506 C 277.4 501.1 292.9 500.2 309.8 508.2"
  />
  <path
    id="left-upper-eyelash"
    fill="none"
    stroke="#000000"
    stroke-width="8"
    d="M 221.4 543.8 C 221.4 543.8 238 516.1 264.7 506 C 277.4 501.1 292.9 500.2 309.8 508.2 C 319.6 512.8 329.6 520.1 340 531.5"
  />
  <path
    id="left-eyebrow"
    fill="#000000"
    fill-rule="evenodd"
    stroke="#000000"
    stroke-width="6"
    d="M 165.1 500.8 C 165.1 500.8 182.2 460.9 334.1 485.4 C 344.4 487.1 334.2 450.6 298.5 451.6 C 298.5 451.6 215.6 447.7 197.7 454.7 C 180.7 461.3 165.1 500.8 165.1 500.8 Z"
  />
  <a
    xmlns="http://www.w3.org/2000/svg"
    xmlns:xlink="http://www.w3.org/1999/xlink"
    xlink:href="https://www.linkedin.com/in/cecilia-díaz-seguy-073591219/"
    target="_top"
  >
    <path fill-opacity="0" d="M 688.8 788.8 C 652.4 853.5 558.9 951.7 455.9 957.9 C 423.1 959.8 375.5 942 331.6 905.9 C 307.4 965.2 254.9 998.7 191.7 1013.5 C 169.5 1018.7 146.1 1021.5 122.1 1022.1 C 103.1 1022.7 104.6 1022.1 85 1019.9 C -22.1 1008.9 108.7 823.3 108.7 823.3 C 81.7 831.3 -10.8 820.3 4.9 798.8 C 44.1 745.3 58.3 696.5 60.4 655.6 C 64.2 579.7 25.7 531.5 25.7 531.5 C 12.3 437.8 73.1 387.1 84.1 285.1 C 90 230.5 117 171.2 156.2 126 C 288.1 -25.7 357.8 33.9 357.8 33.9 C 504.3 -63.5 657.3 92.2 657.3 92.2 C 874.4 112.5 856 304.2 856 304.2 C 907.9 358.9 891.9 434.4 903.4 500.8 C 920 597.2 993 780 1007.2 826.4 C 1030.3 902.3 1019.1 978.1 891.6 924.7 C 872 916.4 944 989.5 950.9 997.2 C 964.2 1012.9 929.2 1013.5 893.9 1007.3 C 877.3 1004.6 783.6 949.9 768.2 936.4 C 732.3 904.7 708.9 874.9 688.8 788.8"/>
  </a>
</svg>
