<?xml version="1.0" encoding="UTF-8"?>
<?xml-stylesheet type="text/css" href="../../styles/avatars.css" ?>
<svg viewBox="0 0 1024 1024" xmlns="http://www.w3.org/2000/svg">
  <path
    id="hairline"
    fill="#000000"
    stroke="#000000"
    stroke-width="6"
    d="M 831.5 539.5 C 824.2 542.9 821.6 587.8 820.9 618.8 C 820.9 618.8 802 303.2 721.5 239.1 C 721.5 239.1 610 240.1 587.1 230.6 C 564.2 221.1 547.6 210.5 502.5 226.4 C 502.5 226.4 281.5 194.6 261.3 315.2 C 261.3 315.2 268.7 397.9 262.3 416.8 C 256 435.7 206.1 476.8 220 613.6 C 220 613.6 211.3 544.9 187.9 523.4 C 172.2 480.3 167.1 304.7 167.1 304.7 C 139.7 272.3 146 231.7 146 231.7 C 277.6 -29.1 553.3 12.7 553.3 12.7 C 789.6 -44.9 787 217.9 787 217.9 C 864 342.7 832.5 538.4 831.5 539.5"
  />
  <path
    id="faceline"
    fill="#ffffff"
    stroke="#000000"
    stroke-width="6"
    d="M 235.5 769.1 C 243.5 766 280.4 1016 512 1019.1 C 743.6 1022.1 786.4 845.7 801.9 786 C 801.9 786 856.5 829.3 857.9 682.3 C 857.9 682.3 920.9 497.3 831.5 539.5 C 824.2 542.9 821.6 587.8 820.9 618.8 C 820.9 618.8 802 303.2 721.5 239.1 C 721.5 239.1 610 240.1 587.1 230.6 C 564.2 221.1 547.6 210.5 502.5 226.4 C 502.5 226.4 281.5 194.6 261.3 315.2 C 261.3 315.2 268.7 397.9 262.3 416.8 C 256 435.7 206.1 476.8 220 613.6 C 220 613.6 211.3 544.9 187.9 523.4 C 177.9 514.2 165.1 513.7 149.2 531 C 149.2 531 131.8 594.3 172.4 669.6 C 172.4 669.6 185.6 788.7 235.5 769.1 Z"
  />
  <path
    id="beard"
    fill="#f0f0f0"
    fill-rule="evenodd"
    stroke="none"
    d="M 234.8 706.6 C 214.1 708.1 222.9 716.8 235.5 769.1 L 235.5 769.1 C 243.5 766 280.4 1016 512 1019.1 C 743.6 1022.1 786.4 845.7 801.9 786 C 801.9 786 817.4 675.6 816.7 706.6 C 816.7 706.6 723.9 743 709.8 854.7 C 709.8 854.7 651.5 943.5 593.5 933 C 528.9 921.4 523 913.1 445.4 930.9 C 445.4 930.9 368.6 921.4 333.2 854.7 C 333.2 854.7 283.2 703.2 234.8 706.6 Z"
  />
  <path
    id="hair-3"
    fill="none"
    stroke="#ffffff"
    stroke-width="2"
    d="M 715 218 C 715 218 775.7 89.8 660 56"
  />
  <path
    id="hair-2"
    fill="none"
    stroke="#ffffff"
    stroke-width="2"
    d="M 604.7 196.6 C 609.4 135.7 594.7 23.6 412 61 C 358.7 71.9 297.3 103.4 220 176"
  />
  <path
    id="hair-1"
    fill="none"
    stroke="#ffffff"
    stroke-width="2"
    d="M 180 292 C 180 292 200.9 312.3 259 281"
  />
  <path
    id="left-ear-2"
    fill="none"
    stroke="#000000"
    stroke-width="2"
    d="M 198.9 630.5 C 198.9 630.5 183.6 657.2 207.3 668.6"
  />
  <path
    id="left-ear-1"
    fill="none"
    stroke="#000000"
    stroke-width="2"
    d="M 167.1 550.1 C 167.1 550.1 192.3 577.2 173.5 635.8"
  />
  <path
    id="right-ear-1"
    fill="none"
    stroke="#000000"
    stroke-width="2"
    d="M 819.8 707.7 C 819.8 707.7 852.7 664.6 829.4 655.9"
  />
  <path
    id="right-ear-2"
    fill="none"
    stroke="#000000"
    stroke-width="2"
    d="M 833.6 596.6 C 833.6 596.6 847.9 546.4 868.5 566"
  />
  <path
    id="lower-lip"
    fill="none"
    stroke="#000000"
    stroke-width="2"
    d="M 500.4 850.5 C 500.4 850.5 533 860.5 559.6 848.4"
  />
  <path
    id="mouth"
    fill="none"
    stroke="#000000"
    stroke-width="6"
    d="M 397.8 794.4 C 397.8 794.4 521.1 838.2 643.2 802.9"
  />
  <path
    id="mustache"
    fill="#f0f0f0"
    fill-rule="evenodd"
    stroke="none"
    d="M 378.7 777.5 C 424.7 772.9 459.6 757 531 779.6 C 538.7 782.1 543.2 757.6 664.3 788.1 C 664.3 788.1 694.7 739.4 530 734.1 C 358.4 728.7 378.3 777.6 378.7 777.5 Z"
  />
  <path
    id="right-nose"
    fill="none"
    stroke="#000000"
    stroke-width="4"
    d="M 566.1 714 C 566.1 714 584.2 700.9 598.7 711.9"
  />
  <path
    id="left-nose"
    fill="none"
    stroke="#000000"
    stroke-width="4"
    d="M 467.6 703.5 C 467.6 703.5 486.9 694.8 508.8 713"
  />
  <path
    id="right-nose"
    fill="none"
    stroke="#000000"
    stroke-width="4"
    d="M 609.3 663.3 C 609.3 663.3 631 694 614.6 706.6"
  />
  <path
    id="left-nose"
    fill="none"
    stroke="#000000"
    stroke-width="4"
    d="M 447.5 697.1 C 447.5 697.1 434.8 668.5 461.2 652.7"
  />
  <path
    id="right-eyeball"
    fill="#000000"
    fill-rule="evenodd"
    stroke="#000000"
    stroke-width="6"
    d="M 635.8 538.7 C 648 534.1 662.9 528.7 693.2 537.3 C 693 540 692.3 569 662.2 566.9 C 636.6 565.2 635.8 539.5 635.8 539.5 Z"
  />
  <path
    id="right-eyelash"
    fill="none"
    stroke="#000000"
    stroke-width="6"
    d="M 614.6 550.1 C 614.6 550.1 622.6 543.7 635.8 538.7 C 648 534.1 662.9 528.7 693.2 537.3 C 703.5 540.2 713.9 546.5 724.6 555.4"
  />
  <path
    id="right-eyelid"
    fill="none"
    stroke="#000000"
    stroke-width="2"
    d="M 621 530 C 621 530 668.7 490.7 726.7 535.3"
  />
  <path
    id="right-eyebrow"
    fill="#000000"
    fill-rule="evenodd"
    stroke="#000000"
    stroke-width="4"
    d="M 777.5 505.7 C 777.9 507.3 719.6 437.1 575.5 497.2 C 575.5 497.2 569.1 466.6 581.8 461.2 C 581.8 461.2 751.6 386.5 777.5 505.7 Z"
  />
  <path
    id="left-eyeball"
    fill="#000000"
    fill-rule="evenodd"
    stroke="#000000"
    stroke-width="6"
    d="M 368.3 527.9 C 384.9 523.8 405.8 522.3 427.9 530.3 C 427.4 531 428.2 559.5 397.8 559.6 C 372 559.7 368.1 528.9 368.1 528.9 Z"
  />
  <path
    id="left-eyelash"
    fill="none"
    stroke="#000000"
    stroke-width="6"
    d="M 333.2 542.7 C 333.2 542.7 347.2 533.1 368.3 527.9 C 384.9 523.8 405.8 522.3 427.9 530.3 C 438.9 534.3 450.1 540.6 461.2 550.1"
  />
  <path
    id="left-eyelid"
    fill="none"
    stroke="#000000"
    stroke-width="2"
    d="M 321.6 528.9 C 321.6 528.9 385 484.8 447.5 519.4"
  />
  <path
    id="left-eyebrow"
    fill="#000000"
    fill-rule="evenodd"
    stroke="#000000"
    stroke-width="4"
    d="M 272.9 507.8 C 273.1 511.6 277.1 441.4 482.4 498.2 C 482.4 498.2 487.9 459.1 477.1 455.9 C 477.1 455.9 269.4 398.6 272.9 507.8 Z"
  />
</svg>
