<?xml version="1.0" encoding="UTF-8"?>
<?xml-stylesheet type="text/css" href="../../main.css" ?>
<svg viewBox="0 0 1024 1024" xmlns="http://www.w3.org/2000/svg">
  <path
    id="hairline"
    fill="#000000"
    fill-rule="evenodd"
    stroke="#000000"
    stroke-width="6"
    d="M 787.8 587.3 C 787.8 587.3 765.1 483.1 769.5 471.3 C 769.5 471.3 737.8 444.6 726.8 377.6 C 715.8 310.6 662.4 234.9 558.8 242.2 C 523.3 244.8 511.7 275.6 451.9 245.3 C 451.9 245.3 267.3 258.9 305.4 377.6 C 305.4 377.6 281.4 414.9 291.1 422.4 C 291.1 422.4 270.1 474.2 278.9 499.8 C 281.5 507.1 234.4 576.4 239.2 601.5 C 239.2 601.5 197.4 496.3 160.8 513 C 154.2 516 100.9 214.5 304.4 75.3 C 511.4 -66.4 604.6 48.9 604.6 48.9 C 819.1 41.1 860.1 234.1 860.1 234.1 C 915 287.6 853 496.7 853 496.7 C 853 496.7 883.4 626.7 809.2 694.2 C 809.2 694.2 786.4 778.7 757.3 791.9 C 762.5 767.1 768.1 739.6 767.5 724.7 C 767.5 724.7 782.1 669.9 787.8 587.3 Z"
  />
  <path
    id="faceline"
    fill="#ffffff"
    fill-rule="evenodd"
    stroke="#000000"
    stroke-width="6"
    d="M 239.2 601.5 C 245.2 632.5 253.7 687.3 262 738.2 C 270.6 791.1 279 839.8 284 852.9 C 303.2 903.8 383.1 1014.6 517.6 1018.7 C 564.1 1020.1 669.7 1019.7 741 848.9 C 741 848.9 749.1 822.1 756.4 792.4 C 762.5 767.1 768.1 739.6 767.5 724.7 C 767.5 724.7 782.1 669.9 787.8 587.3 C 788.5 577.8 765.1 483.1 769.5 471.3 C 769.5 471.3 737.8 444.6 726.8 377.6 C 715.8 310.6 662.4 234.9 558.8 242.2 C 523.3 244.8 511.7 275.6 451.9 245.3 C 451.9 245.3 267.3 258.9 305.4 377.6 C 305.4 377.6 281.4 414.9 291.1 422.4 C 291.1 422.4 270.1 474.2 278.9 499.8 C 281.5 507.1 234.4 576.4 239.2 601.5 Z"
  />
  <path
    id="hair-6"
    fill="none"
    stroke="#ffffff"
    stroke-width="2"
    d="M 767.5 343 C 767.5 343 786.4 406.6 847.9 378.6"
  />
  <path
    id="hair-5"
    fill="none"
    stroke="#ffffff"
    stroke-width="2"
    d="M 704.4 174.1 C 704.4 174.1 824.3 143.5 831.6 253.4"
  />
  <path
    id="hair-4"
    fill="none"
    stroke="#ffffff"
    stroke-width="2"
    d="M 660.6 209.7 C 660.6 209.7 652.9 21 439.7 151.7"
  />
  <path
    id="hair-3"
    fill="none"
    stroke="#000000"
    stroke-width="6"
    d="M 291.1 422.4 C 291.1 422.4 316.3 449.2 351.2 446.8"
  />
  <path
    id="hair-2"
    fill="none"
    stroke="#ffffff"
    stroke-width="2"
    d="M 462.1 58 C 462.1 58 325.4 49.3 278.9 149.6"
  />
  <path
    id="hair-1"
    fill="none"
    stroke="#ffffff"
    stroke-width="2"
    d="M 378.7 164.9 C 374.9 161.9 142.8 253.8 275.9 422.4"
  />
  <path
    id="right-ear-1"
    fill="#ffffff"
    fill-rule="evenodd"
    stroke="#000000"
    stroke-width="6"
    d="M 767.5 724.7 C 767.5 724.7 782.1 669.9 787.8 587.3 C 794.7 504.7 851.6 490.1 853 496.7 C 853 496.7 883.4 626.7 809.2 694.2 C 789 715.6 767.5 724.7 767.5 724.7"
  />
  <path
    id="right-ear-2"
    fill="none"
    stroke="#000000"
    stroke-width="2"
    d="M 827.5 562.9 C 827.5 562.9 843.1 639.1 809.2 654.5"
  />
  <path
    id="left-ear-1"
    fill="#ffffff"
    fill-rule="evenodd"
    stroke="#000000"
    stroke-width="6.1"
    d="M 262 738.2 C 253.6 687.3 245.2 632.5 239.2 601.5 C 239.2 601.5 197.4 496.3 160.8 513 C 169 732.2 261.8 738.2 261.8 738.2"
  />
  <path
    id="left-ear-2"
    fill="none"
    stroke="#000000"
    stroke-width="2"
    d="M 211.7 583.2 C 211.7 583.2 180.3 610.7 198.5 646.3"
  />
  <path
    id="lower-lip"
    fill="none"
    stroke="#000000"
    stroke-width="2"
    d="M 469.3 877.4 C 469.3 877.4 513.7 903 562.9 877.4"
  />
  <path
    id="mouth"
    fill="none"
    stroke="#000000"
    stroke-width="4"
    d="M 422.4 836.7 C 422.4 836.7 434.3 840.3 441.8 840.7 C 493.8 844 530.1 850.3 590.4 839.7 C 597.2 838.5 610.6 843.8 615.8 839.7"
  />
  <path
    id="nose"
    fill="none"
    stroke="#000000"
    stroke-width="2"
    d="M 479.4 568 C 479.4 568 488.9 659.4 476.4 673.8 C 476.4 673.8 431.4 712.6 466.2 749.1 C 466.2 749.1 490.5 739.7 508.9 750.1 C 527.4 760.6 550.7 747.1 550.7 747.1 C 550.7 747.1 569.8 738.9 581.2 748.1 C 592.7 757.3 602.6 699.4 577.1 691.1"
  />
  <path
    id="right-eyeball"
    fill="#000000"
    fill-rule="evenodd"
    stroke="#000000"
    stroke-width="6"
    d="M 619.6 549 C 633.7 543.7 651.9 541.5 672.9 549.7 C 673.6 551.2 675.6 583 647.4 583.2 C 613.6 583.5 619.4 552.2 619.6 549 Z"
  />
  <path
    id="right-eyeball-detail"
    fill="#ffffff"
    fill-rule="evenodd"
    stroke="none"
    d="M 639.1 556.7 C 639.1 554.5 637.3 552.7 635.1 552.7 C 632.9 552.7 631.1 554.5 631.1 556.7 C 631.1 558.9 632.9 560.7 635.1 560.7 C 637.3 560.7 639.1 558.9 639.1 556.7 Z"
  />
  <path
    id="right-eyelash"
    fill="none"
    stroke="#000000"
    stroke-width="6"
    d="M 589.4 569 C 589.4 569 600.6 556.2 619.6 549 C 633.7 543.7 651.9 541.5 672.9 549.7 C 682.8 553.5 693.4 559.7 704.4 569"
  />
  <path
    id="right-eyebrow"
    fill="#000000"
    fill-rule="evenodd"
    stroke="#000000"
    stroke-width="6"
    d="M 582.2 527.2 C 582.2 527.2 695.5 487.2 745.1 512 C 745.1 512 737.5 464.2 697.2 467.2 C 697.2 467.2 608.2 494.2 582.2 498.7 C 566.1 501.6 582.2 527.2 582.2 527.2 Z"
  />
  <path
    id="left-eyeball"
    fill="#000000"
    fill-rule="evenodd"
    stroke="#000000"
    stroke-width="6"
    d="M 364.6 554.4 C 377.7 549.4 395.5 547.6 418.6 554.9 C 419.6 557.2 421.2 589.5 389.9 588.3 C 360.9 587.2 363.4 558.2 364.6 554.4 Z"
  />
  <path
    id="left-eyeball-detail"
    fill="#ffffff"
    fill-rule="evenodd"
    stroke="none"
    d="M 387.7 559.7 C 387.7 557.5 385.9 555.7 383.7 555.7 C 381.5 555.7 379.7 557.5 379.7 559.7 C 379.7 561.9 381.5 563.7 383.7 563.7 C 385.9 563.7 387.7 561.9 387.7 559.7 Z"
  />
  <path
    id="left-eyelash"
    fill="none"
    stroke="#000000"
    stroke-width="6"
    d="M 335.9 576.1 C 335.9 576.1 344.9 561.8 364.6 554.4 C 377.7 549.4 395.5 547.6 418.6 554.9 C 429 558.2 440.4 563.4 453 571"
  />
  <path
    id="left-eyebrow"
    fill="#000000"
    fill-rule="evenodd"
    stroke="#000000"
    stroke-width="6"
    d="M 460.1 532.3 C 455.5 531.6 327.4 511.8 294.2 526.2 C 294.2 526.2 290.1 484.2 335.9 479.4 C 335.9 479.4 450.9 507 456 505.9 C 461.2 504.7 464.6 533 460.1 532.3 Z"
  />
</svg>
