<?xml version="1.0" encoding="UTF-8"?>
<?xml-stylesheet type="text/css" href="../../main.css" ?>
<svg viewBox="0 0 1024 1024" xmlns="http://www.w3.org/2000/svg">
  <path
    id="hairline"
    fill="#000000"
    stroke="none"
    stroke-width="6"
    d="M 369.4 256.2 C 336 262.5 294.6 292.2 237.2 241 C 237.2 241 217.2 251.1 193.7 268.9 C 155.3 297.9 107.8 347.2 123 406.3 C 133.7 447.9 137 491.3 140.4 534.2 C 140.4 534.2 141.2 542.2 145.7 554.1 C 28.3 386.9 144 214.6 144 214.6 C 178.2 20.1 427.1 1.9 427.1 1.9 C 618.6 -4 770.5 100.4 805.6 159.6 C 865.7 261.2 895.7 457.6 873.6 538.1 C 865.1 569.2 843.3 585.9 856.1 648.9 C 868.8 711.9 925.8 713.9 925.8 713.9 C 926.5 730.6 895.5 754.6 870.6 759.8 C 794.8 775.6 775.2 678.8 775.2 678.8 C 778.1 654.7 778.3 634.6 776.9 613.7 C 776.9 613.7 837.6 639.8 845.5 539.9 C 849.5 488.9 896.9 356.5 780.5 399.2 C 780.5 399.2 781.9 468.6 768.2 478.4 C 768.2 478.4 744.4 493.5 683.8 406.3 C 635.3 336.5 602.8 256.4 540.2 244.6 C 524.5 241.7 507 243 486.9 249.8 C 486.9 249.8 554.9 281.6 564.2 394 C 564.6 398.8 529.4 225.6 369.4 256.2 Z"
  />
  <path
    id="faceline"
    fill="#ffffff"
    stroke="#000000"
    stroke-width="6"
    d="M 369.4 256.2 C 336 262.5 294.6 292.2 237.2 241 C 237.2 241 217.2 251.1 193.7 268.9 C 155.3 297.9 107.8 347.2 123 406.3 C 133.7 447.9 137 491.3 140.4 534.2 C 140.4 534.2 141.2 542.2 145.7 554.1 C 150.9 568 161.2 587.2 181 604.9 C 181 604.9 192.5 666.6 195 692.8 C 201 755.1 257.1 825.5 332.2 909.1 C 332.2 909.1 380.6 964.3 404.2 997 C 416.2 1013.5 499.7 1027 539.6 1014.6 C 576.9 1003 760.3 894.8 776.7 673.9 C 778.1 654.7 778.3 634.6 776.9 613.7 C 776.9 613.7 837.6 639.8 845.5 539.9 C 849.5 488.9 896.9 356.5 780.5 399.2 C 780.5 399.2 781.9 468.6 768.2 478.4 C 768.2 478.4 744.4 493.5 683.8 406.3 C 635.3 336.5 602.8 256.4 540.2 244.6 C 524.5 241.7 507 243 486.9 249.8 C 486.9 249.8 554.9 281.6 564.2 394 C 564.6 398.8 529.4 225.6 369.4 256.2 Z"
  />
  <path
    id="hair-5"
    fill="none"
    stroke="#ffffff"
    stroke-width="2"
    d="M 246.3 202.5 C 246.3 202.5 269 123.8 310 85.6"
  />
  <path
    id="hair-4"
    fill="none"
    stroke="#ffffff"
    stroke-width="2"
    d="M 395.6 175.4 C 395.6 175.4 525.4 142 591.2 169.3 C 664.8 199.9 712.1 301.7 711.9 323.6"
  />
  <path
    id="hair-3"
    fill="none"
    stroke="#ffffff"
    stroke-width="2"
    d="M 120 359.1 C 120 359.1 106.5 299.4 200.4 239"
  />
  <path
    id="hair-2"
    fill="none"
    stroke="#000000"
    stroke-width="6"
    d="M 369.4 256.2 C 374.4 255.1 491.2 359.9 488.6 432.6"
  />
  <path
    id="hair-1"
    fill="none"
    stroke="#000000"
    stroke-width="6"
    d="M 671.5 404.5 C 555 328.5 577.2 270.2 540.2 244.6 C 524.5 241.7 507 243 486.9 249.8"
  />
  <path
    id="right-ear"
    fill="none"
    stroke="#000000"
    stroke-width="2"
    d="M 793.3 467.6 C 793.3 467.6 842.1 479.7 800.6 541.7"
  />
  <path
    id="lower-lip"
    fill="none"
    stroke="#000000"
    stroke-width="6"
    d="M 539.6 847.5 C 539.6 849.3 500.8 928.9 442.9 935.4 C 395.6 937.4 384.9 924.1 365.6 902"
  />
  <path
    id="mouth"
    fill="none"
    stroke="#000000"
    stroke-width="4"
    d="M 358.5 888 C 358.5 888 427.5 925.4 539.6 847.5"
  />
  <path
    id="upper-lip"
    fill="none"
    stroke="#000000"
    stroke-width="6"
    d="M 358.5 888 C 358.5 888 389.8 868.1 413 882.7 C 413 882.7 424.9 865.2 504.4 858.1"
  />
  <path
    id="nose"
    fill="none"
    stroke="#000000"
    stroke-width="4"
    d="M 288.2 604.9 C 288.2 604.9 328.3 732.3 311.1 805.3 C 304.8 831.6 348.8 856.1 374.4 845.8 C 374.4 845.8 401.2 810.6 416.5 810.6"
  />
  <path
    id="right-freckle-20"
    fill="#cdcdcd"
    fill-rule="evenodd"
    stroke="none"
    d="M 602.9 605.4 C 602.9 607 604.3 608.4 605.9 608.4 C 607.6 608.4 608.9 607 608.9 605.4 C 608.9 603.7 607.6 602.4 605.9 602.4 C 604.3 602.4 602.9 603.7 602.9 605.4 Z"
  />
  <path
    id="right-freckle-19"
    fill="#cdcdcd"
    fill-rule="evenodd"
    stroke="none"
    d="M 602.9 631.4 C 602.9 633.6 604.7 635.4 606.9 635.4 C 609.2 635.4 610.9 633.6 610.9 631.4 C 610.9 629.2 609.2 627.4 606.9 627.4 C 604.7 627.4 602.9 629.2 602.9 631.4 Z"
  />
  <path
    id="right-freckle-18"
    fill="#cdcdcd"
    fill-rule="evenodd"
    stroke="none"
    d="M 599.8 659.7 C 599.8 660.8 600.7 661.7 601.8 661.7 C 602.9 661.7 603.8 660.8 603.8 659.7 C 603.8 658.6 602.9 657.7 601.8 657.7 C 600.7 657.7 599.8 658.6 599.8 659.7 Z"
  />
  <path
    id="right-freckle-17"
    fill="#cdcdcd"
    fill-rule="evenodd"
    stroke="none"
    d="M 593.9 684.6 C 593.9 686.3 595.3 687.6 596.9 687.6 C 598.6 687.6 599.9 686.3 599.9 684.6 C 599.9 683 598.6 681.6 596.9 681.6 C 595.3 681.6 593.9 683 593.9 684.6 Z"
  />
  <path
    id="right-freckle-16"
    fill="#cdcdcd"
    fill-rule="evenodd"
    stroke="none"
    d="M 581.3 625.2 C 581.3 626.8 582.6 628.2 584.3 628.2 C 585.9 628.2 587.3 626.8 587.3 625.2 C 587.3 623.5 585.9 622.2 584.3 622.2 C 582.6 622.2 581.3 623.5 581.3 625.2 Z"
  />
  <path
    id="right-freckle-15"
    fill="#cdcdcd"
    fill-rule="evenodd"
    stroke="none"
    d="M 574 651.3 C 574 652.9 575.3 654.3 577 654.3 C 578.6 654.3 580 652.9 580 651.3 C 580 649.6 578.6 648.3 577 648.3 C 575.3 648.3 574 649.6 574 651.3 Z"
  />
  <path
    id="right-freckle-14"
    fill="#cdcdcd"
    fill-rule="evenodd"
    stroke="none"
    d="M 571.9 671.1 C 571.9 673.3 573.7 675.1 575.9 675.1 C 578.1 675.1 579.9 673.3 579.9 671.1 C 579.9 668.8 578.1 667.1 575.9 667.1 C 573.7 667.1 571.9 668.8 571.9 671.1 Z"
  />
  <path
    id="right-freckle-13"
    fill="#cdcdcd"
    fill-rule="evenodd"
    stroke="none"
    d="M 574.1 696.5 C 574.1 697.6 575 698.5 576.1 698.5 C 577.2 698.5 578.1 697.6 578.1 696.5 C 578.1 695.4 577.2 694.5 576.1 694.5 C 575 694.5 574.1 695.4 574.1 696.5 Z"
  />
  <path
    id="right-freckle-12"
    fill="#cdcdcd"
    fill-rule="evenodd"
    stroke="none"
    d="M 552.2 633.2 C 552.2 634.9 553.5 636.2 555.2 636.2 C 556.8 636.2 558.2 634.9 558.2 633.2 C 558.2 631.6 556.8 630.2 555.2 630.2 C 553.5 630.2 552.2 631.6 552.2 633.2 Z"
  />
  <path
    id="right-freckle-11"
    fill="#cdcdcd"
    fill-rule="evenodd"
    stroke="none"
    d="M 550.1 661.7 C 550.1 662.8 551 663.7 552.1 663.7 C 553.2 663.7 554.1 662.8 554.1 661.7 C 554.1 660.6 553.2 659.7 552.1 659.7 C 551 659.7 550.1 660.6 550.1 661.7 Z"
  />
  <path
    id="right-freckle-10"
    fill="#cdcdcd"
    fill-rule="evenodd"
    stroke="none"
    d="M 550.1 688.1 C 550.1 689.8 551.4 691.1 553.1 691.1 C 554.8 691.1 556.1 689.8 556.1 688.1 C 556.1 686.5 554.8 685.1 553.1 685.1 C 551.4 685.1 550.1 686.5 550.1 688.1 Z"
  />
  <path
    id="right-freckle-9"
    fill="#cdcdcd"
    fill-rule="evenodd"
    stroke="none"
    d="M 545.9 708.9 C 545.9 711.1 547.7 712.9 549.9 712.9 C 552.1 712.9 553.9 711.1 553.9 708.9 C 553.9 706.7 552.1 704.9 549.9 704.9 C 547.7 704.9 545.9 706.7 545.9 708.9 Z"
  />
  <path
    id="right-freckle-8"
    fill="#cdcdcd"
    fill-rule="evenodd"
    stroke="none"
    d="M 529.2 649.1 C 529.2 650.8 530.6 652.1 532.2 652.1 C 533.9 652.1 535.2 650.8 535.2 649.1 C 535.2 647.5 533.9 646.1 532.2 646.1 C 530.6 646.1 529.2 647.5 529.2 649.1 Z"
  />
  <path
    id="right-freckle-7"
    fill="#cdcdcd"
    fill-rule="evenodd"
    stroke="none"
    d="M 524 681.4 C 524 683.7 525.8 685.4 528 685.4 C 530.2 685.4 532 683.7 532 681.4 C 532 679.2 530.2 677.4 528 677.4 C 525.8 677.4 524 679.2 524 681.4 Z"
  />
  <path
    id="right-freckle-6"
    fill="#cdcdcd"
    fill-rule="evenodd"
    stroke="none"
    d="M 507.3 639.7 C 507.3 641.9 509.1 643.7 511.3 643.7 C 513.5 643.7 515.3 641.9 515.3 639.7 C 515.3 637.5 513.5 635.7 511.3 635.7 C 509.1 635.7 507.3 637.5 507.3 639.7 Z"
  />
  <path
    id="right-freckle-5"
    fill="#cdcdcd"
    fill-rule="evenodd"
    stroke="none"
    d="M 511.5 703.7 C 511.5 705.9 513.3 707.7 515.5 707.7 C 517.7 707.7 519.5 705.9 519.5 703.7 C 519.5 701.5 517.7 699.7 515.5 699.7 C 513.3 699.7 511.5 701.5 511.5 703.7 Z"
  />
  <path
    id="right-freckle-4"
    fill="#cdcdcd"
    fill-rule="evenodd"
    stroke="none"
    d="M 499 666.9 C 499 668.5 500.3 669.9 502 669.9 C 503.6 669.9 505 668.5 505 666.9 C 505 665.2 503.6 663.9 502 663.9 C 500.3 663.9 499 665.2 499 666.9 Z"
  />
  <path
    id="right-freckle-3"
    fill="#cdcdcd"
    fill-rule="evenodd"
    stroke="none"
    d="M 480.2 703.4 C 480.2 705.1 481.5 706.4 483.2 706.4 C 484.8 706.4 486.2 705.1 486.2 703.4 C 486.2 701.8 484.8 700.4 483.2 700.4 C 481.5 700.4 480.2 701.8 480.2 703.4 Z"
  />
  <path
    id="right-freckle-2"
    fill="#cdcdcd"
    fill-rule="evenodd"
    stroke="none"
    d="M 455.1 674.2 C 455.1 675.8 456.5 677.2 458.1 677.2 C 459.8 677.2 461.1 675.8 461.1 674.2 C 461.1 672.5 459.8 671.2 458.1 671.2 C 456.5 671.2 455.1 672.5 455.1 674.2 Z"
  />
  <path
    id="right-freckle-1"
    fill="#cdcdcd"
    fill-rule="evenodd"
    stroke="none"
    d="M 446.8 653.3 C 446.8 655.5 448.6 657.3 450.8 657.3 C 453 657.3 454.8 655.5 454.8 653.3 C 454.8 651.1 453 649.3 450.8 649.3 C 448.6 649.3 446.8 651.1 446.8 653.3 Z"
  />
  <path
    id="left-feckle-8"
    fill="#cdcdcd"
    fill-rule="evenodd"
    stroke="none"
    d="M 291.2 718.1 C 291.2 719.2 292.1 720.1 293.2 720.1 C 294.3 720.1 295.2 719.2 295.2 718.1 C 295.2 717 294.3 716.1 293.2 716.1 C 292.1 716.1 291.2 717 291.2 718.1 Z"
  />
  <path
    id="left-feckle-7"
    fill="#cdcdcd"
    fill-rule="evenodd"
    stroke="none"
    d="M 287.1 746.3 C 287.1 747.4 287.9 748.3 289.1 748.3 C 290.2 748.3 291.1 747.4 291.1 746.3 C 291.1 745.1 290.2 744.3 289.1 744.3 C 287.9 744.3 287.1 745.1 287.1 746.3 Z"
  />
  <path
    id="left-feckle-6"
    fill="#cdcdcd"
    fill-rule="evenodd"
    stroke="none"
    d="M 280.8 731.6 C 280.8 733.8 282.6 735.6 284.8 735.6 C 287 735.6 288.8 733.8 288.8 731.6 C 288.8 729.3 287 727.6 284.8 727.6 C 282.6 727.6 280.8 729.3 280.8 731.6 Z"
  />
  <path
    id="left-feckle-5"
    fill="#cdcdcd"
    fill-rule="evenodd"
    stroke="none"
    d="M 270.4 753.5 C 270.4 755.2 271.7 756.5 273.4 756.5 C 275 756.5 276.4 755.2 276.4 753.5 C 276.4 751.9 275 750.5 273.4 750.5 C 271.7 750.5 270.4 751.9 270.4 753.5 Z"
  />
  <path
    id="left-feckle-4"
    fill="#cdcdcd"
    fill-rule="evenodd"
    stroke="none"
    d="M 266.2 734.8 C 266.2 735.9 267.1 736.8 268.2 736.8 C 269.3 736.8 270.2 735.9 270.2 734.8 C 270.2 733.7 269.3 732.8 268.2 732.8 C 267.1 732.8 266.2 733.7 266.2 734.8 Z"
  />
  <path
    id="left-feckle-3"
    fill="#cdcdcd"
    fill-rule="evenodd"
    stroke="none"
    d="M 254.7 743.1 C 254.7 744.2 255.6 745.1 256.7 745.1 C 257.8 745.1 258.7 744.2 258.7 743.1 C 258.7 742 257.8 741.1 256.7 741.1 C 255.6 741.1 254.7 742 254.7 743.1 Z"
  />
  <path
    id="left-feckle-2"
    fill="#cdcdcd"
    fill-rule="evenodd"
    stroke="none"
    d="M 249.5 727.5 C 249.5 728.6 250.4 729.5 251.5 729.5 C 252.6 729.5 253.5 728.6 253.5 727.5 C 253.5 726.4 252.6 725.5 251.5 725.5 C 250.4 725.5 249.5 726.4 249.5 727.5 Z"
  />
  <path
    id="left-feckle-1"
    fill="#cdcdcd"
    fill-rule="evenodd"
    stroke="none"
    d="M 227.6 727.4 C 227.6 729.1 228.9 730.4 230.6 730.4 C 232.2 730.4 233.6 729.1 233.6 727.4 C 233.6 725.8 232.2 724.4 230.6 724.4 C 228.9 724.4 227.6 725.8 227.6 727.4 Z"
  />
  <path
    id="right-lower-eyelash"
    fill="none"
    stroke="#000000"
    stroke-width="2"
    d="M 202.1 633.1 C 202.1 633.1 221.6 654.8 246 643.6"
  />
  <path
    id="right-eyeball"
    fill="#000000"
    stroke="#000000"
    stroke-width="4"
    d="M 509.5 522.5 C 537.6 529.2 529.8 572.6 506.2 573.1 C 463.7 574 474.8 523.4 490.9 523 C 496.6 522.4 503.2 522.2 509.5 522.5"
  />
  <path
    id="right-eyeball-detail"
    fill="#ffffff"
    fill-rule="evenodd"
    stroke="#ffffff"
    stroke-width="2"
    d="M 502.9 551.1 C 502.9 548.8 501.1 547.1 498.9 547.1 C 496.7 547.1 494.9 548.8 494.9 551.1 C 494.9 553.3 496.7 555.1 498.9 555.1 C 501.1 555.1 502.9 553.3 502.9 551.1 Z"
  />
  <path
    id="right-upper-eyelash"
    fill="none"
    stroke="#000000"
    stroke-width="8"
    d="M 421.8 592.6 C 421.8 592.6 424.1 530.1 490.9 523 C 496.6 522.4 502.8 522.2 509.5 522.5 C 520 522.9 531.7 524.5 544.9 527.6"
  />
  <path
    id="right-eyebrow"
    fill="#000000"
    fill-rule="evenodd"
    stroke="#000000"
    stroke-width="4"
    d="M 372.6 541.6 C 372.6 541.6 449.5 488.1 493.9 476.6 C 529.1 467.5 557.7 463.8 602.9 474.8 C 602.9 474.8 530.9 444.1 490.4 453.7 C 449.1 463.6 367.9 526.7 367.3 529.3 Z"
  />
  <path
    id="left-lower-eyelash"
    fill="none"
    stroke="#000000"
    stroke-width="2"
    d="M 467.5 592.6 C 467.5 592.6 523.4 603.8 558.9 546.9"
  />
  <path
    id="left-eyeball"
    fill="#000000"
    stroke="#000000"
    stroke-width="4"
    d="M 282.1 600.4 C 276.6 630.5 254.7 629.5 244.3 622.5 C 222.1 607.6 239 582.1 239.8 580.9 C 251.8 583 265.9 588.8 282.1 600.4"
  />
  <path
    id="left-eyeball-detail"
    fill="#ffffff"
    fill-rule="evenodd"
    stroke="#ffffff"
    stroke-width="2"
    d="M 256.5 607.4 C 256.5 605.7 255.2 604.4 253.5 604.4 C 251.9 604.4 250.5 605.7 250.5 607.4 C 250.5 609 251.9 610.4 253.5 610.4 C 255.2 610.4 256.5 609 256.5 607.4 Z"
  />
  <path
    id="left-upper-eyelash"
    fill="none"
    stroke="#000000"
    stroke-width="8"
    d="M 186.2 601.4 C 186.2 601.4 203.7 574.7 239.8 580.9 C 251.8 583 265.9 588.8 282.1 600.4 C 284.1 601.8 286.1 603.3 288.2 604.9"
  />
  <path
    id="left-eyebrow"
    fill="#000000"
    fill-rule="evenodd"
    stroke="#000000"
    stroke-width="4"
    d="M 145.7 554.1 C 183.3 554.6 199.8 551 260.1 568 C 260.1 568 215.4 528 140.4 534.2 C 140.4 534.2 141.2 542.2 145.7 554.3 Z"
  />
</svg>
