<?xml version="1.0" encoding="UTF-8"?>
<?xml-stylesheet type="text/css" href="../../styles/avatars.css" ?>
<svg viewBox="0 0 1024 1024" xmlns="http://www.w3.org/2000/svg">
  <path
    id="hairline"
    fill="#000000"
    fill-rule="evenodd"
    stroke="#000000"
    stroke-width="6"
    d="M 731.6 908 L 731.6 908 C 762.3 871.7 790.9 815.6 791.6 732.7 C 791.6 732.7 796.5 740.8 802.4 741.7 C 805.8 742.3 809.6 740.3 812.9 732.7 C 821.9 712.3 813.9 709.1 851.5 614 C 889 518.9 829.1 528.7 829.1 528.7 C 829.1 528.7 822.3 600.7 800.7 603.8 C 800.7 603.8 805.7 509.2 760.1 473.9 C 714.6 438.7 637.6 312.5 622.1 261.8 C 622.1 261.8 541.3 241.7 511.5 207 C 511.5 207 371.8 194.6 350.1 234.4 C 328.5 274.3 339.3 333.9 245.6 476 C 245.6 476 216.9 605.9 221.2 617 C 225.6 628.2 173.3 583 161.4 527.7 C 161.4 527.7 109.3 524.2 161.4 655.6 C 213.4 787 236.5 721.6 236.5 721.6 C 236.5 721.6 239.9 834.4 329.1 915.8 C 329.1 915.8 357.2 1064.6 187.8 1001.7 C 187.8 1001.7 219.4 991.1 215.2 977.3 C 210.9 963.5 216.9 996.2 169.5 986.4 C 146.7 981.8 206.9 957.9 158.3 899.2 C 152.6 892.2 210.8 842.3 189.8 806.8 C 150.2 740.2 92.9 632 114.7 508.4 C 136.4 384.9 199.2 22.7 425.2 6.1 C 425.2 6.1 754.6 -41.1 874.8 379.6 C 874.8 379.6 883.7 402.1 921.5 397.8 C 921.5 397.8 931.1 443 892.1 536.9 C 853 630.7 915.6 670.9 942.8 658.6 C 970 646.4 899.3 725.9 872.8 721.6 C 872.8 721.6 917.7 738.6 937.7 721.6 C 957.8 704.5 922.2 844.7 849.4 840.3 C 849.4 840.3 889.1 887.7 901.2 880.9 C 913.3 874.1 829.7 947.9 890 961.1 C 893.3 961.8 866.1 1010 840.3 1003.7 C 814.5 997.4 792.4 976.5 787.5 975.3 C 784.5 974.5 817.4 1015.6 812.9 1016.9 C 729.3 1040.5 731.6 908 731.6 908 Z"
  />
  <path
    id="faceline"
    fill="#ffffff"
    fill-rule="evenodd"
    stroke="#000000"
    stroke-width="6"
    d="M 407 966.2 C 409.8 967.4 521.4 1046.4 656.6 966.2 C 656.6 966.2 695.5 950.6 731.6 908 C 762.3 871.7 790.9 815.6 791.6 732.7 C 791.6 732.7 796.5 740.8 802.4 741.7 C 805.8 742.3 809.6 740.3 812.9 732.7 C 821.9 712.3 813.9 709.1 851.5 614 C 889 518.9 829.1 528.7 829.1 528.7 C 829.1 528.7 822.3 600.7 800.7 603.8 C 800.7 603.8 805.7 509.2 760.1 473.9 C 714.6 438.7 637.6 312.5 622.1 261.8 C 622.1 261.8 541.3 241.7 511.5 207 C 511.5 207 371.8 194.6 350.1 234.4 C 328.5 274.3 339.3 333.9 245.6 476 C 245.6 476 216.9 605.9 221.2 617 C 225.6 628.2 173.3 583 161.4 527.7 C 161.4 527.7 109.3 524.2 161.4 655.6 C 213.4 787 236.5 721.6 236.5 721.6 C 236.5 721.6 239.9 834.4 329.1 915.8 C 350 935 375.6 952.3 407 966.2 Z"
  />
  <path
    id="hair-8"
    fill="none"
    stroke="#ffffff"
    stroke-width="2"
    d="M 818 860.6 C 818 860.6 819.8 909.4 879.9 900.2"
  />
  <path
    id="hair-7"
    fill="none"
    stroke="#ffffff"
    stroke-width="2"
    d="M 902.2 427.3 C 902.2 427.3 858.4 449.3 818 404.9"
  />
  <path
    id="hair-6"
    fill="none"
    stroke="#ffffff"
    stroke-width="2"
    d="M 781.4 872.8 C 781.4 872.8 791.9 945.5 818 947.9"
  />
  <path
    id="hair-5"
    fill="none"
    stroke="#ffffff"
    stroke-width="2"
    d="M 891.1 485.1 C 891.1 485.1 863.2 533.4 781.4 480"
  />
  <path
    id="hair-4"
    fill="none"
    stroke="#ffffff"
    stroke-width="2"
    d="M 534.8 152.2 C 534.8 152.2 706 270.1 752 421.2"
  />
  <path
    id="hair-3"
    fill="none"
    stroke="#ffffff"
    stroke-width="2"
    d="M 418.1 60.9 C 418.1 60.9 666.4 53.4 759.1 292.3"
  />
  <path
    id="hair-2"
    fill="none"
    stroke="#ffffff"
    stroke-width="2"
    d="M 238.5 824.1 C 238.5 824.1 225.4 923.2 253.7 947.9"
  />
  <path
    id="hair-1"
    fill="none"
    stroke="#ffffff"
    stroke-width="2"
    d="M 138 505.4 C 138 505.4 186 378.7 202 373.5"
  />
  <path
    id="right-earing"
    fill="#cdcdcd"
    fill-rule="evenodd"
    stroke="none"
    d="M 801.7 741.9 C 801.7 741.9 801.7 741.9 801.7 741.9 C 794 744 783 769.9 803.8 776.4 C 818.6 781 826.4 745.8 801.7 741.9 Z"
  />
  <path
    id="left-earing"
    fill="#cdcdcd"
    fill-rule="evenodd"
    stroke="none"
    d="M 202.6 729.9 L 202.6 729.9 C 225.8 751.8 236.5 721.6 236.5 721.6 C 236.5 721.6 247.7 764.7 220.2 765.2 C 198.7 765.6 202.6 729.9 202.6 729.9 Z"
  />
  <path
    id="right-ear"
    fill="none"
    stroke="#000000"
    stroke-width="2"
    d="M 818 657.6 C 818 657.6 872.8 540.5 836.2 555.1"
  />
  <path
    id="left-ear"
    fill="none"
    stroke="#000000"
    stroke-width="2"
    d="M 192.8 676.9 C 192.8 676.9 150.2 617.3 155.3 564.3"
  />
  <path
    id="lips"
    fill="#cdcdcd"
    fill-rule="evenodd"
    stroke="none"
    d="M 394.8 799.7 C 394.8 799.7 480.9 791.5 486.1 788.6 C 491.4 785.6 522.7 779.7 532.8 787.5 C 532.8 787.5 554.5 777.5 577.5 786.5 C 577.5 786.5 638.9 799.8 642.4 811.9 C 644.7 819.5 578.6 844.9 529.8 847.4 C 462.3 850.9 394.8 799.7 394.8 799.7 Z"
  />
  <path
    id="mouth"
    fill="none"
    stroke="#000000"
    stroke-width="4"
    d="M 394.8 799.7 C 433.3 808.9 507.1 813.8 510.4 811.9 C 516.8 808.2 539.5 809.7 544.9 811.9 C 547.7 813 594.6 804.1 642.4 811.9"
  />
  <path
    id="right-cheek"
    fill="none"
    stroke="#cdcdcd"
    stroke-width="2"
    d="M 634.3 721.6 C 634.3 721.6 643.4 758 663.7 765.2"
  />
  <path
    id="left-cheek"
    fill="none"
    stroke="#cdcdcd"
    stroke-width="2"
    d="M 370.4 765.2 C 370.4 765.2 409.4 749.9 418.1 712.4"
  />
  <path
    id="nose-2"
    fill="none"
    stroke="#000000"
    stroke-width="2"
    d="M 480 555.1 C 480 555.1 500.3 622.1 480 644.4"
  />
  <path
    id="nose-1"
    fill="none"
    stroke="#000000"
    stroke-width="4.1"
    d="M 454.7 675.9 C 437.7 705.6 478.2 722.7 480 715.5 C 480.8 712.6 481.9 711.2 483.2 709.2 C 490.7 698 506.5 700.9 515.6 713.5 C 520 719.5 539.2 729.4 550.1 712.4 C 550.1 712.4 561.8 696.6 577.6 707.7 C 580.2 709.5 582.8 711 585.6 714.5 C 590.5 720.6 620.2 717 600.8 667.8"
  />
  <path
    id="right-nose-hole"
    fill="#000000"
    fill-rule="evenodd"
    stroke="#000000"
    stroke-width="4"
    d="M 550.1 712.4 C 550.1 712.4 561.8 696.6 577.6 707.7 C 571 714.2 562.1 715 550.1 712.4"
  />
  <path
    id="left-nose-hole"
    fill="#000000"
    fill-rule="evenodd"
    stroke="#000000"
    stroke-width="4"
    d="M 483.2 709.2 C 490.7 698 506.5 700.9 515.6 713.5 C 503.4 713.7 493 713 483.2 709.2"
  />
  <path
    id="right-eyeball"
    fill="#000000"
    fill-rule="evenodd"
    stroke="#000000"
    stroke-width="6"
    d="M 622.5 533.8 C 636.3 526 655.8 521 680.7 529.9 C 682 535 682.2 567.2 650.5 568.3 C 621.7 569.4 622 537 622.5 533.8 Z"
  />
  <path
    id="right-eyelash"
    fill="none"
    stroke="#000000"
    stroke-width="6"
    d="M 598.8 555.1 C 598.8 555.1 606.9 542.7 622.5 533.8 C 636.3 526 655.8 521 680.7 529.9 C 694.7 535 710.4 544.4 727.7 560.2"
  />
  <path
    id="right-eyebrow"
    fill="#000000"
    fill-rule="evenodd"
    stroke="#000000"
    stroke-width="6"
    d="M 571.4 508.4 C 636.9 494.8 675.5 477.3 745.9 501.3 C 745.9 501.3 702.2 429 562.2 481 C 562.2 481 561.9 510.4 571.4 508.4 Z"
  />
  <path
    id="left-eyeball"
    fill="#000000"
    fill-rule="evenodd"
    stroke="#000000"
    stroke-width="6"
    d="M 360.1 525.7 C 376.5 518.6 397.1 515.9 419.8 527.2 C 420 530 418.5 565.5 389.7 564.3 C 360.9 563 360 529 360.1 525.7 Z"
  />
  <path
    id="left-eyelash"
    fill="none"
    stroke="#000000"
    stroke-width="6"
    d="M 321.7 555.1 C 321.7 555.1 336.6 535.9 360.1 525.7 C 376.5 518.6 397.1 515.9 419.8 527.2 C 431 532.7 442.7 541.7 454.7 555.1"
  />
  <path
    id="left-eyebrow"
    fill="#000000"
    fill-rule="evenodd"
    stroke="#000000"
    stroke-width="6"
    d="M 284.2 496.3 C 284.2 496.3 362.8 463.2 466.8 508.4 C 466.8 508.4 488.3 489.6 477 483.1 C 344.2 406.6 284.2 496.3 284.2 496.3 Z"
  />
</svg>
